%TF.GenerationSoftware,KiCad,Pcbnew,9.0.7*%
%TF.CreationDate,2026-04-21T01:11:17-04:00*%
%TF.ProjectId,Custom-ESPC5,43757374-6f6d-42d4-9553-5043352e6b69,rev?*%
%TF.SameCoordinates,Original*%
%TF.FileFunction,Copper,L3,Inr*%
%TF.FilePolarity,Positive*%
%FSLAX46Y46*%
G04 Gerber Fmt 4.6, Leading zero omitted, Abs format (unit mm)*
G04 Created by KiCad (PCBNEW 9.0.7) date 2026-04-21 01:11:17*
%MOMM*%
%LPD*%
G01*
G04 APERTURE LIST*
G04 Aperture macros list*
%AMRoundRect*
0 Rectangle with rounded corners*
0 $1 Rounding radius*
0 $2 $3 $4 $5 $6 $7 $8 $9 X,Y pos of 4 corners*
0 Add a 4 corners polygon primitive as box body*
4,1,4,$2,$3,$4,$5,$6,$7,$8,$9,$2,$3,0*
0 Add four circle primitives for the rounded corners*
1,1,$1+$1,$2,$3*
1,1,$1+$1,$4,$5*
1,1,$1+$1,$6,$7*
1,1,$1+$1,$8,$9*
0 Add four rect primitives between the rounded corners*
20,1,$1+$1,$2,$3,$4,$5,0*
20,1,$1+$1,$4,$5,$6,$7,0*
20,1,$1+$1,$6,$7,$8,$9,0*
20,1,$1+$1,$8,$9,$2,$3,0*%
G04 Aperture macros list end*
%TA.AperFunction,ComponentPad*%
%ADD10R,2.000000X1.905000*%
%TD*%
%TA.AperFunction,ComponentPad*%
%ADD11O,2.000000X1.905000*%
%TD*%
%TA.AperFunction,ComponentPad*%
%ADD12R,1.700000X1.700000*%
%TD*%
%TA.AperFunction,ComponentPad*%
%ADD13C,1.700000*%
%TD*%
%TA.AperFunction,HeatsinkPad*%
%ADD14C,0.600000*%
%TD*%
%TA.AperFunction,ComponentPad*%
%ADD15RoundRect,0.250000X-0.725000X0.600000X-0.725000X-0.600000X0.725000X-0.600000X0.725000X0.600000X0*%
%TD*%
%TA.AperFunction,ComponentPad*%
%ADD16O,1.950000X1.700000*%
%TD*%
%TA.AperFunction,ComponentPad*%
%ADD17R,2.000000X4.000000*%
%TD*%
%TA.AperFunction,ComponentPad*%
%ADD18O,2.000000X3.300000*%
%TD*%
%TA.AperFunction,ComponentPad*%
%ADD19O,3.500000X2.000000*%
%TD*%
%TA.AperFunction,HeatsinkPad*%
%ADD20O,2.100000X1.000000*%
%TD*%
%TA.AperFunction,HeatsinkPad*%
%ADD21O,1.600000X1.000000*%
%TD*%
%TA.AperFunction,ComponentPad*%
%ADD22RoundRect,0.250000X0.750000X0.750000X-0.750000X0.750000X-0.750000X-0.750000X0.750000X-0.750000X0*%
%TD*%
%TA.AperFunction,ComponentPad*%
%ADD23C,2.000000*%
%TD*%
%TA.AperFunction,ComponentPad*%
%ADD24RoundRect,0.250000X-0.750000X-0.750000X0.750000X-0.750000X0.750000X0.750000X-0.750000X0.750000X0*%
%TD*%
%TA.AperFunction,ComponentPad*%
%ADD25RoundRect,0.250000X0.725000X-0.600000X0.725000X0.600000X-0.725000X0.600000X-0.725000X-0.600000X0*%
%TD*%
%TA.AperFunction,ViaPad*%
%ADD26C,0.600000*%
%TD*%
G04 APERTURE END LIST*
D10*
%TO.N,+3.3V*%
%TO.C,U4*%
X86500000Y-106700000D03*
D11*
%TO.N,GND*%
X86500000Y-109240000D03*
%TO.N,+5V*%
X86500000Y-111780000D03*
%TD*%
D12*
%TO.N,/GPIO0*%
%TO.C,J3*%
X105325000Y-86350000D03*
D13*
%TO.N,Net-(J3-Pin_2)*%
X107865000Y-86350000D03*
%TD*%
D14*
%TO.N,GND*%
%TO.C,U6*%
X75850000Y-89910000D03*
X75850000Y-91310000D03*
X76550000Y-89210000D03*
X76550000Y-90610000D03*
X76550000Y-92010000D03*
X77250000Y-89910000D03*
X77250000Y-91310000D03*
X77950000Y-89210000D03*
X77950000Y-90610000D03*
X77950000Y-92010000D03*
X78650000Y-89910000D03*
X78650000Y-91310000D03*
%TD*%
D15*
%TO.N,+3.3V*%
%TO.C,J12*%
X56550000Y-110250000D03*
D16*
%TO.N,/B2*%
X56550000Y-112750000D03*
%TO.N,/A2*%
X56550000Y-115250000D03*
%TO.N,/IDX2*%
X56550000Y-117750000D03*
%TO.N,GND*%
X56550000Y-120250000D03*
%TD*%
D17*
%TO.N,Net-(U2-VI)*%
%TO.C,J10*%
X99800000Y-94400000D03*
D18*
%TO.N,GND*%
X105800000Y-94400000D03*
D19*
%TO.N,N/C*%
X106800000Y-98900000D03*
X106800000Y-89900000D03*
%TD*%
D12*
%TO.N,Net-(J8-Pin_1)*%
%TO.C,J8*%
X91950000Y-102075000D03*
D13*
%TO.N,+5V*%
X91950000Y-104615000D03*
%TD*%
D20*
%TO.N,unconnected-(J4-SHIELD-PadS1)_3*%
%TO.C,J4*%
X105270000Y-111720000D03*
D21*
%TO.N,unconnected-(J4-SHIELD-PadS1)*%
X109450000Y-111720000D03*
D20*
%TO.N,unconnected-(J4-SHIELD-PadS1)_1*%
X105270000Y-103080000D03*
D21*
%TO.N,unconnected-(J4-SHIELD-PadS1)_2*%
X109450000Y-103080000D03*
%TD*%
D12*
%TO.N,+5V*%
%TO.C,J7*%
X95000000Y-113550000D03*
D13*
%TO.N,Net-(J7-Pin_2)*%
X97540000Y-113550000D03*
%TD*%
D10*
%TO.N,Net-(U2-ADJ)*%
%TO.C,U2*%
X94000000Y-94440000D03*
D11*
%TO.N,Net-(J8-Pin_1)*%
X94000000Y-91900000D03*
%TO.N,Net-(U2-VI)*%
X94000000Y-89360000D03*
%TD*%
D22*
%TO.N,Net-(J6-Pin_1)*%
%TO.C,J6*%
X69145000Y-124982500D03*
D23*
%TO.N,GND*%
X66605000Y-124982500D03*
%TO.N,Net-(J6-Pin_3)*%
X64065000Y-124982500D03*
%TD*%
D12*
%TO.N,/CHIP_PU*%
%TO.C,J2*%
X62900000Y-90475000D03*
D13*
%TO.N,Net-(J2-Pin_2)*%
X62900000Y-93015000D03*
%TD*%
D24*
%TO.N,Net-(J1-Pin_1)*%
%TO.C,J1*%
X74710000Y-124700000D03*
D23*
%TO.N,Net-(J1-Pin_2)*%
X77250000Y-124700000D03*
%TD*%
D15*
%TO.N,+3.3V*%
%TO.C,J13*%
X56550000Y-94250000D03*
D16*
%TO.N,/B1*%
X56550000Y-96750000D03*
%TO.N,/A1*%
X56550000Y-99250000D03*
%TO.N,/IDX1*%
X56550000Y-101750000D03*
%TO.N,GND*%
X56550000Y-104250000D03*
%TD*%
D25*
%TO.N,/UART1 TX*%
%TO.C,J5*%
X104450000Y-124800000D03*
D16*
%TO.N,/UART1 RX*%
X104450000Y-122300000D03*
%TO.N,GND*%
X104450000Y-119800000D03*
%TD*%
D26*
%TO.N,GND*%
X60050000Y-85700000D03*
X76100000Y-114650000D03*
X97000000Y-102600000D03*
X63406501Y-118875000D03*
X110873000Y-115435000D03*
X101100000Y-110300000D03*
X90550000Y-113900000D03*
X73550000Y-118450000D03*
X67825000Y-92925000D03*
X96900000Y-98500000D03*
X89450000Y-121400000D03*
X89325000Y-82900000D03*
X92600000Y-110950000D03*
X68325000Y-117420000D03*
X65174999Y-116720000D03*
X92100000Y-100200000D03*
X68150000Y-82875000D03*
X58400000Y-87550000D03*
X61725000Y-104300000D03*
X102500000Y-101800000D03*
X75950000Y-105200000D03*
X77550000Y-110750000D03*
X66425000Y-92900000D03*
X70175000Y-117420000D03*
X59150000Y-120250000D03*
X102964193Y-105912722D03*
X101750000Y-119800000D03*
%TO.N,+3.3V*%
X93712500Y-107637500D03*
X90500000Y-112750000D03*
X76462500Y-103187500D03*
X80807000Y-98850000D03*
X85900000Y-98850000D03*
X96200000Y-104300000D03*
X86000000Y-102875000D03*
X101207109Y-106408418D03*
X91500000Y-108250000D03*
%TO.N,/A2*%
X68111765Y-103688235D03*
X61849265Y-110750735D03*
X60678686Y-111952382D03*
X76850000Y-103950000D03*
%TO.N,/B2*%
X60100000Y-111400000D03*
X61625000Y-109900000D03*
%TO.N,/IDX2*%
X65475000Y-93900000D03*
%TO.N,/A1*%
X78150000Y-98475000D03*
X63500000Y-97550000D03*
%TO.N,/B1*%
X67800000Y-90100000D03*
%TO.N,/IDX1*%
X79375000Y-104600000D03*
X63625000Y-100050000D03*
%TO.N,Net-(J2-Pin_2)*%
X67500000Y-88775000D03*
X66375000Y-95750000D03*
%TO.N,/CAN TX*%
X83975000Y-97650000D03*
X83975000Y-103975000D03*
%TO.N,/CAN RX*%
X83050000Y-97675000D03*
X75150000Y-109825000D03*
%TO.N,/UART RTS*%
X96050000Y-110850000D03*
X72250000Y-113675000D03*
%TO.N,Net-(J3-Pin_2)*%
X77325735Y-107099265D03*
X90449231Y-98182821D03*
X90300000Y-88175000D03*
X89450000Y-101100000D03*
X68025000Y-109950000D03*
%TO.N,/UART DTR*%
X72400000Y-109275000D03*
X96575000Y-111525000D03*
%TO.N,Net-(U3-D-)*%
X102325000Y-106550000D03*
X102800000Y-108300000D03*
X102050000Y-111250000D03*
%TO.N,Net-(U3-D+)*%
X101900000Y-108100000D03*
X100150000Y-111100000D03*
%TO.N,/SDA*%
X69150000Y-102675000D03*
X76375000Y-102057015D03*
X80500000Y-108075000D03*
%TO.N,/SCL*%
X69250000Y-105525000D03*
X71125000Y-105550000D03*
X79625000Y-108550000D03*
%TO.N,/UART0 RX*%
X98536765Y-110513235D03*
X85000000Y-94200000D03*
%TO.N,/UART0 TX*%
X99261963Y-111086396D03*
X89050000Y-86675000D03*
%TO.N,/UART1 RX*%
X75550000Y-95650000D03*
%TO.N,/UART1 TX*%
X75550857Y-94849998D03*
%TD*%
%TA.AperFunction,Conductor*%
%TO.N,GND*%
G36*
X50045354Y-86619685D02*
G01*
X50090032Y-86670195D01*
X50130315Y-86753842D01*
X50158055Y-86811446D01*
X50264139Y-86980276D01*
X50307477Y-87049248D01*
X50415965Y-87185288D01*
X50465874Y-87247872D01*
X50482584Y-87268825D01*
X50681175Y-87467416D01*
X50900752Y-87642523D01*
X51138555Y-87791945D01*
X51391592Y-87913801D01*
X51565060Y-87974500D01*
X51656670Y-88006556D01*
X51656682Y-88006560D01*
X51930491Y-88069055D01*
X51930497Y-88069055D01*
X51930505Y-88069057D01*
X52116547Y-88090018D01*
X52209569Y-88100499D01*
X52209572Y-88100500D01*
X52209575Y-88100500D01*
X52490428Y-88100500D01*
X52490429Y-88100499D01*
X52633055Y-88084429D01*
X52769494Y-88069057D01*
X52769499Y-88069056D01*
X52769509Y-88069055D01*
X53043318Y-88006560D01*
X53308408Y-87913801D01*
X53561445Y-87791945D01*
X53799248Y-87642523D01*
X54018825Y-87467416D01*
X54217416Y-87268825D01*
X54392523Y-87049248D01*
X54541945Y-86811445D01*
X54609966Y-86670195D01*
X54656787Y-86618339D01*
X54721685Y-86600000D01*
X88125500Y-86600000D01*
X88192539Y-86619685D01*
X88238294Y-86672489D01*
X88249500Y-86724000D01*
X88249500Y-86753846D01*
X88280261Y-86908489D01*
X88280264Y-86908501D01*
X88340602Y-87054172D01*
X88340609Y-87054185D01*
X88428210Y-87185288D01*
X88428213Y-87185292D01*
X88539707Y-87296786D01*
X88539711Y-87296789D01*
X88670814Y-87384390D01*
X88670827Y-87384397D01*
X88810687Y-87442328D01*
X88816503Y-87444737D01*
X88971153Y-87475499D01*
X88971156Y-87475500D01*
X88971158Y-87475500D01*
X89128844Y-87475500D01*
X89128845Y-87475499D01*
X89283497Y-87444737D01*
X89429179Y-87384394D01*
X89560289Y-87296789D01*
X89671789Y-87185289D01*
X89759394Y-87054179D01*
X89761437Y-87049248D01*
X89819735Y-86908501D01*
X89819737Y-86908497D01*
X89850500Y-86753842D01*
X89850500Y-86724000D01*
X89870185Y-86656961D01*
X89922989Y-86611206D01*
X89974500Y-86600000D01*
X103850501Y-86600000D01*
X103917540Y-86619685D01*
X103963295Y-86672489D01*
X103974501Y-86724000D01*
X103974501Y-87247876D01*
X103980908Y-87307483D01*
X104031202Y-87442328D01*
X104031206Y-87442335D01*
X104117452Y-87557544D01*
X104117455Y-87557547D01*
X104232664Y-87643793D01*
X104232671Y-87643797D01*
X104367517Y-87694091D01*
X104367516Y-87694091D01*
X104374444Y-87694835D01*
X104427127Y-87700500D01*
X106222872Y-87700499D01*
X106282483Y-87694091D01*
X106417331Y-87643796D01*
X106532546Y-87557546D01*
X106618796Y-87442331D01*
X106667810Y-87310916D01*
X106709681Y-87254984D01*
X106775145Y-87230566D01*
X106843418Y-87245417D01*
X106871673Y-87266569D01*
X106985213Y-87380109D01*
X107157179Y-87505048D01*
X107157181Y-87505049D01*
X107157184Y-87505051D01*
X107346588Y-87601557D01*
X107548757Y-87667246D01*
X107758713Y-87700500D01*
X107758714Y-87700500D01*
X107971286Y-87700500D01*
X107971287Y-87700500D01*
X108181243Y-87667246D01*
X108383412Y-87601557D01*
X108572816Y-87505051D01*
X108613491Y-87475499D01*
X108744786Y-87380109D01*
X108744788Y-87380106D01*
X108744792Y-87380104D01*
X108895104Y-87229792D01*
X108895106Y-87229788D01*
X108895109Y-87229786D01*
X109020048Y-87057820D01*
X109020047Y-87057820D01*
X109020051Y-87057816D01*
X109116557Y-86868412D01*
X109175930Y-86685680D01*
X109215368Y-86628006D01*
X109279727Y-86600808D01*
X109293861Y-86600000D01*
X111797595Y-86600000D01*
X111864634Y-86619685D01*
X111910389Y-86672489D01*
X111921594Y-86724260D01*
X111892628Y-100405051D01*
X111832156Y-128965105D01*
X111832156Y-128965111D01*
X111832137Y-128973590D01*
X111832000Y-128974108D01*
X111832000Y-129037017D01*
X111831992Y-129037043D01*
X111831830Y-129043238D01*
X111814209Y-129379450D01*
X111812852Y-129392358D01*
X111760696Y-129721662D01*
X111757998Y-129734357D01*
X111671704Y-130056413D01*
X111667693Y-130068758D01*
X111548208Y-130380027D01*
X111542929Y-130391884D01*
X111391559Y-130688964D01*
X111385069Y-130700204D01*
X111203483Y-130979822D01*
X111195854Y-130990323D01*
X110986024Y-131249441D01*
X110977339Y-131259086D01*
X110741586Y-131494839D01*
X110731941Y-131503524D01*
X110472823Y-131713354D01*
X110462322Y-131720983D01*
X110182704Y-131902569D01*
X110171464Y-131909059D01*
X109874384Y-132060429D01*
X109862527Y-132065708D01*
X109551258Y-132185193D01*
X109538913Y-132189204D01*
X109216857Y-132275498D01*
X109204162Y-132278196D01*
X108874858Y-132330352D01*
X108861950Y-132331709D01*
X108525744Y-132349330D01*
X108519254Y-132349500D01*
X53280372Y-132349500D01*
X53274645Y-132349368D01*
X52919270Y-132332937D01*
X52907866Y-132331880D01*
X52558374Y-132283128D01*
X52547115Y-132281023D01*
X52203619Y-132200234D01*
X52192603Y-132197100D01*
X51858012Y-132084957D01*
X51847332Y-132080819D01*
X51801153Y-132060429D01*
X51524528Y-131938287D01*
X51514284Y-131933186D01*
X51412203Y-131876327D01*
X51206000Y-131761472D01*
X51196262Y-131755443D01*
X50905132Y-131556015D01*
X50895992Y-131549112D01*
X50624518Y-131323683D01*
X50616054Y-131315967D01*
X50366532Y-131066445D01*
X50358816Y-131057981D01*
X50293914Y-130979822D01*
X50133385Y-130786504D01*
X50126484Y-130777367D01*
X49927056Y-130486237D01*
X49921027Y-130476499D01*
X49867292Y-130380027D01*
X49749308Y-130168206D01*
X49744216Y-130157980D01*
X49601675Y-129835154D01*
X49597547Y-129824500D01*
X49485395Y-129489883D01*
X49482268Y-129478893D01*
X49401474Y-129135376D01*
X49399371Y-129124125D01*
X49370956Y-128920427D01*
X49350618Y-128774626D01*
X49349562Y-128763229D01*
X49343949Y-128641823D01*
X49343845Y-128639568D01*
X49849500Y-128639568D01*
X49849500Y-128920431D01*
X49880942Y-129199494D01*
X49880945Y-129199512D01*
X49943439Y-129473317D01*
X49943443Y-129473329D01*
X50036200Y-129738411D01*
X50158053Y-129991442D01*
X50198877Y-130056413D01*
X50307477Y-130229248D01*
X50482584Y-130448825D01*
X50681175Y-130647416D01*
X50900752Y-130822523D01*
X51138555Y-130971945D01*
X51391592Y-131093801D01*
X51522904Y-131139749D01*
X51656670Y-131186556D01*
X51656682Y-131186560D01*
X51930491Y-131249055D01*
X51930497Y-131249055D01*
X51930505Y-131249057D01*
X52116547Y-131270018D01*
X52209569Y-131280499D01*
X52209572Y-131280500D01*
X52209575Y-131280500D01*
X52490428Y-131280500D01*
X52490429Y-131280499D01*
X52633055Y-131264429D01*
X52769494Y-131249057D01*
X52769499Y-131249056D01*
X52769509Y-131249055D01*
X53043318Y-131186560D01*
X53308408Y-131093801D01*
X53561445Y-130971945D01*
X53799248Y-130822523D01*
X54018825Y-130647416D01*
X54217416Y-130448825D01*
X54392523Y-130229248D01*
X54541945Y-129991445D01*
X54663801Y-129738408D01*
X54756560Y-129473318D01*
X54819055Y-129199509D01*
X54850500Y-128920425D01*
X54850500Y-128639575D01*
X54850499Y-128639568D01*
X92849500Y-128639568D01*
X92849500Y-128920431D01*
X92880942Y-129199494D01*
X92880945Y-129199512D01*
X92943439Y-129473317D01*
X92943443Y-129473329D01*
X93036200Y-129738411D01*
X93158053Y-129991442D01*
X93198877Y-130056413D01*
X93307477Y-130229248D01*
X93482584Y-130448825D01*
X93681175Y-130647416D01*
X93900752Y-130822523D01*
X94138555Y-130971945D01*
X94391592Y-131093801D01*
X94522904Y-131139749D01*
X94656670Y-131186556D01*
X94656682Y-131186560D01*
X94930491Y-131249055D01*
X94930497Y-131249055D01*
X94930505Y-131249057D01*
X95116547Y-131270018D01*
X95209569Y-131280499D01*
X95209572Y-131280500D01*
X95209575Y-131280500D01*
X95490428Y-131280500D01*
X95490429Y-131280499D01*
X95633055Y-131264429D01*
X95769494Y-131249057D01*
X95769499Y-131249056D01*
X95769509Y-131249055D01*
X96043318Y-131186560D01*
X96308408Y-131093801D01*
X96561445Y-130971945D01*
X96799248Y-130822523D01*
X97018825Y-130647416D01*
X97217416Y-130448825D01*
X97392523Y-130229248D01*
X97541945Y-129991445D01*
X97663801Y-129738408D01*
X97756560Y-129473318D01*
X97819055Y-129199509D01*
X97850500Y-128920425D01*
X97850500Y-128639575D01*
X97831414Y-128470180D01*
X97819057Y-128360505D01*
X97819054Y-128360487D01*
X97756560Y-128086682D01*
X97756556Y-128086670D01*
X97733465Y-128020680D01*
X97663801Y-127821592D01*
X97541945Y-127568555D01*
X97392523Y-127330752D01*
X97217416Y-127111175D01*
X97018825Y-126912584D01*
X96799248Y-126737477D01*
X96561445Y-126588055D01*
X96561442Y-126588053D01*
X96308411Y-126466200D01*
X96043329Y-126373443D01*
X96043317Y-126373439D01*
X95769512Y-126310945D01*
X95769494Y-126310942D01*
X95490431Y-126279500D01*
X95490425Y-126279500D01*
X95209575Y-126279500D01*
X95209568Y-126279500D01*
X94930505Y-126310942D01*
X94930487Y-126310945D01*
X94656682Y-126373439D01*
X94656670Y-126373443D01*
X94391588Y-126466200D01*
X94138557Y-126588053D01*
X93900753Y-126737476D01*
X93681175Y-126912583D01*
X93482583Y-127111175D01*
X93307476Y-127330753D01*
X93158053Y-127568557D01*
X93036200Y-127821588D01*
X92943443Y-128086670D01*
X92943439Y-128086682D01*
X92880945Y-128360487D01*
X92880942Y-128360505D01*
X92849500Y-128639568D01*
X54850499Y-128639568D01*
X54831414Y-128470180D01*
X54819057Y-128360505D01*
X54819054Y-128360487D01*
X54756560Y-128086682D01*
X54756556Y-128086670D01*
X54733465Y-128020680D01*
X54663801Y-127821592D01*
X54541945Y-127568555D01*
X54392523Y-127330752D01*
X54217416Y-127111175D01*
X54018825Y-126912584D01*
X53799248Y-126737477D01*
X53561445Y-126588055D01*
X53561442Y-126588053D01*
X53308411Y-126466200D01*
X53043329Y-126373443D01*
X53043317Y-126373439D01*
X52769512Y-126310945D01*
X52769494Y-126310942D01*
X52490431Y-126279500D01*
X52490425Y-126279500D01*
X52209575Y-126279500D01*
X52209568Y-126279500D01*
X51930505Y-126310942D01*
X51930487Y-126310945D01*
X51656682Y-126373439D01*
X51656670Y-126373443D01*
X51391588Y-126466200D01*
X51138557Y-126588053D01*
X50900753Y-126737476D01*
X50681175Y-126912583D01*
X50482583Y-127111175D01*
X50307476Y-127330753D01*
X50158053Y-127568557D01*
X50036200Y-127821588D01*
X49943443Y-128086670D01*
X49943439Y-128086682D01*
X49880945Y-128360487D01*
X49880942Y-128360505D01*
X49849500Y-128639568D01*
X49343845Y-128639568D01*
X49333136Y-128407960D01*
X49333004Y-128402057D01*
X49333453Y-128086682D01*
X49338035Y-124864402D01*
X62564500Y-124864402D01*
X62564500Y-125100597D01*
X62601446Y-125333868D01*
X62674433Y-125558496D01*
X62761772Y-125729906D01*
X62781657Y-125768933D01*
X62920483Y-125960010D01*
X63087490Y-126127017D01*
X63278567Y-126265843D01*
X63367079Y-126310942D01*
X63489003Y-126373066D01*
X63489005Y-126373066D01*
X63489008Y-126373068D01*
X63609412Y-126412189D01*
X63713631Y-126446053D01*
X63946903Y-126483000D01*
X63946908Y-126483000D01*
X64183097Y-126483000D01*
X64416368Y-126446053D01*
X64417870Y-126445565D01*
X64640992Y-126373068D01*
X64851433Y-126265843D01*
X65042510Y-126127017D01*
X65209517Y-125960010D01*
X65256370Y-125895522D01*
X65260713Y-125890699D01*
X65285150Y-125875642D01*
X65307877Y-125858118D01*
X65315393Y-125857009D01*
X65320199Y-125854049D01*
X65333730Y-125854306D01*
X65362594Y-125850051D01*
X65382340Y-125851605D01*
X66040387Y-125193558D01*
X66045889Y-125214091D01*
X66124881Y-125350908D01*
X66236592Y-125462619D01*
X66373409Y-125541611D01*
X66393940Y-125547112D01*
X65735893Y-126205158D01*
X65818828Y-126265414D01*
X66029197Y-126372602D01*
X66253752Y-126445565D01*
X66253751Y-126445565D01*
X66486948Y-126482500D01*
X66723052Y-126482500D01*
X66956247Y-126445565D01*
X67180802Y-126372602D01*
X67391163Y-126265418D01*
X67391169Y-126265414D01*
X67474104Y-126205158D01*
X67474105Y-126205158D01*
X66816058Y-125547112D01*
X66836591Y-125541611D01*
X66973408Y-125462619D01*
X67085119Y-125350908D01*
X67164111Y-125214091D01*
X67169612Y-125193558D01*
X67608181Y-125632127D01*
X67641666Y-125693450D01*
X67644500Y-125719806D01*
X67644500Y-125782500D01*
X67644501Y-125782519D01*
X67655000Y-125885296D01*
X67655001Y-125885299D01*
X67679759Y-125960012D01*
X67710186Y-126051834D01*
X67802288Y-126201156D01*
X67926344Y-126325212D01*
X68075666Y-126417314D01*
X68242203Y-126472499D01*
X68344991Y-126483000D01*
X69945008Y-126482999D01*
X70047797Y-126472499D01*
X70214334Y-126417314D01*
X70363656Y-126325212D01*
X70487712Y-126201156D01*
X70579814Y-126051834D01*
X70634999Y-125885297D01*
X70645500Y-125782509D01*
X70645499Y-124182492D01*
X70638440Y-124113393D01*
X70634999Y-124079703D01*
X70624230Y-124047204D01*
X70579814Y-123913166D01*
X70571683Y-123899983D01*
X73209500Y-123899983D01*
X73209500Y-125500001D01*
X73209501Y-125500018D01*
X73220000Y-125602796D01*
X73220001Y-125602799D01*
X73275185Y-125769331D01*
X73275187Y-125769336D01*
X73301746Y-125812395D01*
X73367288Y-125918656D01*
X73491344Y-126042712D01*
X73640666Y-126134814D01*
X73807203Y-126189999D01*
X73909991Y-126200500D01*
X75510008Y-126200499D01*
X75612797Y-126189999D01*
X75779334Y-126134814D01*
X75928656Y-126042712D01*
X76052712Y-125918656D01*
X76082512Y-125870341D01*
X76134458Y-125823618D01*
X76203420Y-125812395D01*
X76267503Y-125840238D01*
X76268758Y-125841385D01*
X76268786Y-125841353D01*
X76272481Y-125844508D01*
X76272490Y-125844517D01*
X76463567Y-125983343D01*
X76481955Y-125992712D01*
X76674003Y-126090566D01*
X76674005Y-126090566D01*
X76674008Y-126090568D01*
X76786177Y-126127014D01*
X76898631Y-126163553D01*
X77131903Y-126200500D01*
X77131908Y-126200500D01*
X77368097Y-126200500D01*
X77601368Y-126163553D01*
X77825992Y-126090568D01*
X78036433Y-125983343D01*
X78227510Y-125844517D01*
X78394517Y-125677510D01*
X78533343Y-125486433D01*
X78640568Y-125275992D01*
X78713553Y-125051368D01*
X78724461Y-124982499D01*
X78750500Y-124818097D01*
X78750500Y-124581902D01*
X78713553Y-124348631D01*
X78663981Y-124196066D01*
X78640568Y-124124008D01*
X78640566Y-124124005D01*
X78640566Y-124124003D01*
X78544691Y-123935839D01*
X78533343Y-123913567D01*
X78394517Y-123722490D01*
X78227510Y-123555483D01*
X78036433Y-123416657D01*
X77985902Y-123390910D01*
X77825996Y-123309433D01*
X77601368Y-123236446D01*
X77368097Y-123199500D01*
X77368092Y-123199500D01*
X77131908Y-123199500D01*
X77131903Y-123199500D01*
X76898631Y-123236446D01*
X76674003Y-123309433D01*
X76463566Y-123416657D01*
X76374533Y-123481344D01*
X76272490Y-123555483D01*
X76272488Y-123555485D01*
X76268786Y-123558647D01*
X76267305Y-123556913D01*
X76214110Y-123585791D01*
X76144431Y-123580635D01*
X76088601Y-123538626D01*
X76082511Y-123529656D01*
X76071510Y-123511821D01*
X76052712Y-123481344D01*
X75928656Y-123357288D01*
X75779334Y-123265186D01*
X75612797Y-123210001D01*
X75612795Y-123210000D01*
X75510010Y-123199500D01*
X73909998Y-123199500D01*
X73909981Y-123199501D01*
X73807203Y-123210000D01*
X73807200Y-123210001D01*
X73640668Y-123265185D01*
X73640663Y-123265187D01*
X73491342Y-123357289D01*
X73367289Y-123481342D01*
X73275187Y-123630663D01*
X73275186Y-123630666D01*
X73220001Y-123797203D01*
X73220001Y-123797204D01*
X73220000Y-123797204D01*
X73209500Y-123899983D01*
X70571683Y-123899983D01*
X70487712Y-123763844D01*
X70363656Y-123639788D01*
X70232105Y-123558647D01*
X70214336Y-123547687D01*
X70214331Y-123547685D01*
X70212862Y-123547198D01*
X70047797Y-123492501D01*
X70047795Y-123492500D01*
X69945010Y-123482000D01*
X68344998Y-123482000D01*
X68344981Y-123482001D01*
X68242203Y-123492500D01*
X68242200Y-123492501D01*
X68075668Y-123547685D01*
X68075663Y-123547687D01*
X67926342Y-123639789D01*
X67802289Y-123763842D01*
X67710187Y-123913163D01*
X67710185Y-123913168D01*
X67710053Y-123913566D01*
X67655001Y-124079703D01*
X67655001Y-124079704D01*
X67655000Y-124079704D01*
X67644500Y-124182483D01*
X67644500Y-124245191D01*
X67624815Y-124312230D01*
X67608181Y-124332872D01*
X67169612Y-124771440D01*
X67164111Y-124750909D01*
X67085119Y-124614092D01*
X66973408Y-124502381D01*
X66836591Y-124423389D01*
X66816059Y-124417887D01*
X67474105Y-123759840D01*
X67474104Y-123759838D01*
X67391174Y-123699587D01*
X67180802Y-123592397D01*
X66956247Y-123519434D01*
X66956248Y-123519434D01*
X66723052Y-123482500D01*
X66486948Y-123482500D01*
X66253752Y-123519434D01*
X66029197Y-123592397D01*
X65818830Y-123699584D01*
X65735894Y-123759840D01*
X66393941Y-124417887D01*
X66373409Y-124423389D01*
X66236592Y-124502381D01*
X66124881Y-124614092D01*
X66045889Y-124750909D01*
X66040387Y-124771440D01*
X65382340Y-124113393D01*
X65362593Y-124114948D01*
X65358860Y-124114163D01*
X65355222Y-124115308D01*
X65324936Y-124107037D01*
X65294215Y-124100584D01*
X65290429Y-124097614D01*
X65287821Y-124096902D01*
X65278431Y-124088201D01*
X65260712Y-124074300D01*
X65256370Y-124069478D01*
X65209517Y-124004990D01*
X65042510Y-123837983D01*
X64851433Y-123699157D01*
X64794392Y-123670093D01*
X64640996Y-123591933D01*
X64416368Y-123518946D01*
X64183097Y-123482000D01*
X64183092Y-123482000D01*
X63946908Y-123482000D01*
X63946903Y-123482000D01*
X63713631Y-123518946D01*
X63489003Y-123591933D01*
X63278566Y-123699157D01*
X63195047Y-123759838D01*
X63087490Y-123837983D01*
X63087488Y-123837985D01*
X63087487Y-123837985D01*
X62920485Y-124004987D01*
X62920485Y-124004988D01*
X62920483Y-124004990D01*
X62889813Y-124047204D01*
X62781657Y-124196066D01*
X62674433Y-124406503D01*
X62601446Y-124631131D01*
X62564500Y-124864402D01*
X49338035Y-124864402D01*
X49341833Y-122193713D01*
X102974500Y-122193713D01*
X102974500Y-122406286D01*
X103007753Y-122616239D01*
X103073444Y-122818414D01*
X103169951Y-123007820D01*
X103294890Y-123179786D01*
X103433705Y-123318601D01*
X103467190Y-123379924D01*
X103462206Y-123449616D01*
X103420334Y-123505549D01*
X103411121Y-123511821D01*
X103256342Y-123607289D01*
X103132289Y-123731342D01*
X103040187Y-123880663D01*
X103040185Y-123880668D01*
X103021904Y-123935836D01*
X102985001Y-124047203D01*
X102985001Y-124047204D01*
X102985000Y-124047204D01*
X102974500Y-124149983D01*
X102974500Y-125450001D01*
X102974501Y-125450018D01*
X102985000Y-125552796D01*
X102985001Y-125552799D01*
X103031609Y-125693450D01*
X103040186Y-125719334D01*
X103132288Y-125868656D01*
X103256344Y-125992712D01*
X103405666Y-126084814D01*
X103572203Y-126139999D01*
X103674991Y-126150500D01*
X105225008Y-126150499D01*
X105327797Y-126139999D01*
X105494334Y-126084814D01*
X105643656Y-125992712D01*
X105767712Y-125868656D01*
X105859814Y-125719334D01*
X105914999Y-125552797D01*
X105925500Y-125450009D01*
X105925499Y-124149992D01*
X105914999Y-124047203D01*
X105859814Y-123880666D01*
X105767712Y-123731344D01*
X105643656Y-123607288D01*
X105494334Y-123515186D01*
X105494333Y-123515185D01*
X105488878Y-123511821D01*
X105442154Y-123459873D01*
X105430931Y-123390910D01*
X105458775Y-123326828D01*
X105466272Y-123318623D01*
X105605104Y-123179792D01*
X105730051Y-123007816D01*
X105826557Y-122818412D01*
X105892246Y-122616243D01*
X105925500Y-122406287D01*
X105925500Y-122193713D01*
X105892246Y-121983757D01*
X105826557Y-121781588D01*
X105730051Y-121592184D01*
X105730049Y-121592181D01*
X105730048Y-121592179D01*
X105605109Y-121420213D01*
X105454790Y-121269894D01*
X105454785Y-121269890D01*
X105289781Y-121150008D01*
X105247115Y-121094678D01*
X105241136Y-121025065D01*
X105273741Y-120963270D01*
X105289781Y-120949371D01*
X105454466Y-120829721D01*
X105604723Y-120679464D01*
X105604727Y-120679459D01*
X105729620Y-120507557D01*
X105826095Y-120318217D01*
X105891757Y-120116129D01*
X105891757Y-120116126D01*
X105902231Y-120050000D01*
X104854146Y-120050000D01*
X104892630Y-119983343D01*
X104925000Y-119862535D01*
X104925000Y-119737465D01*
X104892630Y-119616657D01*
X104854146Y-119550000D01*
X105902231Y-119550000D01*
X105891757Y-119483873D01*
X105891757Y-119483870D01*
X105826095Y-119281782D01*
X105729620Y-119092442D01*
X105604727Y-118920540D01*
X105604723Y-118920535D01*
X105454464Y-118770276D01*
X105454459Y-118770272D01*
X105282557Y-118645379D01*
X105093217Y-118548904D01*
X104891128Y-118483242D01*
X104700000Y-118452969D01*
X104700000Y-119395854D01*
X104633343Y-119357370D01*
X104512535Y-119325000D01*
X104387465Y-119325000D01*
X104266657Y-119357370D01*
X104200000Y-119395854D01*
X104200000Y-118452969D01*
X104008872Y-118483242D01*
X104008869Y-118483242D01*
X103806782Y-118548904D01*
X103617442Y-118645379D01*
X103445540Y-118770272D01*
X103445535Y-118770276D01*
X103295276Y-118920535D01*
X103295272Y-118920540D01*
X103170379Y-119092442D01*
X103073904Y-119281782D01*
X103008242Y-119483870D01*
X103008242Y-119483873D01*
X102997769Y-119550000D01*
X104045854Y-119550000D01*
X104007370Y-119616657D01*
X103975000Y-119737465D01*
X103975000Y-119862535D01*
X104007370Y-119983343D01*
X104045854Y-120050000D01*
X102997769Y-120050000D01*
X103008242Y-120116126D01*
X103008242Y-120116129D01*
X103073904Y-120318217D01*
X103170379Y-120507557D01*
X103295272Y-120679459D01*
X103295276Y-120679464D01*
X103445535Y-120829723D01*
X103445540Y-120829727D01*
X103610218Y-120949372D01*
X103652884Y-121004701D01*
X103658863Y-121074315D01*
X103626258Y-121136110D01*
X103610218Y-121150008D01*
X103445214Y-121269890D01*
X103445209Y-121269894D01*
X103294890Y-121420213D01*
X103169951Y-121592179D01*
X103073444Y-121781585D01*
X103007753Y-121983760D01*
X102974500Y-122193713D01*
X49341833Y-122193713D01*
X49358013Y-110815606D01*
X49359742Y-109599983D01*
X55074500Y-109599983D01*
X55074500Y-110900001D01*
X55074501Y-110900018D01*
X55085000Y-111002796D01*
X55085001Y-111002799D01*
X55140185Y-111169331D01*
X55140187Y-111169336D01*
X55172820Y-111222242D01*
X55232288Y-111318656D01*
X55356344Y-111442712D01*
X55415476Y-111479185D01*
X55511120Y-111538178D01*
X55557845Y-111590126D01*
X55569068Y-111659088D01*
X55541224Y-111723171D01*
X55533706Y-111731398D01*
X55394889Y-111870215D01*
X55269951Y-112042179D01*
X55173444Y-112231585D01*
X55107753Y-112433760D01*
X55074500Y-112643713D01*
X55074500Y-112856286D01*
X55105689Y-113053210D01*
X55107754Y-113066243D01*
X55170803Y-113260288D01*
X55173444Y-113268414D01*
X55269951Y-113457820D01*
X55394890Y-113629786D01*
X55545209Y-113780105D01*
X55545214Y-113780109D01*
X55709793Y-113899682D01*
X55752459Y-113955011D01*
X55758438Y-114024625D01*
X55725833Y-114086420D01*
X55709793Y-114100318D01*
X55545214Y-114219890D01*
X55545209Y-114219894D01*
X55394890Y-114370213D01*
X55269951Y-114542179D01*
X55173444Y-114731585D01*
X55107753Y-114933760D01*
X55074500Y-115143713D01*
X55074500Y-115356286D01*
X55107753Y-115566239D01*
X55173444Y-115768414D01*
X55269951Y-115957820D01*
X55394890Y-116129786D01*
X55545209Y-116280105D01*
X55545214Y-116280109D01*
X55709793Y-116399682D01*
X55752459Y-116455011D01*
X55758438Y-116524625D01*
X55725833Y-116586420D01*
X55709793Y-116600318D01*
X55545214Y-116719890D01*
X55545209Y-116719894D01*
X55394890Y-116870213D01*
X55269951Y-117042179D01*
X55173444Y-117231585D01*
X55107753Y-117433760D01*
X55074500Y-117643713D01*
X55074500Y-117856286D01*
X55107753Y-118066239D01*
X55173444Y-118268414D01*
X55269951Y-118457820D01*
X55394890Y-118629786D01*
X55545209Y-118780105D01*
X55545214Y-118780109D01*
X55710218Y-118899991D01*
X55752884Y-118955320D01*
X55758863Y-119024934D01*
X55726258Y-119086729D01*
X55710218Y-119100627D01*
X55545540Y-119220272D01*
X55545535Y-119220276D01*
X55395276Y-119370535D01*
X55395272Y-119370540D01*
X55270379Y-119542442D01*
X55173904Y-119731782D01*
X55108242Y-119933870D01*
X55108242Y-119933873D01*
X55097769Y-120000000D01*
X56145854Y-120000000D01*
X56107370Y-120066657D01*
X56075000Y-120187465D01*
X56075000Y-120312535D01*
X56107370Y-120433343D01*
X56145854Y-120500000D01*
X55097769Y-120500000D01*
X55108242Y-120566126D01*
X55108242Y-120566129D01*
X55173904Y-120768217D01*
X55270379Y-120957557D01*
X55395272Y-121129459D01*
X55395276Y-121129464D01*
X55545535Y-121279723D01*
X55545540Y-121279727D01*
X55717442Y-121404620D01*
X55906782Y-121501095D01*
X56108872Y-121566757D01*
X56300000Y-121597029D01*
X56300000Y-120654145D01*
X56366657Y-120692630D01*
X56487465Y-120725000D01*
X56612535Y-120725000D01*
X56733343Y-120692630D01*
X56800000Y-120654145D01*
X56800000Y-121597028D01*
X56991127Y-121566757D01*
X57193217Y-121501095D01*
X57382557Y-121404620D01*
X57554459Y-121279727D01*
X57554464Y-121279723D01*
X57704723Y-121129464D01*
X57704727Y-121129459D01*
X57829620Y-120957557D01*
X57926095Y-120768217D01*
X57991757Y-120566129D01*
X57991757Y-120566126D01*
X58002231Y-120500000D01*
X56954146Y-120500000D01*
X56992630Y-120433343D01*
X57025000Y-120312535D01*
X57025000Y-120187465D01*
X56992630Y-120066657D01*
X56954146Y-120000000D01*
X58002231Y-120000000D01*
X57991757Y-119933873D01*
X57991757Y-119933870D01*
X57926095Y-119731782D01*
X57881041Y-119643359D01*
X57829620Y-119542442D01*
X57704727Y-119370540D01*
X57704723Y-119370535D01*
X57554464Y-119220276D01*
X57554459Y-119220272D01*
X57389781Y-119100627D01*
X57347115Y-119045297D01*
X57341136Y-118975684D01*
X57373741Y-118913889D01*
X57389776Y-118899994D01*
X57554792Y-118780104D01*
X57705104Y-118629792D01*
X57705106Y-118629788D01*
X57705109Y-118629786D01*
X57830048Y-118457820D01*
X57830047Y-118457820D01*
X57830051Y-118457816D01*
X57926557Y-118268412D01*
X57992246Y-118066243D01*
X58025500Y-117856287D01*
X58025500Y-117643713D01*
X57992246Y-117433757D01*
X57926557Y-117231588D01*
X57830051Y-117042184D01*
X57830049Y-117042181D01*
X57830048Y-117042179D01*
X57705109Y-116870213D01*
X57554792Y-116719896D01*
X57554784Y-116719890D01*
X57390204Y-116600316D01*
X57347540Y-116544989D01*
X57341561Y-116475376D01*
X57374166Y-116413580D01*
X57390199Y-116399686D01*
X57554792Y-116280104D01*
X57705104Y-116129792D01*
X57705106Y-116129788D01*
X57705109Y-116129786D01*
X57830048Y-115957820D01*
X57830047Y-115957820D01*
X57830051Y-115957816D01*
X57926557Y-115768412D01*
X57992246Y-115566243D01*
X58025500Y-115356287D01*
X58025500Y-115143713D01*
X57992246Y-114933757D01*
X57926557Y-114731588D01*
X57830051Y-114542184D01*
X57830049Y-114542181D01*
X57830048Y-114542179D01*
X57705109Y-114370213D01*
X57554792Y-114219896D01*
X57554784Y-114219890D01*
X57390204Y-114100316D01*
X57347540Y-114044989D01*
X57341561Y-113975376D01*
X57374166Y-113913580D01*
X57390199Y-113899686D01*
X57554792Y-113780104D01*
X57705104Y-113629792D01*
X57712269Y-113619930D01*
X57729544Y-113596153D01*
X71449500Y-113596153D01*
X71449500Y-113753846D01*
X71480261Y-113908489D01*
X71480264Y-113908501D01*
X71540602Y-114054172D01*
X71540609Y-114054185D01*
X71628210Y-114185288D01*
X71628213Y-114185292D01*
X71739707Y-114296786D01*
X71739711Y-114296789D01*
X71870814Y-114384390D01*
X71870827Y-114384397D01*
X72016498Y-114444735D01*
X72016503Y-114444737D01*
X72171153Y-114475499D01*
X72171156Y-114475500D01*
X72171158Y-114475500D01*
X72328844Y-114475500D01*
X72328845Y-114475499D01*
X72483497Y-114444737D01*
X72629179Y-114384394D01*
X72760289Y-114296789D01*
X72871789Y-114185289D01*
X72959394Y-114054179D01*
X73019737Y-113908497D01*
X73050500Y-113753842D01*
X73050500Y-113596158D01*
X73050500Y-113596155D01*
X73050499Y-113596153D01*
X73023296Y-113459397D01*
X73019737Y-113441503D01*
X72990861Y-113371789D01*
X72959397Y-113295827D01*
X72959390Y-113295814D01*
X72871789Y-113164711D01*
X72871786Y-113164707D01*
X72760292Y-113053213D01*
X72760288Y-113053210D01*
X72629185Y-112965609D01*
X72629172Y-112965602D01*
X72483501Y-112905264D01*
X72483489Y-112905261D01*
X72328845Y-112874500D01*
X72328842Y-112874500D01*
X72171158Y-112874500D01*
X72171155Y-112874500D01*
X72016510Y-112905261D01*
X72016498Y-112905264D01*
X71870827Y-112965602D01*
X71870814Y-112965609D01*
X71739711Y-113053210D01*
X71739707Y-113053213D01*
X71628213Y-113164707D01*
X71628210Y-113164711D01*
X71540609Y-113295814D01*
X71540602Y-113295827D01*
X71480264Y-113441498D01*
X71480261Y-113441510D01*
X71449500Y-113596153D01*
X57729544Y-113596153D01*
X57786921Y-113517181D01*
X57828902Y-113459397D01*
X57830051Y-113457816D01*
X57926557Y-113268412D01*
X57992246Y-113066243D01*
X58025500Y-112856287D01*
X58025500Y-112643713D01*
X57992246Y-112433757D01*
X57926557Y-112231588D01*
X57830051Y-112042184D01*
X57830049Y-112042181D01*
X57830048Y-112042179D01*
X57705109Y-111870213D01*
X57566294Y-111731398D01*
X57532809Y-111670075D01*
X57537793Y-111600383D01*
X57579665Y-111544450D01*
X57588879Y-111538178D01*
X57594331Y-111534814D01*
X57594334Y-111534814D01*
X57743656Y-111442712D01*
X57865215Y-111321153D01*
X59299500Y-111321153D01*
X59299500Y-111478846D01*
X59330261Y-111633489D01*
X59330264Y-111633501D01*
X59390602Y-111779172D01*
X59390609Y-111779185D01*
X59478210Y-111910288D01*
X59478213Y-111910292D01*
X59589707Y-112021786D01*
X59589711Y-112021789D01*
X59720814Y-112109390D01*
X59720827Y-112109397D01*
X59862215Y-112167961D01*
X59916619Y-112211801D01*
X59929324Y-112235070D01*
X59969288Y-112331554D01*
X59969295Y-112331567D01*
X60056896Y-112462670D01*
X60056899Y-112462674D01*
X60168393Y-112574168D01*
X60168397Y-112574171D01*
X60299500Y-112661772D01*
X60299513Y-112661779D01*
X60441280Y-112720500D01*
X60445189Y-112722119D01*
X60599839Y-112752881D01*
X60599842Y-112752882D01*
X60599844Y-112752882D01*
X60757530Y-112752882D01*
X60757531Y-112752881D01*
X60912183Y-112722119D01*
X61057865Y-112661776D01*
X61188975Y-112574171D01*
X61300475Y-112462671D01*
X61388080Y-112331561D01*
X61448423Y-112185879D01*
X61479186Y-112031224D01*
X61479186Y-111873540D01*
X61479186Y-111873537D01*
X61479185Y-111873535D01*
X61475724Y-111856134D01*
X61448423Y-111718885D01*
X61429118Y-111672280D01*
X61421650Y-111602813D01*
X61452925Y-111540333D01*
X61513014Y-111504681D01*
X61582839Y-111507174D01*
X61591119Y-111510262D01*
X61615768Y-111520472D01*
X61736313Y-111544450D01*
X61770418Y-111551234D01*
X61770421Y-111551235D01*
X61770423Y-111551235D01*
X61928109Y-111551235D01*
X61928110Y-111551234D01*
X61947252Y-111547426D01*
X61988824Y-111539158D01*
X61988829Y-111539157D01*
X62053994Y-111526194D01*
X62082762Y-111520472D01*
X62228444Y-111460129D01*
X62359554Y-111372524D01*
X62471054Y-111261024D01*
X62558659Y-111129914D01*
X62619002Y-110984232D01*
X62649765Y-110829577D01*
X62649765Y-110671893D01*
X62649765Y-110671890D01*
X62649764Y-110671888D01*
X62640537Y-110625500D01*
X62619002Y-110517238D01*
X62603686Y-110480261D01*
X62558662Y-110371562D01*
X62558655Y-110371549D01*
X62471054Y-110240446D01*
X62471051Y-110240442D01*
X62436522Y-110205914D01*
X62403036Y-110144592D01*
X62402585Y-110094042D01*
X62415761Y-110027798D01*
X62425500Y-109978844D01*
X62425500Y-109871153D01*
X67224500Y-109871153D01*
X67224500Y-110028846D01*
X67255261Y-110183489D01*
X67255264Y-110183501D01*
X67315602Y-110329172D01*
X67315609Y-110329185D01*
X67403210Y-110460288D01*
X67403213Y-110460292D01*
X67514707Y-110571786D01*
X67514711Y-110571789D01*
X67645814Y-110659390D01*
X67645827Y-110659397D01*
X67790931Y-110719500D01*
X67791503Y-110719737D01*
X67927175Y-110746724D01*
X67946153Y-110750499D01*
X67946156Y-110750500D01*
X67946158Y-110750500D01*
X68103844Y-110750500D01*
X68103845Y-110750499D01*
X68258497Y-110719737D01*
X68404179Y-110659394D01*
X68535289Y-110571789D01*
X68646789Y-110460289D01*
X68734394Y-110329179D01*
X68794737Y-110183497D01*
X68825500Y-110028842D01*
X68825500Y-109871158D01*
X68825500Y-109871155D01*
X68825499Y-109871153D01*
X68810862Y-109797570D01*
X68794737Y-109716503D01*
X68775961Y-109671174D01*
X68734397Y-109570827D01*
X68734390Y-109570814D01*
X68646789Y-109439711D01*
X68646786Y-109439707D01*
X68535292Y-109328213D01*
X68535288Y-109328210D01*
X68482844Y-109293168D01*
X68404185Y-109240609D01*
X68404172Y-109240602D01*
X68296861Y-109196153D01*
X71599500Y-109196153D01*
X71599500Y-109353846D01*
X71630261Y-109508489D01*
X71630264Y-109508501D01*
X71690602Y-109654172D01*
X71690609Y-109654185D01*
X71778210Y-109785288D01*
X71778213Y-109785292D01*
X71889707Y-109896786D01*
X71889711Y-109896789D01*
X72020814Y-109984390D01*
X72020827Y-109984397D01*
X72128138Y-110028846D01*
X72166503Y-110044737D01*
X72282775Y-110067865D01*
X72321153Y-110075499D01*
X72321156Y-110075500D01*
X72321158Y-110075500D01*
X72478844Y-110075500D01*
X72478845Y-110075499D01*
X72633497Y-110044737D01*
X72779179Y-109984394D01*
X72910289Y-109896789D01*
X73021789Y-109785289D01*
X73047938Y-109746153D01*
X74349500Y-109746153D01*
X74349500Y-109903846D01*
X74380261Y-110058489D01*
X74380264Y-110058501D01*
X74440602Y-110204172D01*
X74440609Y-110204185D01*
X74528210Y-110335288D01*
X74528213Y-110335292D01*
X74639707Y-110446786D01*
X74639711Y-110446789D01*
X74770814Y-110534390D01*
X74770827Y-110534397D01*
X74861101Y-110571789D01*
X74916503Y-110594737D01*
X75025963Y-110616510D01*
X75071153Y-110625499D01*
X75071156Y-110625500D01*
X75071158Y-110625500D01*
X75228844Y-110625500D01*
X75228845Y-110625499D01*
X75383497Y-110594737D01*
X75514182Y-110540606D01*
X75529172Y-110534397D01*
X75529172Y-110534396D01*
X75529179Y-110534394D01*
X75660289Y-110446789D01*
X75771789Y-110335289D01*
X75859394Y-110204179D01*
X75919737Y-110058497D01*
X75950500Y-109903842D01*
X75950500Y-109746158D01*
X75950500Y-109746155D01*
X75950499Y-109746153D01*
X75935585Y-109671175D01*
X75919737Y-109591503D01*
X75911170Y-109570821D01*
X75859397Y-109445827D01*
X75859390Y-109445814D01*
X75771789Y-109314711D01*
X75771786Y-109314707D01*
X75660292Y-109203213D01*
X75660288Y-109203210D01*
X75529185Y-109115609D01*
X75529172Y-109115602D01*
X75383501Y-109055264D01*
X75383489Y-109055261D01*
X75228845Y-109024500D01*
X75228842Y-109024500D01*
X75071158Y-109024500D01*
X75071155Y-109024500D01*
X74916510Y-109055261D01*
X74916498Y-109055264D01*
X74770827Y-109115602D01*
X74770814Y-109115609D01*
X74639711Y-109203210D01*
X74639707Y-109203213D01*
X74528213Y-109314707D01*
X74528210Y-109314711D01*
X74440609Y-109445814D01*
X74440602Y-109445827D01*
X74380264Y-109591498D01*
X74380261Y-109591510D01*
X74349500Y-109746153D01*
X73047938Y-109746153D01*
X73070537Y-109712331D01*
X73098038Y-109671175D01*
X73098038Y-109671174D01*
X73109394Y-109654179D01*
X73169737Y-109508497D01*
X73200500Y-109353842D01*
X73200500Y-109196158D01*
X73200500Y-109196155D01*
X73200499Y-109196153D01*
X73187393Y-109130264D01*
X73169737Y-109041503D01*
X73160721Y-109019737D01*
X73109397Y-108895827D01*
X73109390Y-108895814D01*
X73021789Y-108764711D01*
X73021786Y-108764707D01*
X72910292Y-108653213D01*
X72910288Y-108653210D01*
X72783014Y-108568168D01*
X72783013Y-108568167D01*
X72779186Y-108565610D01*
X72779172Y-108565602D01*
X72633501Y-108505264D01*
X72633489Y-108505261D01*
X72478845Y-108474500D01*
X72478842Y-108474500D01*
X72321158Y-108474500D01*
X72321155Y-108474500D01*
X72166510Y-108505261D01*
X72166498Y-108505264D01*
X72020827Y-108565602D01*
X72020814Y-108565609D01*
X71889711Y-108653210D01*
X71889707Y-108653213D01*
X71778213Y-108764707D01*
X71778210Y-108764711D01*
X71690609Y-108895814D01*
X71690602Y-108895827D01*
X71630264Y-109041498D01*
X71630261Y-109041510D01*
X71599500Y-109196153D01*
X68296861Y-109196153D01*
X68258501Y-109180264D01*
X68258489Y-109180261D01*
X68103845Y-109149500D01*
X68103842Y-109149500D01*
X67946158Y-109149500D01*
X67946155Y-109149500D01*
X67791510Y-109180261D01*
X67791498Y-109180264D01*
X67645827Y-109240602D01*
X67645814Y-109240609D01*
X67514711Y-109328210D01*
X67514707Y-109328213D01*
X67403213Y-109439707D01*
X67403210Y-109439711D01*
X67315609Y-109570814D01*
X67315602Y-109570827D01*
X67255264Y-109716498D01*
X67255261Y-109716510D01*
X67224500Y-109871153D01*
X62425500Y-109871153D01*
X62425500Y-109821155D01*
X62425499Y-109821153D01*
X62412085Y-109753719D01*
X62394737Y-109666503D01*
X62367190Y-109599998D01*
X62334397Y-109520827D01*
X62334390Y-109520814D01*
X62246789Y-109389711D01*
X62246786Y-109389707D01*
X62135292Y-109278213D01*
X62135288Y-109278210D01*
X62004185Y-109190609D01*
X62004172Y-109190602D01*
X61858501Y-109130264D01*
X61858489Y-109130261D01*
X61703845Y-109099500D01*
X61703842Y-109099500D01*
X61546158Y-109099500D01*
X61546155Y-109099500D01*
X61391510Y-109130261D01*
X61391498Y-109130264D01*
X61245827Y-109190602D01*
X61245814Y-109190609D01*
X61114711Y-109278210D01*
X61114707Y-109278213D01*
X61003213Y-109389707D01*
X61003210Y-109389711D01*
X60915609Y-109520814D01*
X60915602Y-109520827D01*
X60855264Y-109666498D01*
X60855261Y-109666510D01*
X60824500Y-109821153D01*
X60824500Y-109978846D01*
X60855261Y-110133489D01*
X60855264Y-110133501D01*
X60915602Y-110279172D01*
X60915609Y-110279185D01*
X61003210Y-110410288D01*
X61003213Y-110410292D01*
X61037742Y-110444820D01*
X61071228Y-110506142D01*
X61071679Y-110556693D01*
X61048765Y-110671888D01*
X61048765Y-110829581D01*
X61079526Y-110984224D01*
X61079529Y-110984236D01*
X61098831Y-111030835D01*
X61101197Y-111052849D01*
X61108191Y-111073859D01*
X61104860Y-111086910D01*
X61106300Y-111100304D01*
X61096388Y-111120103D01*
X61090913Y-111141559D01*
X61081052Y-111150739D01*
X61075024Y-111162783D01*
X61055983Y-111174080D01*
X61039776Y-111189170D01*
X61026518Y-111191562D01*
X61014935Y-111198435D01*
X60992809Y-111197644D01*
X60971017Y-111201577D01*
X60949556Y-111196099D01*
X60945110Y-111195941D01*
X60936819Y-111192849D01*
X60916471Y-111184421D01*
X60862067Y-111140581D01*
X60849361Y-111117311D01*
X60809397Y-111020826D01*
X60809390Y-111020814D01*
X60721789Y-110889711D01*
X60721786Y-110889707D01*
X60610292Y-110778213D01*
X60610288Y-110778210D01*
X60479185Y-110690609D01*
X60479172Y-110690602D01*
X60333501Y-110630264D01*
X60333489Y-110630261D01*
X60178845Y-110599500D01*
X60178842Y-110599500D01*
X60021158Y-110599500D01*
X60021155Y-110599500D01*
X59866510Y-110630261D01*
X59866498Y-110630264D01*
X59720827Y-110690602D01*
X59720814Y-110690609D01*
X59589711Y-110778210D01*
X59589707Y-110778213D01*
X59478213Y-110889707D01*
X59478210Y-110889711D01*
X59390609Y-111020814D01*
X59390602Y-111020827D01*
X59330264Y-111166498D01*
X59330261Y-111166510D01*
X59299500Y-111321153D01*
X57865215Y-111321153D01*
X57867712Y-111318656D01*
X57959814Y-111169334D01*
X58014999Y-111002797D01*
X58025500Y-110900009D01*
X58025499Y-109599992D01*
X58025158Y-109596658D01*
X58014999Y-109497203D01*
X58014998Y-109497200D01*
X58000117Y-109452292D01*
X57959814Y-109330666D01*
X57867712Y-109181344D01*
X57743656Y-109057288D01*
X57594334Y-108965186D01*
X57427797Y-108910001D01*
X57427795Y-108910000D01*
X57325010Y-108899500D01*
X55774998Y-108899500D01*
X55774981Y-108899501D01*
X55672203Y-108910000D01*
X55672200Y-108910001D01*
X55505668Y-108965185D01*
X55505663Y-108965187D01*
X55356342Y-109057289D01*
X55232289Y-109181342D01*
X55140187Y-109330663D01*
X55140185Y-109330668D01*
X55132505Y-109353846D01*
X55085001Y-109497203D01*
X55085001Y-109497204D01*
X55085000Y-109497204D01*
X55074500Y-109599983D01*
X49359742Y-109599983D01*
X49359747Y-109596658D01*
X49361348Y-108471153D01*
X78824500Y-108471153D01*
X78824500Y-108628846D01*
X78855261Y-108783489D01*
X78855264Y-108783501D01*
X78915602Y-108929172D01*
X78915609Y-108929185D01*
X79003210Y-109060288D01*
X79003213Y-109060292D01*
X79114707Y-109171786D01*
X79114711Y-109171789D01*
X79245814Y-109259390D01*
X79245827Y-109259397D01*
X79379359Y-109314707D01*
X79391503Y-109319737D01*
X79546153Y-109350499D01*
X79546156Y-109350500D01*
X79546158Y-109350500D01*
X79703844Y-109350500D01*
X79703845Y-109350499D01*
X79858497Y-109319737D01*
X80004179Y-109259394D01*
X80135289Y-109171789D01*
X80246789Y-109060289D01*
X80333439Y-108930609D01*
X80387051Y-108885804D01*
X80436541Y-108875500D01*
X80578844Y-108875500D01*
X80578845Y-108875499D01*
X80733497Y-108844737D01*
X80879179Y-108784394D01*
X81010289Y-108696789D01*
X81121789Y-108585289D01*
X81209394Y-108454179D01*
X81269737Y-108308497D01*
X81300500Y-108153842D01*
X81300500Y-107996158D01*
X81300500Y-107996155D01*
X81300499Y-107996153D01*
X81286984Y-107928210D01*
X81269737Y-107841503D01*
X81269367Y-107840609D01*
X81209397Y-107695827D01*
X81209390Y-107695814D01*
X81121789Y-107564711D01*
X81121786Y-107564707D01*
X81010292Y-107453213D01*
X81010288Y-107453210D01*
X80879185Y-107365609D01*
X80879172Y-107365602D01*
X80733501Y-107305264D01*
X80733489Y-107305261D01*
X80578845Y-107274500D01*
X80578842Y-107274500D01*
X80421158Y-107274500D01*
X80421155Y-107274500D01*
X80266510Y-107305261D01*
X80266498Y-107305264D01*
X80120827Y-107365602D01*
X80120814Y-107365609D01*
X79989711Y-107453210D01*
X79989707Y-107453213D01*
X79878213Y-107564707D01*
X79878207Y-107564715D01*
X79791562Y-107694390D01*
X79737950Y-107739196D01*
X79688460Y-107749500D01*
X79546155Y-107749500D01*
X79391510Y-107780261D01*
X79391498Y-107780264D01*
X79245827Y-107840602D01*
X79245814Y-107840609D01*
X79114711Y-107928210D01*
X79114707Y-107928213D01*
X79003213Y-108039707D01*
X79003210Y-108039711D01*
X78915609Y-108170814D01*
X78915602Y-108170827D01*
X78855264Y-108316498D01*
X78855261Y-108316510D01*
X78824500Y-108471153D01*
X49361348Y-108471153D01*
X49363411Y-107020418D01*
X76525235Y-107020418D01*
X76525235Y-107178111D01*
X76555996Y-107332754D01*
X76555999Y-107332766D01*
X76616337Y-107478437D01*
X76616344Y-107478450D01*
X76703945Y-107609553D01*
X76703948Y-107609557D01*
X76815442Y-107721051D01*
X76815446Y-107721054D01*
X76946549Y-107808655D01*
X76946562Y-107808662D01*
X77086193Y-107866498D01*
X77092238Y-107869002D01*
X77246888Y-107899764D01*
X77246891Y-107899765D01*
X77246893Y-107899765D01*
X77404579Y-107899765D01*
X77404580Y-107899764D01*
X77559232Y-107869002D01*
X77704914Y-107808659D01*
X77836024Y-107721054D01*
X77947524Y-107609554D01*
X78035129Y-107478444D01*
X78095472Y-107332762D01*
X78126235Y-107178107D01*
X78126235Y-107020423D01*
X78126235Y-107020420D01*
X78126234Y-107020418D01*
X78124988Y-107014155D01*
X78095472Y-106865768D01*
X78083556Y-106837000D01*
X78035132Y-106720092D01*
X78035125Y-106720079D01*
X77947524Y-106588976D01*
X77947521Y-106588972D01*
X77836027Y-106477478D01*
X77836023Y-106477475D01*
X77704920Y-106389874D01*
X77704907Y-106389867D01*
X77559236Y-106329529D01*
X77559224Y-106329526D01*
X77404580Y-106298765D01*
X77404577Y-106298765D01*
X77246893Y-106298765D01*
X77246890Y-106298765D01*
X77092245Y-106329526D01*
X77092233Y-106329529D01*
X76946562Y-106389867D01*
X76946549Y-106389874D01*
X76815446Y-106477475D01*
X76815442Y-106477478D01*
X76703948Y-106588972D01*
X76703945Y-106588976D01*
X76616344Y-106720079D01*
X76616337Y-106720092D01*
X76555999Y-106865763D01*
X76555996Y-106865775D01*
X76525235Y-107020418D01*
X49363411Y-107020418D01*
X49363420Y-107014155D01*
X49367048Y-104462760D01*
X49377032Y-97441510D01*
X49382495Y-93599983D01*
X55074500Y-93599983D01*
X55074500Y-94900001D01*
X55074501Y-94900018D01*
X55085000Y-95002796D01*
X55085001Y-95002799D01*
X55111743Y-95083499D01*
X55140186Y-95169334D01*
X55218570Y-95296416D01*
X55232289Y-95318657D01*
X55356344Y-95442712D01*
X55511120Y-95538178D01*
X55557845Y-95590126D01*
X55569068Y-95659088D01*
X55541224Y-95723171D01*
X55533706Y-95731398D01*
X55394889Y-95870215D01*
X55269951Y-96042179D01*
X55173444Y-96231585D01*
X55107753Y-96433760D01*
X55074719Y-96642328D01*
X55074500Y-96643713D01*
X55074500Y-96856287D01*
X55078298Y-96880264D01*
X55105689Y-97053210D01*
X55107754Y-97066243D01*
X55141731Y-97170814D01*
X55173444Y-97268414D01*
X55269951Y-97457820D01*
X55394890Y-97629786D01*
X55545209Y-97780105D01*
X55545214Y-97780109D01*
X55709793Y-97899682D01*
X55752459Y-97955011D01*
X55758438Y-98024625D01*
X55725833Y-98086420D01*
X55709793Y-98100318D01*
X55545214Y-98219890D01*
X55545209Y-98219894D01*
X55394890Y-98370213D01*
X55269951Y-98542179D01*
X55173444Y-98731585D01*
X55173443Y-98731587D01*
X55173443Y-98731588D01*
X55160587Y-98771155D01*
X55107753Y-98933760D01*
X55074500Y-99143713D01*
X55074500Y-99356286D01*
X55106669Y-99559397D01*
X55107754Y-99566243D01*
X55146806Y-99686433D01*
X55173444Y-99768414D01*
X55269951Y-99957820D01*
X55394890Y-100129786D01*
X55545209Y-100280105D01*
X55545214Y-100280109D01*
X55709793Y-100399682D01*
X55752459Y-100455011D01*
X55758438Y-100524625D01*
X55725833Y-100586420D01*
X55709793Y-100600318D01*
X55545214Y-100719890D01*
X55545209Y-100719894D01*
X55394890Y-100870213D01*
X55269951Y-101042179D01*
X55173444Y-101231585D01*
X55107753Y-101433760D01*
X55089862Y-101546722D01*
X55074500Y-101643713D01*
X55074500Y-101856287D01*
X55077385Y-101874500D01*
X55105689Y-102053210D01*
X55107754Y-102066243D01*
X55149058Y-102193364D01*
X55173444Y-102268414D01*
X55269951Y-102457820D01*
X55394890Y-102629786D01*
X55545209Y-102780105D01*
X55545214Y-102780109D01*
X55710218Y-102899991D01*
X55752884Y-102955320D01*
X55758863Y-103024934D01*
X55726258Y-103086729D01*
X55710218Y-103100627D01*
X55545540Y-103220272D01*
X55545535Y-103220276D01*
X55395276Y-103370535D01*
X55395272Y-103370540D01*
X55270379Y-103542442D01*
X55173904Y-103731782D01*
X55108242Y-103933870D01*
X55108242Y-103933873D01*
X55097769Y-104000000D01*
X56145854Y-104000000D01*
X56107370Y-104066657D01*
X56075000Y-104187465D01*
X56075000Y-104312535D01*
X56107370Y-104433343D01*
X56145854Y-104500000D01*
X55097769Y-104500000D01*
X55108242Y-104566126D01*
X55108242Y-104566129D01*
X55173904Y-104768217D01*
X55270379Y-104957557D01*
X55395272Y-105129459D01*
X55395276Y-105129464D01*
X55545535Y-105279723D01*
X55545540Y-105279727D01*
X55717442Y-105404620D01*
X55906782Y-105501095D01*
X56108872Y-105566757D01*
X56300000Y-105597029D01*
X56300000Y-104654145D01*
X56366657Y-104692630D01*
X56487465Y-104725000D01*
X56612535Y-104725000D01*
X56733343Y-104692630D01*
X56800000Y-104654145D01*
X56800000Y-105597028D01*
X56991127Y-105566757D01*
X57193217Y-105501095D01*
X57301045Y-105446153D01*
X68449500Y-105446153D01*
X68449500Y-105603846D01*
X68480261Y-105758489D01*
X68480264Y-105758501D01*
X68540602Y-105904172D01*
X68540609Y-105904185D01*
X68628210Y-106035288D01*
X68628213Y-106035292D01*
X68739707Y-106146786D01*
X68739711Y-106146789D01*
X68870814Y-106234390D01*
X68870827Y-106234397D01*
X69016498Y-106294735D01*
X69016503Y-106294737D01*
X69125963Y-106316510D01*
X69171153Y-106325499D01*
X69171156Y-106325500D01*
X69171158Y-106325500D01*
X69328844Y-106325500D01*
X69328845Y-106325499D01*
X69483497Y-106294737D01*
X69629179Y-106234394D01*
X69760289Y-106146789D01*
X69871789Y-106035289D01*
X69959394Y-105904179D01*
X70019737Y-105758497D01*
X70050500Y-105603842D01*
X70050500Y-105471153D01*
X70324500Y-105471153D01*
X70324500Y-105628846D01*
X70355261Y-105783489D01*
X70355264Y-105783501D01*
X70415602Y-105929172D01*
X70415609Y-105929185D01*
X70503210Y-106060288D01*
X70503213Y-106060292D01*
X70614707Y-106171786D01*
X70614711Y-106171789D01*
X70745814Y-106259390D01*
X70745827Y-106259397D01*
X70883683Y-106316498D01*
X70891503Y-106319737D01*
X71046153Y-106350499D01*
X71046156Y-106350500D01*
X71046158Y-106350500D01*
X71203844Y-106350500D01*
X71203845Y-106350499D01*
X71358497Y-106319737D01*
X71504179Y-106259394D01*
X71635289Y-106171789D01*
X71746789Y-106060289D01*
X71834394Y-105929179D01*
X71894737Y-105783497D01*
X71905799Y-105727882D01*
X71911418Y-105699635D01*
X84999500Y-105699635D01*
X84999500Y-107700370D01*
X84999501Y-107700376D01*
X85005908Y-107759983D01*
X85056202Y-107894828D01*
X85056206Y-107894835D01*
X85142452Y-108010044D01*
X85142455Y-108010047D01*
X85257664Y-108096293D01*
X85257667Y-108096295D01*
X85257668Y-108096295D01*
X85257669Y-108096296D01*
X85286025Y-108106872D01*
X85341958Y-108148742D01*
X85366376Y-108214206D01*
X85351525Y-108282479D01*
X85343010Y-108295939D01*
X85210213Y-108478719D01*
X85106417Y-108682429D01*
X85035765Y-108899871D01*
X85021491Y-108990000D01*
X86009252Y-108990000D01*
X85987482Y-109027708D01*
X85950000Y-109167591D01*
X85950000Y-109312409D01*
X85987482Y-109452292D01*
X86009252Y-109490000D01*
X85021491Y-109490000D01*
X85035765Y-109580128D01*
X85106417Y-109797570D01*
X85210211Y-110001276D01*
X85344597Y-110186242D01*
X85506257Y-110347902D01*
X85506263Y-110347907D01*
X85590863Y-110409372D01*
X85633529Y-110464701D01*
X85639508Y-110534315D01*
X85606903Y-110596110D01*
X85590864Y-110610007D01*
X85505940Y-110671709D01*
X85505931Y-110671716D01*
X85344216Y-110833431D01*
X85344216Y-110833432D01*
X85344214Y-110833434D01*
X85286480Y-110912896D01*
X85209783Y-111018461D01*
X85105950Y-111222244D01*
X85035278Y-111439750D01*
X85035278Y-111439753D01*
X85009288Y-111603846D01*
X84999500Y-111665646D01*
X84999500Y-111894354D01*
X85013107Y-111980263D01*
X85035278Y-112120246D01*
X85035278Y-112120249D01*
X85105950Y-112337755D01*
X85197024Y-112516498D01*
X85209783Y-112541538D01*
X85344214Y-112726566D01*
X85505934Y-112888286D01*
X85690962Y-113022717D01*
X85776379Y-113066239D01*
X85894744Y-113126549D01*
X86112251Y-113197221D01*
X86112252Y-113197221D01*
X86112255Y-113197222D01*
X86338146Y-113233000D01*
X86338147Y-113233000D01*
X86661853Y-113233000D01*
X86661854Y-113233000D01*
X86887745Y-113197222D01*
X86887748Y-113197221D01*
X86887749Y-113197221D01*
X87105255Y-113126549D01*
X87105255Y-113126548D01*
X87105258Y-113126548D01*
X87309038Y-113022717D01*
X87494066Y-112888286D01*
X87655786Y-112726566D01*
X87696046Y-112671153D01*
X89699500Y-112671153D01*
X89699500Y-112828846D01*
X89730261Y-112983489D01*
X89730264Y-112983501D01*
X89790602Y-113129172D01*
X89790609Y-113129185D01*
X89878210Y-113260288D01*
X89878213Y-113260292D01*
X89989707Y-113371786D01*
X89989711Y-113371789D01*
X90120814Y-113459390D01*
X90120827Y-113459397D01*
X90260332Y-113517181D01*
X90266503Y-113519737D01*
X90421153Y-113550499D01*
X90421156Y-113550500D01*
X90421158Y-113550500D01*
X90578844Y-113550500D01*
X90578845Y-113550499D01*
X90733497Y-113519737D01*
X90879179Y-113459394D01*
X91010289Y-113371789D01*
X91121789Y-113260289D01*
X91209394Y-113129179D01*
X91269737Y-112983497D01*
X91300500Y-112828842D01*
X91300500Y-112671158D01*
X91298634Y-112661779D01*
X91296716Y-112652135D01*
X93649500Y-112652135D01*
X93649500Y-114447870D01*
X93649501Y-114447876D01*
X93655908Y-114507483D01*
X93706202Y-114642328D01*
X93706206Y-114642335D01*
X93792452Y-114757544D01*
X93792455Y-114757547D01*
X93907664Y-114843793D01*
X93907671Y-114843797D01*
X94042517Y-114894091D01*
X94042516Y-114894091D01*
X94049444Y-114894835D01*
X94102127Y-114900500D01*
X95897872Y-114900499D01*
X95957483Y-114894091D01*
X96092331Y-114843796D01*
X96207546Y-114757546D01*
X96293796Y-114642331D01*
X96342810Y-114510916D01*
X96384681Y-114454984D01*
X96450145Y-114430566D01*
X96518418Y-114445417D01*
X96546673Y-114466569D01*
X96660213Y-114580109D01*
X96832179Y-114705048D01*
X96832181Y-114705049D01*
X96832184Y-114705051D01*
X97021588Y-114801557D01*
X97223757Y-114867246D01*
X97433713Y-114900500D01*
X97433714Y-114900500D01*
X97646286Y-114900500D01*
X97646287Y-114900500D01*
X97856243Y-114867246D01*
X98058412Y-114801557D01*
X98247816Y-114705051D01*
X98334138Y-114642335D01*
X98419786Y-114580109D01*
X98419788Y-114580106D01*
X98419792Y-114580104D01*
X98570104Y-114429792D01*
X98570106Y-114429788D01*
X98570109Y-114429786D01*
X98695048Y-114257820D01*
X98695047Y-114257820D01*
X98695051Y-114257816D01*
X98791557Y-114068412D01*
X98857246Y-113866243D01*
X98890500Y-113656287D01*
X98890500Y-113443713D01*
X98857246Y-113233757D01*
X98791557Y-113031588D01*
X98695051Y-112842184D01*
X98695049Y-112842181D01*
X98695048Y-112842179D01*
X98570109Y-112670213D01*
X98419786Y-112519890D01*
X98247820Y-112394951D01*
X98058414Y-112298444D01*
X98058413Y-112298443D01*
X98058412Y-112298443D01*
X97856243Y-112232754D01*
X97856241Y-112232753D01*
X97856240Y-112232753D01*
X97694957Y-112207208D01*
X97646287Y-112199500D01*
X97433713Y-112199500D01*
X97398378Y-112205096D01*
X97326037Y-112216554D01*
X97256743Y-112207599D01*
X97203291Y-112162603D01*
X97182652Y-112095851D01*
X97201377Y-112028538D01*
X97203537Y-112025190D01*
X97284390Y-111904185D01*
X97284390Y-111904184D01*
X97284394Y-111904179D01*
X97344737Y-111758497D01*
X97375500Y-111603842D01*
X97375500Y-111446158D01*
X97375500Y-111446155D01*
X97375499Y-111446153D01*
X97360853Y-111372524D01*
X97344737Y-111291503D01*
X97327533Y-111249969D01*
X97284397Y-111145827D01*
X97284390Y-111145814D01*
X97196789Y-111014711D01*
X97196786Y-111014707D01*
X97085292Y-110903213D01*
X97085288Y-110903210D01*
X96954185Y-110815609D01*
X96954175Y-110815604D01*
X96912059Y-110798159D01*
X96857656Y-110754318D01*
X96837895Y-110707789D01*
X96830754Y-110671888D01*
X96819737Y-110616503D01*
X96759394Y-110470821D01*
X96759392Y-110470818D01*
X96759390Y-110470814D01*
X96735051Y-110434388D01*
X97736265Y-110434388D01*
X97736265Y-110592081D01*
X97767026Y-110746724D01*
X97767029Y-110746736D01*
X97827367Y-110892407D01*
X97827374Y-110892420D01*
X97914975Y-111023523D01*
X97914978Y-111023527D01*
X98026472Y-111135021D01*
X98026476Y-111135024D01*
X98157579Y-111222625D01*
X98157592Y-111222632D01*
X98303263Y-111282970D01*
X98303268Y-111282972D01*
X98346131Y-111291498D01*
X98427520Y-111307688D01*
X98489431Y-111340073D01*
X98517890Y-111381853D01*
X98552565Y-111465568D01*
X98552572Y-111465581D01*
X98640173Y-111596684D01*
X98640176Y-111596688D01*
X98751670Y-111708182D01*
X98751674Y-111708185D01*
X98882777Y-111795786D01*
X98882790Y-111795793D01*
X99028461Y-111856131D01*
X99028466Y-111856133D01*
X99183116Y-111886895D01*
X99183119Y-111886896D01*
X99183121Y-111886896D01*
X99340807Y-111886896D01*
X99340808Y-111886895D01*
X99495460Y-111856133D01*
X99551083Y-111833093D01*
X99646771Y-111793459D01*
X99647826Y-111796007D01*
X99704524Y-111784103D01*
X99763676Y-111804620D01*
X99770816Y-111809391D01*
X99770827Y-111809397D01*
X99883662Y-111856134D01*
X99916503Y-111869737D01*
X100071153Y-111900499D01*
X100071156Y-111900500D01*
X100071158Y-111900500D01*
X100228844Y-111900500D01*
X100228845Y-111900499D01*
X100383497Y-111869737D01*
X100529179Y-111809394D01*
X100660289Y-111721789D01*
X100771789Y-111610289D01*
X100859394Y-111479179D01*
X100867284Y-111460132D01*
X100880522Y-111428170D01*
X100919737Y-111333497D01*
X100950500Y-111178842D01*
X100950500Y-111171153D01*
X101249500Y-111171153D01*
X101249500Y-111328846D01*
X101280261Y-111483489D01*
X101280264Y-111483501D01*
X101340602Y-111629172D01*
X101340609Y-111629185D01*
X101428210Y-111760288D01*
X101428213Y-111760292D01*
X101539707Y-111871786D01*
X101539711Y-111871789D01*
X101670814Y-111959390D01*
X101670827Y-111959397D01*
X101797435Y-112011839D01*
X101816503Y-112019737D01*
X101929326Y-112042179D01*
X101971153Y-112050499D01*
X101971156Y-112050500D01*
X101971158Y-112050500D01*
X102128844Y-112050500D01*
X102128845Y-112050499D01*
X102283497Y-112019737D01*
X102429179Y-111959394D01*
X102560289Y-111871789D01*
X102613535Y-111818543D01*
X103719499Y-111818543D01*
X103757947Y-112011829D01*
X103757950Y-112011839D01*
X103833364Y-112193907D01*
X103833371Y-112193920D01*
X103942860Y-112357781D01*
X103942863Y-112357785D01*
X104082214Y-112497136D01*
X104082218Y-112497139D01*
X104246079Y-112606628D01*
X104246092Y-112606635D01*
X104428160Y-112682049D01*
X104428165Y-112682051D01*
X104428169Y-112682051D01*
X104428170Y-112682052D01*
X104621456Y-112720500D01*
X104621459Y-112720500D01*
X105918543Y-112720500D01*
X106048582Y-112694632D01*
X106111835Y-112682051D01*
X106293914Y-112606632D01*
X106457782Y-112497139D01*
X106597139Y-112357782D01*
X106706632Y-112193914D01*
X106709964Y-112185871D01*
X106756597Y-112073287D01*
X106782051Y-112011835D01*
X106794632Y-111948582D01*
X106820500Y-111818543D01*
X108149499Y-111818543D01*
X108187947Y-112011829D01*
X108187950Y-112011839D01*
X108263364Y-112193907D01*
X108263371Y-112193920D01*
X108372860Y-112357781D01*
X108372863Y-112357785D01*
X108512214Y-112497136D01*
X108512218Y-112497139D01*
X108676079Y-112606628D01*
X108676092Y-112606635D01*
X108858160Y-112682049D01*
X108858165Y-112682051D01*
X108858169Y-112682051D01*
X108858170Y-112682052D01*
X109051456Y-112720500D01*
X109051459Y-112720500D01*
X109848543Y-112720500D01*
X109978582Y-112694632D01*
X110041835Y-112682051D01*
X110223914Y-112606632D01*
X110387782Y-112497139D01*
X110527139Y-112357782D01*
X110636632Y-112193914D01*
X110639964Y-112185871D01*
X110686597Y-112073287D01*
X110712051Y-112011835D01*
X110724632Y-111948582D01*
X110750500Y-111818543D01*
X110750500Y-111621456D01*
X110712052Y-111428170D01*
X110712051Y-111428169D01*
X110712051Y-111428165D01*
X110689003Y-111372521D01*
X110636635Y-111246092D01*
X110636628Y-111246079D01*
X110527139Y-111082218D01*
X110527136Y-111082214D01*
X110387785Y-110942863D01*
X110387781Y-110942860D01*
X110223920Y-110833371D01*
X110223907Y-110833364D01*
X110041839Y-110757950D01*
X110041829Y-110757947D01*
X109848543Y-110719500D01*
X109848541Y-110719500D01*
X109051459Y-110719500D01*
X109051457Y-110719500D01*
X108858170Y-110757947D01*
X108858160Y-110757950D01*
X108676092Y-110833364D01*
X108676079Y-110833371D01*
X108512218Y-110942860D01*
X108512214Y-110942863D01*
X108372863Y-111082214D01*
X108372860Y-111082218D01*
X108263371Y-111246079D01*
X108263364Y-111246092D01*
X108187950Y-111428160D01*
X108187947Y-111428170D01*
X108149500Y-111621456D01*
X108149500Y-111621459D01*
X108149500Y-111818541D01*
X108149500Y-111818543D01*
X108149499Y-111818543D01*
X106820500Y-111818543D01*
X106820500Y-111621456D01*
X106782052Y-111428170D01*
X106782051Y-111428169D01*
X106782051Y-111428165D01*
X106759003Y-111372521D01*
X106706635Y-111246092D01*
X106706628Y-111246079D01*
X106597139Y-111082218D01*
X106597136Y-111082214D01*
X106457785Y-110942863D01*
X106457781Y-110942860D01*
X106288849Y-110829983D01*
X106289818Y-110828532D01*
X106245884Y-110785369D01*
X106230429Y-110717230D01*
X106254265Y-110651552D01*
X106255815Y-110649488D01*
X106260505Y-110643374D01*
X106260515Y-110643365D01*
X106336281Y-110512135D01*
X106375500Y-110365766D01*
X106375500Y-110214234D01*
X106336281Y-110067865D01*
X106260515Y-109936635D01*
X106153365Y-109829485D01*
X106076814Y-109785288D01*
X106022136Y-109753719D01*
X105948950Y-109734109D01*
X105875766Y-109714500D01*
X105724234Y-109714500D01*
X105577863Y-109753719D01*
X105446635Y-109829485D01*
X105446632Y-109829487D01*
X105339487Y-109936632D01*
X105339485Y-109936635D01*
X105263719Y-110067863D01*
X105243160Y-110144592D01*
X105224500Y-110214234D01*
X105224500Y-110365766D01*
X105262113Y-110506142D01*
X105263720Y-110512137D01*
X105263721Y-110512140D01*
X105276053Y-110533499D01*
X105292527Y-110601398D01*
X105269675Y-110667426D01*
X105214755Y-110710617D01*
X105168667Y-110719500D01*
X104621457Y-110719500D01*
X104428170Y-110757947D01*
X104428160Y-110757950D01*
X104246092Y-110833364D01*
X104246079Y-110833371D01*
X104082218Y-110942860D01*
X104082214Y-110942863D01*
X103942863Y-111082214D01*
X103942860Y-111082218D01*
X103833371Y-111246079D01*
X103833364Y-111246092D01*
X103757950Y-111428160D01*
X103757947Y-111428170D01*
X103719500Y-111621456D01*
X103719500Y-111621459D01*
X103719500Y-111818541D01*
X103719500Y-111818543D01*
X103719499Y-111818543D01*
X102613535Y-111818543D01*
X102671789Y-111760289D01*
X102759394Y-111629179D01*
X102772854Y-111596684D01*
X102784771Y-111567914D01*
X102784771Y-111567912D01*
X102788300Y-111559394D01*
X102819737Y-111483497D01*
X102850500Y-111328842D01*
X102850500Y-111171158D01*
X102850500Y-111171155D01*
X102850499Y-111171153D01*
X102833061Y-111083489D01*
X102819737Y-111016503D01*
X102814060Y-111002797D01*
X102759397Y-110870827D01*
X102759390Y-110870814D01*
X102671789Y-110739711D01*
X102671786Y-110739707D01*
X102560292Y-110628213D01*
X102560288Y-110628210D01*
X102429185Y-110540609D01*
X102429172Y-110540602D01*
X102283501Y-110480264D01*
X102283489Y-110480261D01*
X102128845Y-110449500D01*
X102128842Y-110449500D01*
X101971158Y-110449500D01*
X101971155Y-110449500D01*
X101816510Y-110480261D01*
X101816498Y-110480264D01*
X101670827Y-110540602D01*
X101670814Y-110540609D01*
X101539711Y-110628210D01*
X101539707Y-110628213D01*
X101428213Y-110739707D01*
X101428210Y-110739711D01*
X101340609Y-110870814D01*
X101340602Y-110870827D01*
X101280264Y-111016498D01*
X101280261Y-111016510D01*
X101249500Y-111171153D01*
X100950500Y-111171153D01*
X100950500Y-111021158D01*
X100950500Y-111021155D01*
X100950499Y-111021153D01*
X100946848Y-111002797D01*
X100919737Y-110866503D01*
X100919735Y-110866498D01*
X100859397Y-110720827D01*
X100859390Y-110720814D01*
X100771789Y-110589711D01*
X100771786Y-110589707D01*
X100660292Y-110478213D01*
X100660288Y-110478210D01*
X100529185Y-110390609D01*
X100529172Y-110390602D01*
X100383501Y-110330264D01*
X100383489Y-110330261D01*
X100228845Y-110299500D01*
X100228842Y-110299500D01*
X100071158Y-110299500D01*
X100071155Y-110299500D01*
X99916510Y-110330261D01*
X99916498Y-110330264D01*
X99765193Y-110392937D01*
X99764162Y-110390449D01*
X99707083Y-110402263D01*
X99648292Y-110381779D01*
X99641140Y-110377000D01*
X99495464Y-110316660D01*
X99495454Y-110316657D01*
X99371206Y-110291942D01*
X99309295Y-110259557D01*
X99280838Y-110217781D01*
X99246159Y-110134056D01*
X99246157Y-110134053D01*
X99246155Y-110134049D01*
X99158554Y-110002946D01*
X99158551Y-110002942D01*
X99047057Y-109891448D01*
X99047053Y-109891445D01*
X98915950Y-109803844D01*
X98915937Y-109803837D01*
X98770266Y-109743499D01*
X98770254Y-109743496D01*
X98615610Y-109712735D01*
X98615607Y-109712735D01*
X98457923Y-109712735D01*
X98457920Y-109712735D01*
X98303275Y-109743496D01*
X98303263Y-109743499D01*
X98157592Y-109803837D01*
X98157579Y-109803844D01*
X98026476Y-109891445D01*
X98026472Y-109891448D01*
X97914978Y-110002942D01*
X97914975Y-110002946D01*
X97827374Y-110134049D01*
X97827367Y-110134062D01*
X97767029Y-110279733D01*
X97767026Y-110279745D01*
X97736265Y-110434388D01*
X96735051Y-110434388D01*
X96671789Y-110339711D01*
X96671786Y-110339707D01*
X96560292Y-110228213D01*
X96560288Y-110228210D01*
X96429185Y-110140609D01*
X96429172Y-110140602D01*
X96283501Y-110080264D01*
X96283489Y-110080261D01*
X96128845Y-110049500D01*
X96128842Y-110049500D01*
X95971158Y-110049500D01*
X95971155Y-110049500D01*
X95816510Y-110080261D01*
X95816498Y-110080264D01*
X95670827Y-110140602D01*
X95670814Y-110140609D01*
X95539711Y-110228210D01*
X95539707Y-110228213D01*
X95428213Y-110339707D01*
X95428210Y-110339711D01*
X95340609Y-110470814D01*
X95340602Y-110470827D01*
X95280264Y-110616498D01*
X95280261Y-110616510D01*
X95249500Y-110771153D01*
X95249500Y-110928846D01*
X95280261Y-111083489D01*
X95280264Y-111083501D01*
X95340602Y-111229172D01*
X95340609Y-111229185D01*
X95428210Y-111360288D01*
X95428213Y-111360292D01*
X95539710Y-111471789D01*
X95642294Y-111540333D01*
X95670821Y-111559394D01*
X95712940Y-111576839D01*
X95767342Y-111620678D01*
X95787104Y-111667209D01*
X95805261Y-111758489D01*
X95805264Y-111758501D01*
X95865602Y-111904172D01*
X95865609Y-111904185D01*
X95934047Y-112006609D01*
X95954925Y-112073287D01*
X95936440Y-112140667D01*
X95884462Y-112187357D01*
X95830945Y-112199500D01*
X94102129Y-112199500D01*
X94102123Y-112199501D01*
X94042516Y-112205908D01*
X93907671Y-112256202D01*
X93907664Y-112256206D01*
X93792455Y-112342452D01*
X93792452Y-112342455D01*
X93706206Y-112457664D01*
X93706202Y-112457671D01*
X93655908Y-112592517D01*
X93649501Y-112652116D01*
X93649500Y-112652135D01*
X91296716Y-112652135D01*
X91270412Y-112519896D01*
X91269737Y-112516503D01*
X91261715Y-112497136D01*
X91209397Y-112370827D01*
X91209390Y-112370814D01*
X91121789Y-112239711D01*
X91121786Y-112239707D01*
X91010292Y-112128213D01*
X91010288Y-112128210D01*
X90879185Y-112040609D01*
X90879172Y-112040602D01*
X90733501Y-111980264D01*
X90733489Y-111980261D01*
X90578845Y-111949500D01*
X90578842Y-111949500D01*
X90421158Y-111949500D01*
X90421155Y-111949500D01*
X90266510Y-111980261D01*
X90266498Y-111980264D01*
X90120827Y-112040602D01*
X90120814Y-112040609D01*
X89989711Y-112128210D01*
X89989707Y-112128213D01*
X89878213Y-112239707D01*
X89878210Y-112239711D01*
X89790609Y-112370814D01*
X89790602Y-112370827D01*
X89730264Y-112516498D01*
X89730261Y-112516510D01*
X89699500Y-112671153D01*
X87696046Y-112671153D01*
X87790217Y-112541538D01*
X87894048Y-112337758D01*
X87920546Y-112256206D01*
X87964721Y-112120249D01*
X87964721Y-112120248D01*
X87964722Y-112120245D01*
X88000500Y-111894354D01*
X88000500Y-111665646D01*
X87964722Y-111439755D01*
X87964721Y-111439751D01*
X87964721Y-111439750D01*
X87894049Y-111222244D01*
X87880647Y-111195941D01*
X87790217Y-111018462D01*
X87655786Y-110833434D01*
X87494066Y-110671714D01*
X87409134Y-110610007D01*
X87366470Y-110554678D01*
X87360491Y-110485064D01*
X87393097Y-110423269D01*
X87409137Y-110409371D01*
X87493739Y-110347905D01*
X87655402Y-110186242D01*
X87789788Y-110001276D01*
X87893582Y-109797570D01*
X87964234Y-109580128D01*
X87978509Y-109490000D01*
X86990748Y-109490000D01*
X87012518Y-109452292D01*
X87050000Y-109312409D01*
X87050000Y-109167591D01*
X87012518Y-109027708D01*
X86990748Y-108990000D01*
X87978509Y-108990000D01*
X87964234Y-108899871D01*
X87893582Y-108682429D01*
X87789788Y-108478723D01*
X87656988Y-108295940D01*
X87633508Y-108230133D01*
X87647223Y-108171153D01*
X90699500Y-108171153D01*
X90699500Y-108328846D01*
X90730261Y-108483489D01*
X90730264Y-108483501D01*
X90790602Y-108629172D01*
X90790609Y-108629185D01*
X90878210Y-108760288D01*
X90878213Y-108760292D01*
X90989707Y-108871786D01*
X90989711Y-108871789D01*
X91120814Y-108959390D01*
X91120827Y-108959397D01*
X91266498Y-109019735D01*
X91266503Y-109019737D01*
X91375963Y-109041510D01*
X91421153Y-109050499D01*
X91421156Y-109050500D01*
X91421158Y-109050500D01*
X91578844Y-109050500D01*
X91578845Y-109050499D01*
X91733497Y-109019737D01*
X91879179Y-108959394D01*
X92010289Y-108871789D01*
X92121789Y-108760289D01*
X92209394Y-108629179D01*
X92269737Y-108483497D01*
X92300500Y-108328842D01*
X92300500Y-108171158D01*
X92300500Y-108171155D01*
X92300499Y-108171153D01*
X92295613Y-108146591D01*
X92269737Y-108016503D01*
X92267063Y-108010047D01*
X92209397Y-107870827D01*
X92209390Y-107870814D01*
X92121789Y-107739711D01*
X92121786Y-107739707D01*
X92010292Y-107628213D01*
X92010288Y-107628210D01*
X91906190Y-107558653D01*
X92912000Y-107558653D01*
X92912000Y-107716346D01*
X92942761Y-107870989D01*
X92942764Y-107871001D01*
X93003102Y-108016672D01*
X93003109Y-108016685D01*
X93090710Y-108147788D01*
X93090713Y-108147792D01*
X93202207Y-108259286D01*
X93202211Y-108259289D01*
X93333314Y-108346890D01*
X93333327Y-108346897D01*
X93478998Y-108407235D01*
X93479003Y-108407237D01*
X93633653Y-108437999D01*
X93633656Y-108438000D01*
X93633658Y-108438000D01*
X93791344Y-108438000D01*
X93791345Y-108437999D01*
X93945997Y-108407237D01*
X94091679Y-108346894D01*
X94222789Y-108259289D01*
X94334289Y-108147789D01*
X94421894Y-108016679D01*
X94424642Y-108010046D01*
X94435567Y-107983666D01*
X94482237Y-107870997D01*
X94513000Y-107716342D01*
X94513000Y-107558658D01*
X94513000Y-107558655D01*
X94512999Y-107558653D01*
X94497317Y-107479815D01*
X94482237Y-107404003D01*
X94452730Y-107332766D01*
X94421897Y-107258327D01*
X94421890Y-107258314D01*
X94334289Y-107127211D01*
X94334286Y-107127207D01*
X94222792Y-107015713D01*
X94222788Y-107015710D01*
X94091685Y-106928109D01*
X94091672Y-106928102D01*
X93946001Y-106867764D01*
X93945989Y-106867761D01*
X93791345Y-106837000D01*
X93791342Y-106837000D01*
X93633658Y-106837000D01*
X93633655Y-106837000D01*
X93479010Y-106867761D01*
X93478998Y-106867764D01*
X93333327Y-106928102D01*
X93333314Y-106928109D01*
X93202211Y-107015710D01*
X93202207Y-107015713D01*
X93090713Y-107127207D01*
X93090710Y-107127211D01*
X93003109Y-107258314D01*
X93003102Y-107258327D01*
X92942764Y-107403998D01*
X92942761Y-107404010D01*
X92912000Y-107558653D01*
X91906190Y-107558653D01*
X91879185Y-107540609D01*
X91879172Y-107540602D01*
X91733501Y-107480264D01*
X91733489Y-107480261D01*
X91578845Y-107449500D01*
X91578842Y-107449500D01*
X91421158Y-107449500D01*
X91421155Y-107449500D01*
X91266510Y-107480261D01*
X91266498Y-107480264D01*
X91120827Y-107540602D01*
X91120814Y-107540609D01*
X90989711Y-107628210D01*
X90989707Y-107628213D01*
X90878213Y-107739707D01*
X90878210Y-107739711D01*
X90790609Y-107870814D01*
X90790602Y-107870827D01*
X90730264Y-108016498D01*
X90730261Y-108016510D01*
X90699500Y-108171153D01*
X87647223Y-108171153D01*
X87649333Y-108162079D01*
X87695137Y-108115765D01*
X87704177Y-108110526D01*
X87742331Y-108096296D01*
X87857546Y-108010046D01*
X87943796Y-107894831D01*
X87994091Y-107759983D01*
X88000500Y-107700373D01*
X88000499Y-106329571D01*
X100406609Y-106329571D01*
X100406609Y-106487264D01*
X100437370Y-106641907D01*
X100437373Y-106641919D01*
X100497711Y-106787590D01*
X100497718Y-106787603D01*
X100585319Y-106918706D01*
X100585322Y-106918710D01*
X100696816Y-107030204D01*
X100696820Y-107030207D01*
X100827923Y-107117808D01*
X100827936Y-107117815D01*
X100958243Y-107171789D01*
X100973612Y-107178155D01*
X101128262Y-107208917D01*
X101128265Y-107208918D01*
X101128267Y-107208918D01*
X101285953Y-107208918D01*
X101364834Y-107193227D01*
X101396139Y-107187000D01*
X101465729Y-107193227D01*
X101520907Y-107236089D01*
X101544152Y-107301979D01*
X101528085Y-107369976D01*
X101489222Y-107411719D01*
X101389707Y-107478213D01*
X101278213Y-107589707D01*
X101278210Y-107589711D01*
X101190609Y-107720814D01*
X101190602Y-107720827D01*
X101130264Y-107866498D01*
X101130261Y-107866510D01*
X101099500Y-108021153D01*
X101099500Y-108178846D01*
X101130261Y-108333489D01*
X101130264Y-108333501D01*
X101190602Y-108479172D01*
X101190609Y-108479185D01*
X101278210Y-108610288D01*
X101278213Y-108610292D01*
X101389707Y-108721786D01*
X101389711Y-108721789D01*
X101520814Y-108809390D01*
X101520827Y-108809397D01*
X101651349Y-108863460D01*
X101666503Y-108869737D01*
X101807665Y-108897816D01*
X101821153Y-108900499D01*
X101821156Y-108900500D01*
X101821158Y-108900500D01*
X101978844Y-108900500D01*
X101978845Y-108900499D01*
X102133497Y-108869737D01*
X102133507Y-108869732D01*
X102139328Y-108867968D01*
X102139926Y-108869940D01*
X102200036Y-108863460D01*
X102262525Y-108894716D01*
X102265710Y-108897788D01*
X102277922Y-108910000D01*
X102289712Y-108921790D01*
X102420814Y-109009390D01*
X102420827Y-109009397D01*
X102566498Y-109069735D01*
X102566503Y-109069737D01*
X102716131Y-109099500D01*
X102721153Y-109100499D01*
X102721156Y-109100500D01*
X102721158Y-109100500D01*
X102878844Y-109100500D01*
X102878845Y-109100499D01*
X103033497Y-109069737D01*
X103179179Y-109009394D01*
X103310289Y-108921789D01*
X103421789Y-108810289D01*
X103509394Y-108679179D01*
X103569737Y-108533497D01*
X103600500Y-108378842D01*
X103600500Y-108221158D01*
X103600500Y-108221155D01*
X103600499Y-108221153D01*
X103599117Y-108214206D01*
X103569737Y-108066503D01*
X103567637Y-108061433D01*
X103509397Y-107920827D01*
X103509390Y-107920814D01*
X103421789Y-107789711D01*
X103421786Y-107789707D01*
X103310292Y-107678213D01*
X103310288Y-107678210D01*
X103179185Y-107590609D01*
X103179172Y-107590602D01*
X103033501Y-107530264D01*
X103033489Y-107530261D01*
X102878845Y-107499500D01*
X102878842Y-107499500D01*
X102747902Y-107499500D01*
X102680863Y-107479815D01*
X102635108Y-107427011D01*
X102625164Y-107357853D01*
X102654189Y-107294297D01*
X102700451Y-107260938D01*
X102704179Y-107259394D01*
X102835289Y-107171789D01*
X102946789Y-107060289D01*
X103034394Y-106929179D01*
X103034839Y-106928106D01*
X103060659Y-106865768D01*
X103094737Y-106783497D01*
X103125500Y-106628842D01*
X103125500Y-106471158D01*
X103125500Y-106471155D01*
X103125499Y-106471153D01*
X103097328Y-106329529D01*
X103094737Y-106316503D01*
X103085721Y-106294737D01*
X103034397Y-106170827D01*
X103034390Y-106170814D01*
X102946789Y-106039711D01*
X102946786Y-106039707D01*
X102835292Y-105928213D01*
X102835288Y-105928210D01*
X102704185Y-105840609D01*
X102704172Y-105840602D01*
X102558501Y-105780264D01*
X102558489Y-105780261D01*
X102403845Y-105749500D01*
X102403842Y-105749500D01*
X102246158Y-105749500D01*
X102246155Y-105749500D01*
X102091510Y-105780261D01*
X102091498Y-105780264D01*
X101945828Y-105840602D01*
X101945808Y-105840613D01*
X101925858Y-105853943D01*
X101859180Y-105874819D01*
X101791801Y-105856332D01*
X101769290Y-105838520D01*
X101717401Y-105786631D01*
X101717397Y-105786628D01*
X101586294Y-105699027D01*
X101586281Y-105699020D01*
X101440610Y-105638682D01*
X101440598Y-105638679D01*
X101285954Y-105607918D01*
X101285951Y-105607918D01*
X101128267Y-105607918D01*
X101128264Y-105607918D01*
X100973619Y-105638679D01*
X100973607Y-105638682D01*
X100827936Y-105699020D01*
X100827923Y-105699027D01*
X100696820Y-105786628D01*
X100696816Y-105786631D01*
X100585322Y-105898125D01*
X100585319Y-105898129D01*
X100497718Y-106029232D01*
X100497711Y-106029245D01*
X100437373Y-106174916D01*
X100437370Y-106174928D01*
X100406609Y-106329571D01*
X88000499Y-106329571D01*
X88000499Y-105699628D01*
X87994091Y-105640017D01*
X87989924Y-105628846D01*
X87943797Y-105505171D01*
X87943793Y-105505164D01*
X87857547Y-105389955D01*
X87857544Y-105389952D01*
X87742335Y-105303706D01*
X87742328Y-105303702D01*
X87607482Y-105253408D01*
X87607483Y-105253408D01*
X87547883Y-105247001D01*
X87547881Y-105247000D01*
X87547873Y-105247000D01*
X87547864Y-105247000D01*
X85452129Y-105247000D01*
X85452123Y-105247001D01*
X85392516Y-105253408D01*
X85257671Y-105303702D01*
X85257664Y-105303706D01*
X85142455Y-105389952D01*
X85142452Y-105389955D01*
X85056206Y-105505164D01*
X85056202Y-105505171D01*
X85005908Y-105640017D01*
X84999501Y-105699616D01*
X84999501Y-105699623D01*
X84999500Y-105699635D01*
X71911418Y-105699635D01*
X71916893Y-105672115D01*
X71916893Y-105672114D01*
X71925500Y-105628844D01*
X71925500Y-105471155D01*
X71925499Y-105471153D01*
X71920527Y-105446158D01*
X71894737Y-105316503D01*
X71879504Y-105279727D01*
X71834397Y-105170827D01*
X71834390Y-105170814D01*
X71746789Y-105039711D01*
X71746786Y-105039707D01*
X71635292Y-104928213D01*
X71635288Y-104928210D01*
X71504185Y-104840609D01*
X71504172Y-104840602D01*
X71358501Y-104780264D01*
X71358489Y-104780261D01*
X71203845Y-104749500D01*
X71203842Y-104749500D01*
X71046158Y-104749500D01*
X71046155Y-104749500D01*
X70891510Y-104780261D01*
X70891498Y-104780264D01*
X70745827Y-104840602D01*
X70745814Y-104840609D01*
X70614711Y-104928210D01*
X70614707Y-104928213D01*
X70503213Y-105039707D01*
X70503210Y-105039711D01*
X70415609Y-105170814D01*
X70415602Y-105170827D01*
X70355264Y-105316498D01*
X70355261Y-105316510D01*
X70324500Y-105471153D01*
X70050500Y-105471153D01*
X70050500Y-105446158D01*
X70050500Y-105446155D01*
X70050499Y-105446153D01*
X70019737Y-105291503D01*
X70001304Y-105247001D01*
X69959397Y-105145827D01*
X69959390Y-105145814D01*
X69871789Y-105014711D01*
X69871786Y-105014707D01*
X69760292Y-104903213D01*
X69760288Y-104903210D01*
X69629185Y-104815609D01*
X69629172Y-104815602D01*
X69483501Y-104755264D01*
X69483489Y-104755261D01*
X69328845Y-104724500D01*
X69328842Y-104724500D01*
X69171158Y-104724500D01*
X69171155Y-104724500D01*
X69016510Y-104755261D01*
X69016498Y-104755264D01*
X68870827Y-104815602D01*
X68870814Y-104815609D01*
X68739711Y-104903210D01*
X68739707Y-104903213D01*
X68628213Y-105014707D01*
X68628210Y-105014711D01*
X68540609Y-105145814D01*
X68540602Y-105145827D01*
X68480264Y-105291498D01*
X68480261Y-105291510D01*
X68449500Y-105446153D01*
X57301045Y-105446153D01*
X57382557Y-105404620D01*
X57471848Y-105339748D01*
X57554459Y-105279727D01*
X57554464Y-105279723D01*
X57704723Y-105129464D01*
X57704727Y-105129459D01*
X57829620Y-104957557D01*
X57926095Y-104768217D01*
X57991757Y-104566129D01*
X57991757Y-104566126D01*
X58002231Y-104500000D01*
X56954146Y-104500000D01*
X56992630Y-104433343D01*
X57025000Y-104312535D01*
X57025000Y-104187465D01*
X56992630Y-104066657D01*
X56954146Y-104000000D01*
X58002231Y-104000000D01*
X57991757Y-103933873D01*
X57991757Y-103933870D01*
X57926094Y-103731779D01*
X57926092Y-103731775D01*
X57889316Y-103659598D01*
X57889314Y-103659596D01*
X57863731Y-103609388D01*
X67311265Y-103609388D01*
X67311265Y-103767081D01*
X67342026Y-103921724D01*
X67342029Y-103921736D01*
X67402367Y-104067407D01*
X67402374Y-104067420D01*
X67489975Y-104198523D01*
X67489978Y-104198527D01*
X67601472Y-104310021D01*
X67601476Y-104310024D01*
X67732579Y-104397625D01*
X67732592Y-104397632D01*
X67849787Y-104446175D01*
X67878268Y-104457972D01*
X68015594Y-104485288D01*
X68032918Y-104488734D01*
X68032921Y-104488735D01*
X68032923Y-104488735D01*
X68190609Y-104488735D01*
X68190610Y-104488734D01*
X68345262Y-104457972D01*
X68490944Y-104397629D01*
X68622054Y-104310024D01*
X68733554Y-104198524D01*
X68821159Y-104067414D01*
X68821534Y-104066510D01*
X68842087Y-104016888D01*
X68881502Y-103921732D01*
X68912265Y-103767077D01*
X68912265Y-103609393D01*
X68912265Y-103609391D01*
X68912027Y-103606975D01*
X68912265Y-103605720D01*
X68912265Y-103603301D01*
X68912724Y-103603301D01*
X68925047Y-103538329D01*
X68973112Y-103487619D01*
X69040963Y-103470946D01*
X69059622Y-103473205D01*
X69066787Y-103474630D01*
X69071157Y-103475500D01*
X69071158Y-103475500D01*
X69228844Y-103475500D01*
X69228845Y-103475499D01*
X69383497Y-103444737D01*
X69529179Y-103384394D01*
X69660289Y-103296789D01*
X69771789Y-103185289D01*
X69859394Y-103054179D01*
X69919737Y-102908497D01*
X69950500Y-102753842D01*
X69950500Y-102596158D01*
X69950500Y-102596155D01*
X69950499Y-102596153D01*
X69946989Y-102578507D01*
X69919737Y-102441503D01*
X69919735Y-102441498D01*
X69859397Y-102295827D01*
X69859390Y-102295814D01*
X69771789Y-102164711D01*
X69771786Y-102164707D01*
X69660292Y-102053213D01*
X69660288Y-102053210D01*
X69547981Y-101978168D01*
X75574500Y-101978168D01*
X75574500Y-102135861D01*
X75605261Y-102290504D01*
X75605264Y-102290516D01*
X75665602Y-102436187D01*
X75665609Y-102436200D01*
X75753209Y-102567302D01*
X75753210Y-102567303D01*
X75753211Y-102567304D01*
X75777727Y-102591820D01*
X75811212Y-102653141D01*
X75806229Y-102722833D01*
X75793149Y-102748391D01*
X75753108Y-102808316D01*
X75753102Y-102808327D01*
X75692764Y-102953998D01*
X75692761Y-102954010D01*
X75662000Y-103108653D01*
X75662000Y-103266346D01*
X75692761Y-103420989D01*
X75692764Y-103421001D01*
X75753102Y-103566672D01*
X75753109Y-103566685D01*
X75840710Y-103697788D01*
X75840713Y-103697792D01*
X75952207Y-103809286D01*
X75952212Y-103809290D01*
X75994389Y-103837471D01*
X76039195Y-103891082D01*
X76049500Y-103940574D01*
X76049500Y-104028846D01*
X76080261Y-104183489D01*
X76080264Y-104183501D01*
X76140602Y-104329172D01*
X76140609Y-104329185D01*
X76228210Y-104460288D01*
X76228213Y-104460292D01*
X76339707Y-104571786D01*
X76339711Y-104571789D01*
X76470814Y-104659390D01*
X76470827Y-104659397D01*
X76551060Y-104692630D01*
X76616503Y-104719737D01*
X76742176Y-104744735D01*
X76771153Y-104750499D01*
X76771156Y-104750500D01*
X76771158Y-104750500D01*
X76928844Y-104750500D01*
X76928845Y-104750499D01*
X77083497Y-104719737D01*
X77229179Y-104659394D01*
X77360289Y-104571789D01*
X77410925Y-104521153D01*
X78574500Y-104521153D01*
X78574500Y-104678846D01*
X78605261Y-104833489D01*
X78605264Y-104833501D01*
X78665602Y-104979172D01*
X78665609Y-104979185D01*
X78753210Y-105110288D01*
X78753213Y-105110292D01*
X78864707Y-105221786D01*
X78864711Y-105221789D01*
X78995814Y-105309390D01*
X78995827Y-105309397D01*
X79141498Y-105369735D01*
X79141503Y-105369737D01*
X79296153Y-105400499D01*
X79296156Y-105400500D01*
X79296158Y-105400500D01*
X79453844Y-105400500D01*
X79453845Y-105400499D01*
X79608497Y-105369737D01*
X79754179Y-105309394D01*
X79885289Y-105221789D01*
X79996789Y-105110289D01*
X80084394Y-104979179D01*
X80144737Y-104833497D01*
X80175500Y-104678842D01*
X80175500Y-104521158D01*
X80175500Y-104521155D01*
X80175499Y-104521153D01*
X80144737Y-104366503D01*
X80139629Y-104354172D01*
X80084397Y-104220827D01*
X80084390Y-104220814D01*
X79996789Y-104089711D01*
X79996786Y-104089707D01*
X79885292Y-103978213D01*
X79885288Y-103978210D01*
X79762482Y-103896153D01*
X83174500Y-103896153D01*
X83174500Y-104053846D01*
X83205261Y-104208489D01*
X83205264Y-104208501D01*
X83265602Y-104354172D01*
X83265609Y-104354185D01*
X83353210Y-104485288D01*
X83353213Y-104485292D01*
X83464707Y-104596786D01*
X83464711Y-104596789D01*
X83595814Y-104684390D01*
X83595827Y-104684397D01*
X83711081Y-104732136D01*
X83741503Y-104744737D01*
X83896153Y-104775499D01*
X83896156Y-104775500D01*
X83896158Y-104775500D01*
X84053844Y-104775500D01*
X84053845Y-104775499D01*
X84208497Y-104744737D01*
X84354179Y-104684394D01*
X84485289Y-104596789D01*
X84596789Y-104485289D01*
X84684394Y-104354179D01*
X84744737Y-104208497D01*
X84775500Y-104053842D01*
X84775500Y-103896158D01*
X84775500Y-103896155D01*
X84775499Y-103896153D01*
X84770527Y-103871158D01*
X84744737Y-103741503D01*
X84744735Y-103741498D01*
X84684397Y-103595827D01*
X84684390Y-103595814D01*
X84596789Y-103464711D01*
X84596786Y-103464707D01*
X84485292Y-103353213D01*
X84485288Y-103353210D01*
X84354185Y-103265609D01*
X84354172Y-103265602D01*
X84208501Y-103205264D01*
X84208489Y-103205261D01*
X84053845Y-103174500D01*
X84053842Y-103174500D01*
X83896158Y-103174500D01*
X83896155Y-103174500D01*
X83741510Y-103205261D01*
X83741498Y-103205264D01*
X83595827Y-103265602D01*
X83595814Y-103265609D01*
X83464711Y-103353210D01*
X83464707Y-103353213D01*
X83353213Y-103464707D01*
X83353210Y-103464711D01*
X83265609Y-103595814D01*
X83265602Y-103595827D01*
X83205264Y-103741498D01*
X83205261Y-103741510D01*
X83174500Y-103896153D01*
X79762482Y-103896153D01*
X79754185Y-103890609D01*
X79754172Y-103890602D01*
X79608501Y-103830264D01*
X79608489Y-103830261D01*
X79453845Y-103799500D01*
X79453842Y-103799500D01*
X79296158Y-103799500D01*
X79296155Y-103799500D01*
X79141510Y-103830261D01*
X79141498Y-103830264D01*
X78995827Y-103890602D01*
X78995814Y-103890609D01*
X78864711Y-103978210D01*
X78864707Y-103978213D01*
X78753213Y-104089707D01*
X78753210Y-104089711D01*
X78665609Y-104220814D01*
X78665602Y-104220827D01*
X78605264Y-104366498D01*
X78605261Y-104366510D01*
X78574500Y-104521153D01*
X77410925Y-104521153D01*
X77471789Y-104460289D01*
X77489199Y-104434234D01*
X77559390Y-104329185D01*
X77559390Y-104329184D01*
X77559394Y-104329179D01*
X77619737Y-104183497D01*
X77650500Y-104028842D01*
X77650500Y-103871158D01*
X77650500Y-103871155D01*
X77650499Y-103871153D01*
X77642365Y-103830261D01*
X77619737Y-103716503D01*
X77611987Y-103697792D01*
X77559397Y-103570827D01*
X77559390Y-103570814D01*
X77471789Y-103439711D01*
X77471786Y-103439707D01*
X77360292Y-103328213D01*
X77360286Y-103328208D01*
X77318108Y-103300025D01*
X77273304Y-103246412D01*
X77263000Y-103196924D01*
X77263000Y-103108655D01*
X77262999Y-103108653D01*
X77262966Y-103108489D01*
X77232237Y-102954003D01*
X77217531Y-102918499D01*
X77184007Y-102837564D01*
X77184001Y-102837552D01*
X77171894Y-102808321D01*
X77171891Y-102808316D01*
X77171890Y-102808314D01*
X77163764Y-102796153D01*
X85199500Y-102796153D01*
X85199500Y-102953846D01*
X85230261Y-103108489D01*
X85230264Y-103108501D01*
X85290602Y-103254172D01*
X85290609Y-103254185D01*
X85378210Y-103385288D01*
X85378213Y-103385292D01*
X85489707Y-103496786D01*
X85489711Y-103496789D01*
X85620814Y-103584390D01*
X85620827Y-103584397D01*
X85681174Y-103609393D01*
X85766503Y-103644737D01*
X85921153Y-103675499D01*
X85921156Y-103675500D01*
X85921158Y-103675500D01*
X86078844Y-103675500D01*
X86078845Y-103675499D01*
X86233497Y-103644737D01*
X86351592Y-103595821D01*
X86379172Y-103584397D01*
X86379172Y-103584396D01*
X86379179Y-103584394D01*
X86510289Y-103496789D01*
X86621789Y-103385289D01*
X86709394Y-103254179D01*
X86769737Y-103108497D01*
X86800500Y-102953842D01*
X86800500Y-102796158D01*
X86800500Y-102796155D01*
X86800499Y-102796153D01*
X86797306Y-102780103D01*
X86769737Y-102641503D01*
X86764884Y-102629786D01*
X86709397Y-102495827D01*
X86709390Y-102495814D01*
X86621789Y-102364711D01*
X86621786Y-102364707D01*
X86510292Y-102253213D01*
X86510288Y-102253210D01*
X86379185Y-102165609D01*
X86379172Y-102165602D01*
X86233501Y-102105264D01*
X86233489Y-102105261D01*
X86078845Y-102074500D01*
X86078842Y-102074500D01*
X85921158Y-102074500D01*
X85921155Y-102074500D01*
X85766510Y-102105261D01*
X85766498Y-102105264D01*
X85620827Y-102165602D01*
X85620814Y-102165609D01*
X85489711Y-102253210D01*
X85489707Y-102253213D01*
X85378213Y-102364707D01*
X85378210Y-102364711D01*
X85290609Y-102495814D01*
X85290602Y-102495827D01*
X85230264Y-102641498D01*
X85230261Y-102641510D01*
X85199500Y-102796153D01*
X77163764Y-102796153D01*
X77084289Y-102677211D01*
X77084286Y-102677207D01*
X77059772Y-102652693D01*
X77026287Y-102591370D01*
X77031271Y-102521678D01*
X77044347Y-102496127D01*
X77084394Y-102436194D01*
X77144737Y-102290512D01*
X77175500Y-102135857D01*
X77175500Y-101978173D01*
X77175500Y-101978170D01*
X77175499Y-101978168D01*
X77160050Y-101900500D01*
X77144737Y-101823518D01*
X77102599Y-101721786D01*
X77084397Y-101677842D01*
X77084390Y-101677829D01*
X76996789Y-101546726D01*
X76996786Y-101546722D01*
X76885292Y-101435228D01*
X76885288Y-101435225D01*
X76754185Y-101347624D01*
X76754172Y-101347617D01*
X76608501Y-101287279D01*
X76608489Y-101287276D01*
X76453845Y-101256515D01*
X76453842Y-101256515D01*
X76296158Y-101256515D01*
X76296155Y-101256515D01*
X76141510Y-101287276D01*
X76141498Y-101287279D01*
X75995827Y-101347617D01*
X75995814Y-101347624D01*
X75864711Y-101435225D01*
X75864707Y-101435228D01*
X75753213Y-101546722D01*
X75753210Y-101546726D01*
X75665609Y-101677829D01*
X75665602Y-101677842D01*
X75605264Y-101823513D01*
X75605261Y-101823525D01*
X75574500Y-101978168D01*
X69547981Y-101978168D01*
X69529185Y-101965609D01*
X69529172Y-101965602D01*
X69383501Y-101905264D01*
X69383489Y-101905261D01*
X69228845Y-101874500D01*
X69228842Y-101874500D01*
X69071158Y-101874500D01*
X69071155Y-101874500D01*
X68916510Y-101905261D01*
X68916498Y-101905264D01*
X68770827Y-101965602D01*
X68770814Y-101965609D01*
X68639711Y-102053210D01*
X68639707Y-102053213D01*
X68528213Y-102164707D01*
X68528210Y-102164711D01*
X68440609Y-102295814D01*
X68440602Y-102295827D01*
X68380264Y-102441498D01*
X68380261Y-102441510D01*
X68349500Y-102596153D01*
X68349500Y-102753852D01*
X68349738Y-102756272D01*
X68349500Y-102757526D01*
X68349500Y-102759934D01*
X68349043Y-102759934D01*
X68336711Y-102824917D01*
X68288641Y-102875622D01*
X68220788Y-102892288D01*
X68202143Y-102890029D01*
X68190610Y-102887735D01*
X68190607Y-102887735D01*
X68032923Y-102887735D01*
X68032920Y-102887735D01*
X67878275Y-102918496D01*
X67878263Y-102918499D01*
X67732592Y-102978837D01*
X67732579Y-102978844D01*
X67601476Y-103066445D01*
X67601472Y-103066448D01*
X67489978Y-103177942D01*
X67489975Y-103177946D01*
X67402374Y-103309049D01*
X67402367Y-103309062D01*
X67342029Y-103454733D01*
X67342026Y-103454745D01*
X67311265Y-103609388D01*
X57863731Y-103609388D01*
X57829620Y-103542442D01*
X57704727Y-103370540D01*
X57704723Y-103370535D01*
X57554464Y-103220276D01*
X57554459Y-103220272D01*
X57389781Y-103100627D01*
X57347115Y-103045297D01*
X57341136Y-102975684D01*
X57373741Y-102913889D01*
X57389776Y-102899994D01*
X57554792Y-102780104D01*
X57705104Y-102629792D01*
X57705106Y-102629788D01*
X57705109Y-102629786D01*
X57830048Y-102457820D01*
X57830047Y-102457820D01*
X57830051Y-102457816D01*
X57926557Y-102268412D01*
X57992246Y-102066243D01*
X58025500Y-101856287D01*
X58025500Y-101643713D01*
X57992246Y-101433757D01*
X57926557Y-101231588D01*
X57830051Y-101042184D01*
X57830050Y-101042182D01*
X57814772Y-101021153D01*
X88649500Y-101021153D01*
X88649500Y-101178846D01*
X88680261Y-101333489D01*
X88680264Y-101333501D01*
X88740602Y-101479172D01*
X88740609Y-101479185D01*
X88828210Y-101610288D01*
X88828213Y-101610292D01*
X88939707Y-101721786D01*
X88939711Y-101721789D01*
X89070814Y-101809390D01*
X89070827Y-101809397D01*
X89216498Y-101869735D01*
X89216503Y-101869737D01*
X89371153Y-101900499D01*
X89371156Y-101900500D01*
X89371158Y-101900500D01*
X89528844Y-101900500D01*
X89528845Y-101900499D01*
X89683497Y-101869737D01*
X89829179Y-101809394D01*
X89960289Y-101721789D01*
X90071789Y-101610289D01*
X90159394Y-101479179D01*
X90219737Y-101333497D01*
X90250500Y-101178842D01*
X90250500Y-101177135D01*
X90599500Y-101177135D01*
X90599500Y-102972870D01*
X90599501Y-102972876D01*
X90605908Y-103032483D01*
X90656202Y-103167328D01*
X90656206Y-103167335D01*
X90742452Y-103282544D01*
X90742455Y-103282547D01*
X90857664Y-103368793D01*
X90857671Y-103368797D01*
X90989082Y-103417810D01*
X91045016Y-103459681D01*
X91069433Y-103525145D01*
X91054582Y-103593418D01*
X91033431Y-103621673D01*
X90919889Y-103735215D01*
X90794951Y-103907179D01*
X90698444Y-104096585D01*
X90632753Y-104298760D01*
X90602664Y-104488734D01*
X90599500Y-104508713D01*
X90599500Y-104721287D01*
X90606933Y-104768217D01*
X90632273Y-104928211D01*
X90632754Y-104931243D01*
X90697160Y-105129464D01*
X90698444Y-105133414D01*
X90794951Y-105322820D01*
X90919890Y-105494786D01*
X91070213Y-105645109D01*
X91242179Y-105770048D01*
X91242181Y-105770049D01*
X91242184Y-105770051D01*
X91431588Y-105866557D01*
X91633757Y-105932246D01*
X91843713Y-105965500D01*
X91843714Y-105965500D01*
X92056286Y-105965500D01*
X92056287Y-105965500D01*
X92266243Y-105932246D01*
X92468412Y-105866557D01*
X92657816Y-105770051D01*
X92754736Y-105699635D01*
X92829786Y-105645109D01*
X92829788Y-105645106D01*
X92829792Y-105645104D01*
X92980104Y-105494792D01*
X92980106Y-105494788D01*
X92980109Y-105494786D01*
X93105048Y-105322820D01*
X93105047Y-105322820D01*
X93105051Y-105322816D01*
X93201557Y-105133412D01*
X93267246Y-104931243D01*
X93300500Y-104721287D01*
X93300500Y-104508713D01*
X93267246Y-104298757D01*
X93242031Y-104221153D01*
X95399500Y-104221153D01*
X95399500Y-104378846D01*
X95430261Y-104533489D01*
X95430264Y-104533501D01*
X95490602Y-104679172D01*
X95490609Y-104679185D01*
X95578210Y-104810288D01*
X95578213Y-104810292D01*
X95689707Y-104921786D01*
X95689711Y-104921789D01*
X95820814Y-105009390D01*
X95820827Y-105009397D01*
X95966498Y-105069735D01*
X95966503Y-105069737D01*
X96121153Y-105100499D01*
X96121156Y-105100500D01*
X96121158Y-105100500D01*
X96278844Y-105100500D01*
X96278845Y-105100499D01*
X96433497Y-105069737D01*
X96579179Y-105009394D01*
X96710289Y-104921789D01*
X96821789Y-104810289D01*
X96909394Y-104679179D01*
X96969737Y-104533497D01*
X97000500Y-104378842D01*
X97000500Y-104221158D01*
X97000500Y-104221155D01*
X97000499Y-104221153D01*
X96993798Y-104187465D01*
X96969737Y-104066503D01*
X96954138Y-104028844D01*
X96909397Y-103920827D01*
X96909390Y-103920814D01*
X96821789Y-103789711D01*
X96821786Y-103789707D01*
X96710292Y-103678213D01*
X96710288Y-103678210D01*
X96579185Y-103590609D01*
X96579172Y-103590602D01*
X96433501Y-103530264D01*
X96433489Y-103530261D01*
X96278845Y-103499500D01*
X96278842Y-103499500D01*
X96121158Y-103499500D01*
X96121155Y-103499500D01*
X95966510Y-103530261D01*
X95966498Y-103530264D01*
X95820827Y-103590602D01*
X95820814Y-103590609D01*
X95689711Y-103678210D01*
X95689707Y-103678213D01*
X95578213Y-103789707D01*
X95578210Y-103789711D01*
X95490609Y-103920814D01*
X95490602Y-103920827D01*
X95430264Y-104066498D01*
X95430261Y-104066510D01*
X95399500Y-104221153D01*
X93242031Y-104221153D01*
X93201557Y-104096588D01*
X93105051Y-103907184D01*
X93105049Y-103907181D01*
X93105048Y-103907179D01*
X92980109Y-103735213D01*
X92866569Y-103621673D01*
X92833084Y-103560350D01*
X92838068Y-103490658D01*
X92879940Y-103434725D01*
X92910915Y-103417810D01*
X93042331Y-103368796D01*
X93157546Y-103282546D01*
X93235403Y-103178543D01*
X103719499Y-103178543D01*
X103757947Y-103371829D01*
X103757950Y-103371839D01*
X103833364Y-103553907D01*
X103833371Y-103553920D01*
X103942860Y-103717781D01*
X103942863Y-103717785D01*
X104082214Y-103857136D01*
X104082218Y-103857139D01*
X104246079Y-103966628D01*
X104246092Y-103966635D01*
X104396275Y-104028842D01*
X104428165Y-104042051D01*
X104428169Y-104042051D01*
X104428170Y-104042052D01*
X104621456Y-104080500D01*
X104621459Y-104080500D01*
X105168667Y-104080500D01*
X105235706Y-104100185D01*
X105281461Y-104152989D01*
X105291405Y-104222147D01*
X105276053Y-104266501D01*
X105263721Y-104287859D01*
X105263720Y-104287862D01*
X105263720Y-104287863D01*
X105263719Y-104287865D01*
X105245949Y-104354185D01*
X105224500Y-104434234D01*
X105224500Y-104585765D01*
X105263719Y-104732136D01*
X105284551Y-104768217D01*
X105339485Y-104863365D01*
X105446635Y-104970515D01*
X105560281Y-105036129D01*
X105566478Y-105039707D01*
X105577865Y-105046281D01*
X105724234Y-105085500D01*
X105724236Y-105085500D01*
X105875764Y-105085500D01*
X105875766Y-105085500D01*
X106022135Y-105046281D01*
X106153365Y-104970515D01*
X106260515Y-104863365D01*
X106336281Y-104732135D01*
X106375500Y-104585766D01*
X106375500Y-104434234D01*
X106336281Y-104287865D01*
X106260515Y-104156635D01*
X106260512Y-104156632D01*
X106255809Y-104150502D01*
X106230616Y-104085333D01*
X106244655Y-104016888D01*
X106289488Y-103970975D01*
X106288848Y-103970017D01*
X106293383Y-103966986D01*
X106293469Y-103966899D01*
X106293721Y-103966760D01*
X106293910Y-103966633D01*
X106293914Y-103966632D01*
X106457782Y-103857139D01*
X106597139Y-103717782D01*
X106706632Y-103553914D01*
X106713088Y-103538329D01*
X106761686Y-103421001D01*
X106782051Y-103371835D01*
X106803181Y-103265609D01*
X106820500Y-103178543D01*
X108149499Y-103178543D01*
X108187947Y-103371829D01*
X108187950Y-103371839D01*
X108263364Y-103553907D01*
X108263371Y-103553920D01*
X108372860Y-103717781D01*
X108372863Y-103717785D01*
X108512214Y-103857136D01*
X108512218Y-103857139D01*
X108676079Y-103966628D01*
X108676092Y-103966635D01*
X108826275Y-104028842D01*
X108858165Y-104042051D01*
X108858169Y-104042051D01*
X108858170Y-104042052D01*
X109051456Y-104080500D01*
X109051459Y-104080500D01*
X109848543Y-104080500D01*
X110004462Y-104049485D01*
X110041835Y-104042051D01*
X110215742Y-103970017D01*
X110223907Y-103966635D01*
X110223907Y-103966634D01*
X110223914Y-103966632D01*
X110387782Y-103857139D01*
X110527139Y-103717782D01*
X110636632Y-103553914D01*
X110643088Y-103538329D01*
X110691686Y-103421001D01*
X110712051Y-103371835D01*
X110733181Y-103265609D01*
X110750500Y-103178543D01*
X110750500Y-102981456D01*
X110712052Y-102788170D01*
X110712051Y-102788169D01*
X110712051Y-102788165D01*
X110708714Y-102780109D01*
X110636635Y-102606092D01*
X110636628Y-102606079D01*
X110527139Y-102442218D01*
X110527136Y-102442214D01*
X110387785Y-102302863D01*
X110387781Y-102302860D01*
X110223920Y-102193371D01*
X110223907Y-102193364D01*
X110041839Y-102117950D01*
X110041829Y-102117947D01*
X109848543Y-102079500D01*
X109848541Y-102079500D01*
X109051459Y-102079500D01*
X109051457Y-102079500D01*
X108858170Y-102117947D01*
X108858160Y-102117950D01*
X108676092Y-102193364D01*
X108676079Y-102193371D01*
X108512218Y-102302860D01*
X108512214Y-102302863D01*
X108372863Y-102442214D01*
X108372860Y-102442218D01*
X108263371Y-102606079D01*
X108263364Y-102606092D01*
X108187950Y-102788160D01*
X108187947Y-102788170D01*
X108149500Y-102981456D01*
X108149500Y-102981459D01*
X108149500Y-103178541D01*
X108149500Y-103178543D01*
X108149499Y-103178543D01*
X106820500Y-103178543D01*
X106820500Y-102981456D01*
X106782052Y-102788170D01*
X106782051Y-102788169D01*
X106782051Y-102788165D01*
X106778714Y-102780109D01*
X106706635Y-102606092D01*
X106706628Y-102606079D01*
X106597139Y-102442218D01*
X106597136Y-102442214D01*
X106457785Y-102302863D01*
X106457781Y-102302860D01*
X106293920Y-102193371D01*
X106293907Y-102193364D01*
X106111839Y-102117950D01*
X106111829Y-102117947D01*
X105918543Y-102079500D01*
X105918541Y-102079500D01*
X104621459Y-102079500D01*
X104621457Y-102079500D01*
X104428170Y-102117947D01*
X104428160Y-102117950D01*
X104246092Y-102193364D01*
X104246079Y-102193371D01*
X104082218Y-102302860D01*
X104082214Y-102302863D01*
X103942863Y-102442214D01*
X103942860Y-102442218D01*
X103833371Y-102606079D01*
X103833364Y-102606092D01*
X103757950Y-102788160D01*
X103757947Y-102788170D01*
X103719500Y-102981456D01*
X103719500Y-102981459D01*
X103719500Y-103178541D01*
X103719500Y-103178543D01*
X103719499Y-103178543D01*
X93235403Y-103178543D01*
X93243796Y-103167331D01*
X93294091Y-103032483D01*
X93300500Y-102972873D01*
X93300499Y-101177128D01*
X93294091Y-101117517D01*
X93276875Y-101071359D01*
X93243797Y-100982671D01*
X93243793Y-100982664D01*
X93157547Y-100867455D01*
X93157544Y-100867452D01*
X93042335Y-100781206D01*
X93042328Y-100781202D01*
X92907482Y-100730908D01*
X92907483Y-100730908D01*
X92847883Y-100724501D01*
X92847881Y-100724500D01*
X92847873Y-100724500D01*
X92847864Y-100724500D01*
X91052129Y-100724500D01*
X91052123Y-100724501D01*
X90992516Y-100730908D01*
X90857671Y-100781202D01*
X90857664Y-100781206D01*
X90742455Y-100867452D01*
X90742452Y-100867455D01*
X90656206Y-100982664D01*
X90656202Y-100982671D01*
X90605908Y-101117517D01*
X90599501Y-101177116D01*
X90599501Y-101177123D01*
X90599500Y-101177135D01*
X90250500Y-101177135D01*
X90250500Y-101021158D01*
X90250500Y-101021155D01*
X90250499Y-101021153D01*
X90219926Y-100867454D01*
X90219737Y-100866503D01*
X90219735Y-100866498D01*
X90159397Y-100720827D01*
X90159390Y-100720814D01*
X90071789Y-100589711D01*
X90071786Y-100589707D01*
X89960292Y-100478213D01*
X89960288Y-100478210D01*
X89829185Y-100390609D01*
X89829172Y-100390602D01*
X89683501Y-100330264D01*
X89683489Y-100330261D01*
X89528845Y-100299500D01*
X89528842Y-100299500D01*
X89371158Y-100299500D01*
X89371155Y-100299500D01*
X89216510Y-100330261D01*
X89216498Y-100330264D01*
X89070827Y-100390602D01*
X89070814Y-100390609D01*
X88939711Y-100478210D01*
X88939707Y-100478213D01*
X88828213Y-100589707D01*
X88828210Y-100589711D01*
X88740609Y-100720814D01*
X88740602Y-100720827D01*
X88680264Y-100866498D01*
X88680261Y-100866510D01*
X88649500Y-101021153D01*
X57814772Y-101021153D01*
X57705109Y-100870213D01*
X57554792Y-100719896D01*
X57554784Y-100719890D01*
X57390204Y-100600316D01*
X57347540Y-100544989D01*
X57341561Y-100475376D01*
X57374166Y-100413580D01*
X57390199Y-100399686D01*
X57554792Y-100280104D01*
X57705104Y-100129792D01*
X57705106Y-100129788D01*
X57705109Y-100129786D01*
X57792678Y-100009255D01*
X57820361Y-99971153D01*
X62824500Y-99971153D01*
X62824500Y-100128846D01*
X62855261Y-100283489D01*
X62855264Y-100283501D01*
X62915602Y-100429172D01*
X62915609Y-100429185D01*
X63003210Y-100560288D01*
X63003213Y-100560292D01*
X63114707Y-100671786D01*
X63114711Y-100671789D01*
X63245814Y-100759390D01*
X63245827Y-100759397D01*
X63391498Y-100819735D01*
X63391503Y-100819737D01*
X63546153Y-100850499D01*
X63546156Y-100850500D01*
X63546158Y-100850500D01*
X63703844Y-100850500D01*
X63703845Y-100850499D01*
X63858497Y-100819737D01*
X64004179Y-100759394D01*
X64135289Y-100671789D01*
X64246789Y-100560289D01*
X64334394Y-100429179D01*
X64394737Y-100283497D01*
X64425500Y-100128842D01*
X64425500Y-99971158D01*
X64425500Y-99971155D01*
X64425499Y-99971153D01*
X64413090Y-99908770D01*
X64394737Y-99816503D01*
X64340861Y-99686433D01*
X64334397Y-99670827D01*
X64334390Y-99670814D01*
X64246789Y-99539711D01*
X64246786Y-99539707D01*
X64135292Y-99428213D01*
X64135288Y-99428210D01*
X64004185Y-99340609D01*
X64004172Y-99340602D01*
X63858501Y-99280264D01*
X63858489Y-99280261D01*
X63703845Y-99249500D01*
X63703842Y-99249500D01*
X63546158Y-99249500D01*
X63546155Y-99249500D01*
X63391510Y-99280261D01*
X63391498Y-99280264D01*
X63245827Y-99340602D01*
X63245814Y-99340609D01*
X63114711Y-99428210D01*
X63114707Y-99428213D01*
X63003213Y-99539707D01*
X63003210Y-99539711D01*
X62915609Y-99670814D01*
X62915602Y-99670827D01*
X62855264Y-99816498D01*
X62855261Y-99816510D01*
X62824500Y-99971153D01*
X57820361Y-99971153D01*
X57830051Y-99957816D01*
X57839155Y-99939947D01*
X57855042Y-99908770D01*
X57902056Y-99816498D01*
X57926557Y-99768412D01*
X57992246Y-99566243D01*
X58025500Y-99356287D01*
X58025500Y-99143713D01*
X57992246Y-98933757D01*
X57926557Y-98731588D01*
X57830051Y-98542184D01*
X57830049Y-98542181D01*
X57830048Y-98542179D01*
X57723955Y-98396153D01*
X77349500Y-98396153D01*
X77349500Y-98553846D01*
X77380261Y-98708489D01*
X77380264Y-98708501D01*
X77440602Y-98854172D01*
X77440609Y-98854185D01*
X77528210Y-98985288D01*
X77528213Y-98985292D01*
X77639707Y-99096786D01*
X77639711Y-99096789D01*
X77770814Y-99184390D01*
X77770827Y-99184397D01*
X77916498Y-99244735D01*
X77916503Y-99244737D01*
X78071153Y-99275499D01*
X78071156Y-99275500D01*
X78071158Y-99275500D01*
X78228844Y-99275500D01*
X78228845Y-99275499D01*
X78383497Y-99244737D01*
X78529179Y-99184394D01*
X78660289Y-99096789D01*
X78771789Y-98985289D01*
X78859394Y-98854179D01*
X78879927Y-98804607D01*
X78893784Y-98771153D01*
X80006500Y-98771153D01*
X80006500Y-98928846D01*
X80037261Y-99083489D01*
X80037264Y-99083501D01*
X80097602Y-99229172D01*
X80097609Y-99229185D01*
X80185210Y-99360288D01*
X80185213Y-99360292D01*
X80296707Y-99471786D01*
X80296711Y-99471789D01*
X80427814Y-99559390D01*
X80427827Y-99559397D01*
X80573498Y-99619735D01*
X80573503Y-99619737D01*
X80728153Y-99650499D01*
X80728156Y-99650500D01*
X80728158Y-99650500D01*
X80885844Y-99650500D01*
X80885845Y-99650499D01*
X81040497Y-99619737D01*
X81186179Y-99559394D01*
X81317289Y-99471789D01*
X81428789Y-99360289D01*
X81516394Y-99229179D01*
X81576737Y-99083497D01*
X81607500Y-98928842D01*
X81607500Y-98771158D01*
X81607500Y-98771155D01*
X81607499Y-98771153D01*
X85099500Y-98771153D01*
X85099500Y-98928846D01*
X85130261Y-99083489D01*
X85130264Y-99083501D01*
X85190602Y-99229172D01*
X85190609Y-99229185D01*
X85278210Y-99360288D01*
X85278213Y-99360292D01*
X85389707Y-99471786D01*
X85389711Y-99471789D01*
X85520814Y-99559390D01*
X85520827Y-99559397D01*
X85666498Y-99619735D01*
X85666503Y-99619737D01*
X85821153Y-99650499D01*
X85821156Y-99650500D01*
X85821158Y-99650500D01*
X85978844Y-99650500D01*
X85978845Y-99650499D01*
X86133497Y-99619737D01*
X86279179Y-99559394D01*
X86410289Y-99471789D01*
X86521789Y-99360289D01*
X86609394Y-99229179D01*
X86669737Y-99083497D01*
X86700500Y-98928842D01*
X86700500Y-98771158D01*
X86700500Y-98771155D01*
X86700499Y-98771153D01*
X86669738Y-98616510D01*
X86669737Y-98616503D01*
X86647164Y-98562006D01*
X86609397Y-98470827D01*
X86609390Y-98470814D01*
X86521789Y-98339711D01*
X86521786Y-98339707D01*
X86410292Y-98228213D01*
X86410288Y-98228210D01*
X86369549Y-98200989D01*
X86279185Y-98140609D01*
X86279172Y-98140602D01*
X86190743Y-98103974D01*
X89648731Y-98103974D01*
X89648731Y-98261667D01*
X89679492Y-98416310D01*
X89679495Y-98416322D01*
X89739833Y-98561993D01*
X89739840Y-98562006D01*
X89827441Y-98693109D01*
X89827444Y-98693113D01*
X89938938Y-98804607D01*
X89938942Y-98804610D01*
X90070045Y-98892211D01*
X90070058Y-98892218D01*
X90170344Y-98933757D01*
X90215734Y-98952558D01*
X90370384Y-98983320D01*
X90370387Y-98983321D01*
X90370389Y-98983321D01*
X90528075Y-98983321D01*
X90528076Y-98983320D01*
X90682728Y-98952558D01*
X90828410Y-98892215D01*
X90959520Y-98804610D01*
X90982228Y-98781902D01*
X104549500Y-98781902D01*
X104549500Y-99018097D01*
X104586446Y-99251368D01*
X104659433Y-99475996D01*
X104732674Y-99619738D01*
X104766657Y-99686433D01*
X104905483Y-99877510D01*
X105072490Y-100044517D01*
X105263567Y-100183343D01*
X105362991Y-100234002D01*
X105474003Y-100290566D01*
X105474005Y-100290566D01*
X105474008Y-100290568D01*
X105594412Y-100329689D01*
X105698631Y-100363553D01*
X105931903Y-100400500D01*
X105931908Y-100400500D01*
X107668097Y-100400500D01*
X107901368Y-100363553D01*
X108125992Y-100290568D01*
X108336433Y-100183343D01*
X108527510Y-100044517D01*
X108694517Y-99877510D01*
X108833343Y-99686433D01*
X108940568Y-99475992D01*
X109013553Y-99251368D01*
X109017067Y-99229179D01*
X109050500Y-99018097D01*
X109050500Y-98781902D01*
X109013553Y-98548631D01*
X108964009Y-98396153D01*
X108940568Y-98324008D01*
X108940566Y-98324005D01*
X108940566Y-98324003D01*
X108869887Y-98185288D01*
X108833343Y-98113567D01*
X108694517Y-97922490D01*
X108527510Y-97755483D01*
X108336433Y-97616657D01*
X108125996Y-97509433D01*
X107901368Y-97436446D01*
X107668097Y-97399500D01*
X107668092Y-97399500D01*
X105931908Y-97399500D01*
X105931903Y-97399500D01*
X105698631Y-97436446D01*
X105474003Y-97509433D01*
X105263566Y-97616657D01*
X105186667Y-97672528D01*
X105072490Y-97755483D01*
X105072488Y-97755485D01*
X105072487Y-97755485D01*
X104905485Y-97922487D01*
X104905485Y-97922488D01*
X104905483Y-97922490D01*
X104874808Y-97964711D01*
X104766657Y-98113566D01*
X104659433Y-98324003D01*
X104586446Y-98548631D01*
X104549500Y-98781902D01*
X90982228Y-98781902D01*
X91071020Y-98693110D01*
X91158625Y-98562000D01*
X91162003Y-98553846D01*
X91194454Y-98475500D01*
X91218968Y-98416318D01*
X91249731Y-98261663D01*
X91249731Y-98103979D01*
X91249731Y-98103976D01*
X91249730Y-98103974D01*
X91245014Y-98080264D01*
X91218968Y-97949324D01*
X91207852Y-97922487D01*
X91158628Y-97803648D01*
X91158621Y-97803635D01*
X91071020Y-97672532D01*
X91071017Y-97672528D01*
X90959523Y-97561034D01*
X90959519Y-97561031D01*
X90828416Y-97473430D01*
X90828403Y-97473423D01*
X90682732Y-97413085D01*
X90682720Y-97413082D01*
X90528076Y-97382321D01*
X90528073Y-97382321D01*
X90370389Y-97382321D01*
X90370386Y-97382321D01*
X90215741Y-97413082D01*
X90215729Y-97413085D01*
X90070058Y-97473423D01*
X90070045Y-97473430D01*
X89938942Y-97561031D01*
X89938938Y-97561034D01*
X89827444Y-97672528D01*
X89827441Y-97672532D01*
X89739840Y-97803635D01*
X89739833Y-97803648D01*
X89679495Y-97949319D01*
X89679492Y-97949331D01*
X89648731Y-98103974D01*
X86190743Y-98103974D01*
X86133501Y-98080264D01*
X86133489Y-98080261D01*
X85978845Y-98049500D01*
X85978842Y-98049500D01*
X85821158Y-98049500D01*
X85821155Y-98049500D01*
X85666510Y-98080261D01*
X85666498Y-98080264D01*
X85520827Y-98140602D01*
X85520814Y-98140609D01*
X85389711Y-98228210D01*
X85389707Y-98228213D01*
X85278213Y-98339707D01*
X85278210Y-98339711D01*
X85190609Y-98470814D01*
X85190602Y-98470827D01*
X85130264Y-98616498D01*
X85130261Y-98616510D01*
X85099500Y-98771153D01*
X81607499Y-98771153D01*
X81576738Y-98616510D01*
X81576737Y-98616503D01*
X81554164Y-98562006D01*
X81516397Y-98470827D01*
X81516390Y-98470814D01*
X81428789Y-98339711D01*
X81428786Y-98339707D01*
X81317292Y-98228213D01*
X81317288Y-98228210D01*
X81186185Y-98140609D01*
X81186172Y-98140602D01*
X81040501Y-98080264D01*
X81040489Y-98080261D01*
X80885845Y-98049500D01*
X80885842Y-98049500D01*
X80728158Y-98049500D01*
X80728155Y-98049500D01*
X80573510Y-98080261D01*
X80573498Y-98080264D01*
X80427827Y-98140602D01*
X80427814Y-98140609D01*
X80296711Y-98228210D01*
X80296707Y-98228213D01*
X80185213Y-98339707D01*
X80185210Y-98339711D01*
X80097609Y-98470814D01*
X80097602Y-98470827D01*
X80037264Y-98616498D01*
X80037261Y-98616510D01*
X80006500Y-98771153D01*
X78893784Y-98771153D01*
X78915958Y-98717621D01*
X78915958Y-98717619D01*
X78919737Y-98708497D01*
X78950500Y-98553842D01*
X78950500Y-98396158D01*
X78950500Y-98396155D01*
X78950499Y-98396153D01*
X78930734Y-98296789D01*
X78919737Y-98241503D01*
X78890861Y-98171789D01*
X78859397Y-98095827D01*
X78859390Y-98095814D01*
X78771789Y-97964711D01*
X78771786Y-97964707D01*
X78660292Y-97853213D01*
X78660288Y-97853210D01*
X78529185Y-97765609D01*
X78529172Y-97765602D01*
X78383501Y-97705264D01*
X78383489Y-97705261D01*
X78228845Y-97674500D01*
X78228842Y-97674500D01*
X78071158Y-97674500D01*
X78071155Y-97674500D01*
X77916510Y-97705261D01*
X77916498Y-97705264D01*
X77770827Y-97765602D01*
X77770814Y-97765609D01*
X77639711Y-97853210D01*
X77639707Y-97853213D01*
X77528213Y-97964707D01*
X77528210Y-97964711D01*
X77440609Y-98095814D01*
X77440602Y-98095827D01*
X77380264Y-98241498D01*
X77380261Y-98241510D01*
X77349500Y-98396153D01*
X57723955Y-98396153D01*
X57705109Y-98370213D01*
X57554792Y-98219896D01*
X57554784Y-98219890D01*
X57390204Y-98100316D01*
X57347540Y-98044989D01*
X57341561Y-97975376D01*
X57374166Y-97913580D01*
X57390199Y-97899686D01*
X57554792Y-97780104D01*
X57705104Y-97629792D01*
X57705106Y-97629788D01*
X57705109Y-97629786D01*
X57818712Y-97473423D01*
X57820361Y-97471153D01*
X62699500Y-97471153D01*
X62699500Y-97628846D01*
X62730261Y-97783489D01*
X62730264Y-97783501D01*
X62790602Y-97929172D01*
X62790609Y-97929185D01*
X62878210Y-98060288D01*
X62878213Y-98060292D01*
X62989707Y-98171786D01*
X62989711Y-98171789D01*
X63120814Y-98259390D01*
X63120827Y-98259397D01*
X63211101Y-98296789D01*
X63266503Y-98319737D01*
X63375279Y-98341374D01*
X63421153Y-98350499D01*
X63421156Y-98350500D01*
X63421158Y-98350500D01*
X63578844Y-98350500D01*
X63578845Y-98350499D01*
X63733497Y-98319737D01*
X63791710Y-98295624D01*
X63840284Y-98275505D01*
X63879173Y-98259397D01*
X63879176Y-98259395D01*
X63879179Y-98259394D01*
X64010289Y-98171789D01*
X64121789Y-98060289D01*
X64209394Y-97929179D01*
X64212166Y-97922488D01*
X64261390Y-97803648D01*
X64269737Y-97783497D01*
X64300500Y-97628842D01*
X64300500Y-97596153D01*
X82249500Y-97596153D01*
X82249500Y-97753846D01*
X82280261Y-97908489D01*
X82280264Y-97908501D01*
X82340602Y-98054172D01*
X82340609Y-98054185D01*
X82428210Y-98185288D01*
X82428213Y-98185292D01*
X82539707Y-98296786D01*
X82539711Y-98296789D01*
X82670814Y-98384390D01*
X82670827Y-98384397D01*
X82816498Y-98444735D01*
X82816503Y-98444737D01*
X82971153Y-98475499D01*
X82971156Y-98475500D01*
X82971158Y-98475500D01*
X83128844Y-98475500D01*
X83128845Y-98475499D01*
X83283497Y-98444737D01*
X83429179Y-98384394D01*
X83462315Y-98362252D01*
X83528991Y-98341374D01*
X83589648Y-98358013D01*
X83590446Y-98356521D01*
X83595827Y-98359397D01*
X83733229Y-98416310D01*
X83741503Y-98419737D01*
X83867176Y-98444735D01*
X83896153Y-98450499D01*
X83896156Y-98450500D01*
X83896158Y-98450500D01*
X84053844Y-98450500D01*
X84053845Y-98450499D01*
X84208497Y-98419737D01*
X84328059Y-98370213D01*
X84354172Y-98359397D01*
X84354172Y-98359396D01*
X84354179Y-98359394D01*
X84485289Y-98271789D01*
X84596789Y-98160289D01*
X84684394Y-98029179D01*
X84744737Y-97883497D01*
X84775500Y-97728842D01*
X84775500Y-97571158D01*
X84775500Y-97571155D01*
X84775499Y-97571153D01*
X84763222Y-97509432D01*
X84744737Y-97416503D01*
X84737694Y-97399500D01*
X84684397Y-97270827D01*
X84684390Y-97270814D01*
X84596789Y-97139711D01*
X84596786Y-97139707D01*
X84485292Y-97028213D01*
X84485288Y-97028210D01*
X84354185Y-96940609D01*
X84354172Y-96940602D01*
X84208501Y-96880264D01*
X84208489Y-96880261D01*
X84053845Y-96849500D01*
X84053842Y-96849500D01*
X83896158Y-96849500D01*
X83896155Y-96849500D01*
X83741510Y-96880261D01*
X83741498Y-96880264D01*
X83595828Y-96940602D01*
X83595819Y-96940607D01*
X83562681Y-96962749D01*
X83496003Y-96983625D01*
X83435352Y-96966985D01*
X83434554Y-96968479D01*
X83429172Y-96965602D01*
X83283501Y-96905264D01*
X83283489Y-96905261D01*
X83128845Y-96874500D01*
X83128842Y-96874500D01*
X82971158Y-96874500D01*
X82971155Y-96874500D01*
X82816510Y-96905261D01*
X82816498Y-96905264D01*
X82670827Y-96965602D01*
X82670814Y-96965609D01*
X82539711Y-97053210D01*
X82539707Y-97053213D01*
X82428213Y-97164707D01*
X82428210Y-97164711D01*
X82340609Y-97295814D01*
X82340602Y-97295827D01*
X82280264Y-97441498D01*
X82280261Y-97441510D01*
X82249500Y-97596153D01*
X64300500Y-97596153D01*
X64300500Y-97471158D01*
X64300500Y-97471155D01*
X64300499Y-97471153D01*
X64294600Y-97441498D01*
X64269737Y-97316503D01*
X64261170Y-97295821D01*
X64209397Y-97170827D01*
X64209390Y-97170814D01*
X64121789Y-97039711D01*
X64121786Y-97039707D01*
X64010292Y-96928213D01*
X64010288Y-96928210D01*
X63879185Y-96840609D01*
X63879172Y-96840602D01*
X63733501Y-96780264D01*
X63733489Y-96780261D01*
X63578845Y-96749500D01*
X63578842Y-96749500D01*
X63421158Y-96749500D01*
X63421155Y-96749500D01*
X63266510Y-96780261D01*
X63266498Y-96780264D01*
X63120827Y-96840602D01*
X63120814Y-96840609D01*
X62989711Y-96928210D01*
X62989707Y-96928213D01*
X62878213Y-97039707D01*
X62878210Y-97039711D01*
X62790609Y-97170814D01*
X62790602Y-97170827D01*
X62730264Y-97316498D01*
X62730261Y-97316510D01*
X62699500Y-97471153D01*
X57820361Y-97471153D01*
X57830051Y-97457816D01*
X57840940Y-97436446D01*
X57855042Y-97408770D01*
X57912591Y-97295821D01*
X57926557Y-97268412D01*
X57992246Y-97066243D01*
X58025500Y-96856287D01*
X58025500Y-96643713D01*
X57992246Y-96433757D01*
X57926557Y-96231588D01*
X57830051Y-96042184D01*
X57830049Y-96042181D01*
X57830048Y-96042179D01*
X57705109Y-95870213D01*
X57566294Y-95731398D01*
X57533398Y-95671153D01*
X65574500Y-95671153D01*
X65574500Y-95828846D01*
X65605261Y-95983489D01*
X65605264Y-95983501D01*
X65665602Y-96129172D01*
X65665609Y-96129185D01*
X65753210Y-96260288D01*
X65753213Y-96260292D01*
X65864707Y-96371786D01*
X65864711Y-96371789D01*
X65995814Y-96459390D01*
X65995827Y-96459397D01*
X66111919Y-96507483D01*
X66141503Y-96519737D01*
X66296153Y-96550499D01*
X66296156Y-96550500D01*
X66296158Y-96550500D01*
X66453844Y-96550500D01*
X66453845Y-96550499D01*
X66608497Y-96519737D01*
X66754179Y-96459394D01*
X66885289Y-96371789D01*
X66996789Y-96260289D01*
X67084394Y-96129179D01*
X67144737Y-95983497D01*
X67175500Y-95828842D01*
X67175500Y-95671158D01*
X67175500Y-95671155D01*
X67159209Y-95589258D01*
X67159209Y-95589257D01*
X67155608Y-95571153D01*
X74749500Y-95571153D01*
X74749500Y-95728846D01*
X74780261Y-95883489D01*
X74780264Y-95883501D01*
X74840602Y-96029172D01*
X74840609Y-96029185D01*
X74928210Y-96160288D01*
X74928213Y-96160292D01*
X75039707Y-96271786D01*
X75039711Y-96271789D01*
X75170814Y-96359390D01*
X75170827Y-96359397D01*
X75316498Y-96419735D01*
X75316503Y-96419737D01*
X75458002Y-96447883D01*
X75471153Y-96450499D01*
X75471156Y-96450500D01*
X75471158Y-96450500D01*
X75628844Y-96450500D01*
X75628845Y-96450499D01*
X75783497Y-96419737D01*
X75929179Y-96359394D01*
X76060289Y-96271789D01*
X76171789Y-96160289D01*
X76259394Y-96029179D01*
X76319737Y-95883497D01*
X76350500Y-95728842D01*
X76350500Y-95571158D01*
X76350500Y-95571155D01*
X76350499Y-95571153D01*
X76326499Y-95450499D01*
X76319737Y-95416503D01*
X76295093Y-95357007D01*
X76270853Y-95298485D01*
X76263384Y-95229016D01*
X76270851Y-95203584D01*
X76320594Y-95083495D01*
X76351357Y-94928840D01*
X76351357Y-94771156D01*
X76351357Y-94771153D01*
X76351356Y-94771151D01*
X76339250Y-94710289D01*
X76320594Y-94616501D01*
X76320592Y-94616496D01*
X76260254Y-94470825D01*
X76260247Y-94470812D01*
X76172646Y-94339709D01*
X76172643Y-94339705D01*
X76061146Y-94228208D01*
X76046119Y-94218168D01*
X75930042Y-94140607D01*
X75930029Y-94140600D01*
X75883079Y-94121153D01*
X84199500Y-94121153D01*
X84199500Y-94278846D01*
X84230261Y-94433489D01*
X84230264Y-94433501D01*
X84290602Y-94579172D01*
X84290609Y-94579185D01*
X84378210Y-94710288D01*
X84378213Y-94710292D01*
X84489707Y-94821786D01*
X84489711Y-94821789D01*
X84620814Y-94909390D01*
X84620827Y-94909397D01*
X84717646Y-94949500D01*
X84766503Y-94969737D01*
X84921153Y-95000499D01*
X84921156Y-95000500D01*
X84921158Y-95000500D01*
X85078844Y-95000500D01*
X85078845Y-95000499D01*
X85233497Y-94969737D01*
X85379179Y-94909394D01*
X85510289Y-94821789D01*
X85621789Y-94710289D01*
X85709394Y-94579179D01*
X85769737Y-94433497D01*
X85800500Y-94278842D01*
X85800500Y-94121158D01*
X85800500Y-94121155D01*
X85800499Y-94121153D01*
X85772192Y-93978846D01*
X85769737Y-93966503D01*
X85709534Y-93821158D01*
X85709397Y-93820827D01*
X85709390Y-93820814D01*
X85621789Y-93689711D01*
X85621786Y-93689707D01*
X85510292Y-93578213D01*
X85510288Y-93578210D01*
X85379185Y-93490609D01*
X85379172Y-93490602D01*
X85233501Y-93430264D01*
X85233489Y-93430261D01*
X85078845Y-93399500D01*
X85078842Y-93399500D01*
X84921158Y-93399500D01*
X84921155Y-93399500D01*
X84766510Y-93430261D01*
X84766498Y-93430264D01*
X84620827Y-93490602D01*
X84620814Y-93490609D01*
X84489711Y-93578210D01*
X84489707Y-93578213D01*
X84378213Y-93689707D01*
X84378210Y-93689711D01*
X84290609Y-93820814D01*
X84290602Y-93820827D01*
X84230264Y-93966498D01*
X84230261Y-93966510D01*
X84199500Y-94121153D01*
X75883079Y-94121153D01*
X75784358Y-94080262D01*
X75784346Y-94080259D01*
X75629702Y-94049498D01*
X75629699Y-94049498D01*
X75472015Y-94049498D01*
X75472012Y-94049498D01*
X75317367Y-94080259D01*
X75317355Y-94080262D01*
X75171684Y-94140600D01*
X75171671Y-94140607D01*
X75040568Y-94228208D01*
X75040564Y-94228211D01*
X74929070Y-94339705D01*
X74929067Y-94339709D01*
X74841466Y-94470812D01*
X74841459Y-94470825D01*
X74781121Y-94616496D01*
X74781118Y-94616508D01*
X74750357Y-94771151D01*
X74750357Y-94928844D01*
X74781118Y-95083487D01*
X74781121Y-95083499D01*
X74830003Y-95201512D01*
X74837472Y-95270981D01*
X74830004Y-95296416D01*
X74780263Y-95416503D01*
X74780262Y-95416506D01*
X74780262Y-95416507D01*
X74780261Y-95416510D01*
X74749500Y-95571153D01*
X67155608Y-95571153D01*
X67144738Y-95516510D01*
X67144737Y-95516503D01*
X67117398Y-95450500D01*
X67084397Y-95370827D01*
X67084390Y-95370814D01*
X66996789Y-95239711D01*
X66996786Y-95239707D01*
X66885292Y-95128213D01*
X66885288Y-95128210D01*
X66754185Y-95040609D01*
X66754172Y-95040602D01*
X66608501Y-94980264D01*
X66608489Y-94980261D01*
X66453845Y-94949500D01*
X66453842Y-94949500D01*
X66296158Y-94949500D01*
X66296155Y-94949500D01*
X66141510Y-94980261D01*
X66141498Y-94980264D01*
X65995827Y-95040602D01*
X65995814Y-95040609D01*
X65864711Y-95128210D01*
X65864707Y-95128213D01*
X65753213Y-95239707D01*
X65753210Y-95239711D01*
X65665609Y-95370814D01*
X65665602Y-95370827D01*
X65605264Y-95516498D01*
X65605261Y-95516510D01*
X65574500Y-95671153D01*
X57533398Y-95671153D01*
X57532809Y-95670075D01*
X57537793Y-95600383D01*
X57579665Y-95544450D01*
X57588879Y-95538178D01*
X57594331Y-95534814D01*
X57594334Y-95534814D01*
X57743656Y-95442712D01*
X57867712Y-95318656D01*
X57959814Y-95169334D01*
X58014999Y-95002797D01*
X58025500Y-94900009D01*
X58025499Y-93599992D01*
X58025158Y-93596658D01*
X58014999Y-93497203D01*
X58014998Y-93497200D01*
X58005673Y-93469058D01*
X57959814Y-93330666D01*
X57867712Y-93181344D01*
X57743656Y-93057288D01*
X57594334Y-92965186D01*
X57427797Y-92910001D01*
X57427795Y-92910000D01*
X57325010Y-92899500D01*
X55774998Y-92899500D01*
X55774981Y-92899501D01*
X55672203Y-92910000D01*
X55672200Y-92910001D01*
X55505668Y-92965185D01*
X55505663Y-92965187D01*
X55356342Y-93057289D01*
X55232289Y-93181342D01*
X55140187Y-93330663D01*
X55140185Y-93330668D01*
X55133945Y-93349500D01*
X55085001Y-93497203D01*
X55085001Y-93497204D01*
X55085000Y-93497204D01*
X55074500Y-93599983D01*
X49382495Y-93599983D01*
X49388216Y-89577135D01*
X61549500Y-89577135D01*
X61549500Y-91372870D01*
X61549501Y-91372876D01*
X61555908Y-91432483D01*
X61606202Y-91567328D01*
X61606206Y-91567335D01*
X61692452Y-91682544D01*
X61692455Y-91682547D01*
X61807664Y-91768793D01*
X61807671Y-91768797D01*
X61939082Y-91817810D01*
X61995016Y-91859681D01*
X62019433Y-91925145D01*
X62004582Y-91993418D01*
X61983431Y-92021673D01*
X61869889Y-92135215D01*
X61744951Y-92307179D01*
X61648444Y-92496585D01*
X61582753Y-92698760D01*
X61559343Y-92846566D01*
X61549500Y-92908713D01*
X61549500Y-93121287D01*
X61550873Y-93129954D01*
X61582662Y-93330666D01*
X61582754Y-93331243D01*
X61636678Y-93497204D01*
X61648444Y-93533414D01*
X61744951Y-93722820D01*
X61869890Y-93894786D01*
X62020213Y-94045109D01*
X62192179Y-94170048D01*
X62192181Y-94170049D01*
X62192184Y-94170051D01*
X62381588Y-94266557D01*
X62583757Y-94332246D01*
X62793713Y-94365500D01*
X62793714Y-94365500D01*
X63006286Y-94365500D01*
X63006287Y-94365500D01*
X63216243Y-94332246D01*
X63418412Y-94266557D01*
X63607816Y-94170051D01*
X63635414Y-94150000D01*
X63779786Y-94045109D01*
X63779788Y-94045106D01*
X63779792Y-94045104D01*
X63930104Y-93894792D01*
X63983605Y-93821153D01*
X64674500Y-93821153D01*
X64674500Y-93978846D01*
X64705261Y-94133489D01*
X64705264Y-94133501D01*
X64765602Y-94279172D01*
X64765609Y-94279185D01*
X64853210Y-94410288D01*
X64853213Y-94410292D01*
X64964707Y-94521786D01*
X64964711Y-94521789D01*
X65095814Y-94609390D01*
X65095827Y-94609397D01*
X65193853Y-94650000D01*
X65241503Y-94669737D01*
X65396153Y-94700499D01*
X65396156Y-94700500D01*
X65396158Y-94700500D01*
X65553844Y-94700500D01*
X65553845Y-94700499D01*
X65708497Y-94669737D01*
X65854179Y-94609394D01*
X65985289Y-94521789D01*
X66096789Y-94410289D01*
X66184394Y-94279179D01*
X66244737Y-94133497D01*
X66275500Y-93978842D01*
X66275500Y-93821158D01*
X66275500Y-93821155D01*
X66275499Y-93821153D01*
X66249353Y-93689711D01*
X66244737Y-93666503D01*
X66217190Y-93599998D01*
X66184397Y-93520827D01*
X66184390Y-93520814D01*
X66096789Y-93389711D01*
X66096786Y-93389707D01*
X65985292Y-93278213D01*
X65985288Y-93278210D01*
X65854185Y-93190609D01*
X65854172Y-93190602D01*
X65708501Y-93130264D01*
X65708489Y-93130261D01*
X65553845Y-93099500D01*
X65553842Y-93099500D01*
X65396158Y-93099500D01*
X65396155Y-93099500D01*
X65241510Y-93130261D01*
X65241498Y-93130264D01*
X65095827Y-93190602D01*
X65095814Y-93190609D01*
X64964711Y-93278210D01*
X64964707Y-93278213D01*
X64853213Y-93389707D01*
X64853210Y-93389711D01*
X64765609Y-93520814D01*
X64765602Y-93520827D01*
X64705264Y-93666498D01*
X64705261Y-93666510D01*
X64674500Y-93821153D01*
X63983605Y-93821153D01*
X64055051Y-93722816D01*
X64151557Y-93533412D01*
X64217246Y-93331243D01*
X64250500Y-93121287D01*
X64250500Y-92908713D01*
X64217246Y-92698757D01*
X64151557Y-92496588D01*
X64055051Y-92307184D01*
X64055049Y-92307181D01*
X64055048Y-92307179D01*
X63930109Y-92135213D01*
X63816569Y-92021673D01*
X63783084Y-91960350D01*
X63788068Y-91890658D01*
X63829940Y-91834725D01*
X63860915Y-91817810D01*
X63992331Y-91768796D01*
X64107546Y-91682546D01*
X64193796Y-91567331D01*
X64244091Y-91432483D01*
X64250500Y-91372873D01*
X64250499Y-89577128D01*
X64244091Y-89517517D01*
X64229430Y-89478210D01*
X64193797Y-89382671D01*
X64193793Y-89382664D01*
X64107547Y-89267455D01*
X64107544Y-89267452D01*
X63992335Y-89181206D01*
X63992328Y-89181202D01*
X63857482Y-89130908D01*
X63857483Y-89130908D01*
X63797883Y-89124501D01*
X63797881Y-89124500D01*
X63797873Y-89124500D01*
X63797864Y-89124500D01*
X62002129Y-89124500D01*
X62002123Y-89124501D01*
X61942516Y-89130908D01*
X61807671Y-89181202D01*
X61807664Y-89181206D01*
X61692455Y-89267452D01*
X61692452Y-89267455D01*
X61606206Y-89382664D01*
X61606202Y-89382671D01*
X61555908Y-89517517D01*
X61549876Y-89573630D01*
X61549501Y-89577123D01*
X61549500Y-89577135D01*
X49388216Y-89577135D01*
X49389469Y-88696153D01*
X66699500Y-88696153D01*
X66699500Y-88853846D01*
X66730261Y-89008489D01*
X66730264Y-89008501D01*
X66790602Y-89154172D01*
X66790609Y-89154185D01*
X66878210Y-89285288D01*
X66878213Y-89285292D01*
X66989707Y-89396786D01*
X66989711Y-89396789D01*
X67106044Y-89474521D01*
X67150849Y-89528133D01*
X67159556Y-89597458D01*
X67140256Y-89646513D01*
X67090608Y-89720816D01*
X67090602Y-89720827D01*
X67030264Y-89866498D01*
X67030261Y-89866510D01*
X66999500Y-90021153D01*
X66999500Y-90178846D01*
X67030261Y-90333489D01*
X67030264Y-90333501D01*
X67090602Y-90479172D01*
X67090609Y-90479185D01*
X67178210Y-90610288D01*
X67178213Y-90610292D01*
X67289707Y-90721786D01*
X67289711Y-90721789D01*
X67420814Y-90809390D01*
X67420827Y-90809397D01*
X67566498Y-90869735D01*
X67566503Y-90869737D01*
X67721153Y-90900499D01*
X67721156Y-90900500D01*
X67721158Y-90900500D01*
X67878844Y-90900500D01*
X67878845Y-90900499D01*
X68033497Y-90869737D01*
X68179179Y-90809394D01*
X68310289Y-90721789D01*
X68421789Y-90610289D01*
X68509394Y-90479179D01*
X68510713Y-90475996D01*
X68569735Y-90333501D01*
X68569737Y-90333497D01*
X68600500Y-90178842D01*
X68600500Y-90021158D01*
X68600500Y-90021155D01*
X68600499Y-90021153D01*
X68579932Y-89917758D01*
X68569737Y-89866503D01*
X68534697Y-89781908D01*
X68509397Y-89720827D01*
X68509390Y-89720814D01*
X68421789Y-89589711D01*
X68421786Y-89589707D01*
X68310292Y-89478213D01*
X68310288Y-89478210D01*
X68193955Y-89400478D01*
X68188149Y-89393531D01*
X68179983Y-89389624D01*
X68166094Y-89367140D01*
X68149150Y-89346865D01*
X68148021Y-89337883D01*
X68143264Y-89330181D01*
X68143736Y-89303758D01*
X68140443Y-89277540D01*
X68144383Y-89267525D01*
X68144512Y-89260322D01*
X68151533Y-89245646D01*
X92499500Y-89245646D01*
X92499500Y-89474354D01*
X92511265Y-89548632D01*
X92535278Y-89700246D01*
X92535278Y-89700249D01*
X92605950Y-89917755D01*
X92657077Y-90018097D01*
X92709783Y-90121538D01*
X92844214Y-90306566D01*
X93005934Y-90468286D01*
X93075423Y-90518773D01*
X93090438Y-90529682D01*
X93133103Y-90585013D01*
X93139082Y-90654626D01*
X93106476Y-90716421D01*
X93090438Y-90730318D01*
X93005932Y-90791715D01*
X92844216Y-90953431D01*
X92844216Y-90953432D01*
X92844214Y-90953434D01*
X92786480Y-91032896D01*
X92709783Y-91138461D01*
X92605950Y-91342244D01*
X92535278Y-91559750D01*
X92535278Y-91559753D01*
X92499500Y-91785646D01*
X92499500Y-92014353D01*
X92535278Y-92240246D01*
X92535278Y-92240249D01*
X92605950Y-92457755D01*
X92681417Y-92605866D01*
X92709783Y-92661538D01*
X92842525Y-92844242D01*
X92866005Y-92910046D01*
X92850180Y-92978100D01*
X92800074Y-93026795D01*
X92785541Y-93033308D01*
X92757670Y-93043703D01*
X92757664Y-93043706D01*
X92642455Y-93129952D01*
X92642452Y-93129955D01*
X92556206Y-93245164D01*
X92556202Y-93245171D01*
X92505908Y-93380017D01*
X92499501Y-93439616D01*
X92499501Y-93439623D01*
X92499500Y-93439635D01*
X92499500Y-95440370D01*
X92499501Y-95440376D01*
X92505908Y-95499983D01*
X92556202Y-95634828D01*
X92556206Y-95634835D01*
X92642452Y-95750044D01*
X92642455Y-95750047D01*
X92757664Y-95836293D01*
X92757671Y-95836297D01*
X92892517Y-95886591D01*
X92892516Y-95886591D01*
X92899444Y-95887335D01*
X92952127Y-95893000D01*
X95047872Y-95892999D01*
X95107483Y-95886591D01*
X95242331Y-95836296D01*
X95357546Y-95750046D01*
X95443796Y-95634831D01*
X95494091Y-95499983D01*
X95500500Y-95440373D01*
X95500499Y-93439628D01*
X95494091Y-93380017D01*
X95482858Y-93349901D01*
X95443797Y-93245171D01*
X95443793Y-93245164D01*
X95357547Y-93129955D01*
X95357544Y-93129952D01*
X95242335Y-93043706D01*
X95242328Y-93043702D01*
X95214459Y-93033308D01*
X95158525Y-92991437D01*
X95134108Y-92925973D01*
X95148960Y-92857700D01*
X95157460Y-92844260D01*
X95290217Y-92661538D01*
X95394048Y-92457758D01*
X95428367Y-92352135D01*
X98299500Y-92352135D01*
X98299500Y-96447870D01*
X98299501Y-96447876D01*
X98305908Y-96507483D01*
X98356202Y-96642328D01*
X98356206Y-96642335D01*
X98442452Y-96757544D01*
X98442455Y-96757547D01*
X98557664Y-96843793D01*
X98557671Y-96843797D01*
X98692517Y-96894091D01*
X98692516Y-96894091D01*
X98699444Y-96894835D01*
X98752127Y-96900500D01*
X100847872Y-96900499D01*
X100907483Y-96894091D01*
X101042331Y-96843796D01*
X101157546Y-96757546D01*
X101243796Y-96642331D01*
X101294091Y-96507483D01*
X101300500Y-96447873D01*
X101300499Y-93631947D01*
X104300000Y-93631947D01*
X104300000Y-94150000D01*
X105300000Y-94150000D01*
X105300000Y-94650000D01*
X104300000Y-94650000D01*
X104300000Y-95168052D01*
X104336934Y-95401247D01*
X104409897Y-95625802D01*
X104517085Y-95836171D01*
X104655866Y-96027186D01*
X104822813Y-96194133D01*
X105013828Y-96332914D01*
X105224195Y-96440102D01*
X105448744Y-96513063D01*
X105448750Y-96513065D01*
X105550000Y-96529101D01*
X105550000Y-95483012D01*
X105607007Y-95515925D01*
X105734174Y-95550000D01*
X105865826Y-95550000D01*
X105992993Y-95515925D01*
X106050000Y-95483012D01*
X106050000Y-96529100D01*
X106151249Y-96513065D01*
X106151255Y-96513063D01*
X106375804Y-96440102D01*
X106586171Y-96332914D01*
X106777186Y-96194133D01*
X106944133Y-96027186D01*
X107082914Y-95836171D01*
X107190102Y-95625802D01*
X107263065Y-95401247D01*
X107300000Y-95168052D01*
X107300000Y-94650000D01*
X106300000Y-94650000D01*
X106300000Y-94296530D01*
X107749500Y-94296530D01*
X107749500Y-94503469D01*
X107788692Y-94700499D01*
X107789870Y-94706420D01*
X107869059Y-94897598D01*
X107889937Y-94928844D01*
X107984024Y-95069657D01*
X108130342Y-95215975D01*
X108130345Y-95215977D01*
X108302402Y-95330941D01*
X108493580Y-95410130D01*
X108657382Y-95442712D01*
X108696530Y-95450499D01*
X108696534Y-95450500D01*
X108696535Y-95450500D01*
X108903466Y-95450500D01*
X108903467Y-95450499D01*
X109106420Y-95410130D01*
X109297598Y-95330941D01*
X109469655Y-95215977D01*
X109615977Y-95069655D01*
X109730941Y-94897598D01*
X109810130Y-94706420D01*
X109850500Y-94503465D01*
X109850500Y-94296535D01*
X109810130Y-94093580D01*
X109730941Y-93902402D01*
X109615977Y-93730345D01*
X109615975Y-93730342D01*
X109469657Y-93584024D01*
X109329850Y-93490609D01*
X109297598Y-93469059D01*
X109234669Y-93442993D01*
X109106420Y-93389870D01*
X109106412Y-93389868D01*
X108903469Y-93349500D01*
X108903465Y-93349500D01*
X108696535Y-93349500D01*
X108696530Y-93349500D01*
X108493587Y-93389868D01*
X108493579Y-93389870D01*
X108302403Y-93469058D01*
X108130342Y-93584024D01*
X107984024Y-93730342D01*
X107869058Y-93902403D01*
X107789870Y-94093579D01*
X107789868Y-94093587D01*
X107749500Y-94296530D01*
X106300000Y-94296530D01*
X106300000Y-94150000D01*
X107300000Y-94150000D01*
X107300000Y-93631947D01*
X107263065Y-93398752D01*
X107190102Y-93174197D01*
X107082914Y-92963828D01*
X106944133Y-92772813D01*
X106777186Y-92605866D01*
X106586171Y-92467085D01*
X106375802Y-92359897D01*
X106151247Y-92286934D01*
X106050000Y-92270897D01*
X106050000Y-93316988D01*
X105992993Y-93284075D01*
X105865826Y-93250000D01*
X105734174Y-93250000D01*
X105607007Y-93284075D01*
X105550000Y-93316988D01*
X105550000Y-92270897D01*
X105448752Y-92286934D01*
X105224197Y-92359897D01*
X105013828Y-92467085D01*
X104822813Y-92605866D01*
X104655866Y-92772813D01*
X104517085Y-92963828D01*
X104409897Y-93174197D01*
X104336934Y-93398752D01*
X104300000Y-93631947D01*
X101300499Y-93631947D01*
X101300499Y-92352128D01*
X101294091Y-92292517D01*
X101286027Y-92270897D01*
X101243797Y-92157671D01*
X101243793Y-92157664D01*
X101157547Y-92042455D01*
X101157544Y-92042452D01*
X101042335Y-91956206D01*
X101042328Y-91956202D01*
X100907482Y-91905908D01*
X100907483Y-91905908D01*
X100847883Y-91899501D01*
X100847881Y-91899500D01*
X100847873Y-91899500D01*
X100847864Y-91899500D01*
X98752129Y-91899500D01*
X98752123Y-91899501D01*
X98692516Y-91905908D01*
X98557671Y-91956202D01*
X98557664Y-91956206D01*
X98442455Y-92042452D01*
X98442452Y-92042455D01*
X98356206Y-92157664D01*
X98356202Y-92157671D01*
X98305908Y-92292517D01*
X98299501Y-92352116D01*
X98299501Y-92352123D01*
X98299500Y-92352135D01*
X95428367Y-92352135D01*
X95428369Y-92352128D01*
X95441899Y-92310488D01*
X95441899Y-92310487D01*
X95464722Y-92240245D01*
X95500500Y-92014353D01*
X95500500Y-91785646D01*
X95497831Y-91768793D01*
X95464722Y-91559755D01*
X95464721Y-91559751D01*
X95464721Y-91559750D01*
X95394049Y-91342244D01*
X95290216Y-91138461D01*
X95155786Y-90953434D01*
X94994066Y-90791714D01*
X94909559Y-90730316D01*
X94866896Y-90674988D01*
X94860917Y-90605375D01*
X94893523Y-90543580D01*
X94909556Y-90529685D01*
X94994066Y-90468286D01*
X95155786Y-90306566D01*
X95290217Y-90121538D01*
X95394048Y-89917758D01*
X95394049Y-89917755D01*
X95438191Y-89781902D01*
X104549500Y-89781902D01*
X104549500Y-90018097D01*
X104586446Y-90251368D01*
X104659433Y-90475996D01*
X104751804Y-90657283D01*
X104766657Y-90686433D01*
X104905483Y-90877510D01*
X105072490Y-91044517D01*
X105263567Y-91183343D01*
X105362991Y-91234002D01*
X105474003Y-91290566D01*
X105474005Y-91290566D01*
X105474008Y-91290568D01*
X105594412Y-91329689D01*
X105698631Y-91363553D01*
X105931903Y-91400500D01*
X105931908Y-91400500D01*
X107668097Y-91400500D01*
X107901368Y-91363553D01*
X107966956Y-91342242D01*
X108125992Y-91290568D01*
X108336433Y-91183343D01*
X108527510Y-91044517D01*
X108694517Y-90877510D01*
X108833343Y-90686433D01*
X108940568Y-90475992D01*
X109013553Y-90251368D01*
X109050500Y-90018097D01*
X109050500Y-89781902D01*
X109013553Y-89548631D01*
X108959628Y-89382669D01*
X108940568Y-89324008D01*
X108940566Y-89324005D01*
X108940566Y-89324003D01*
X108842179Y-89130909D01*
X108833343Y-89113567D01*
X108694517Y-88922490D01*
X108527510Y-88755483D01*
X108336433Y-88616657D01*
X108125996Y-88509433D01*
X107901368Y-88436446D01*
X107668097Y-88399500D01*
X107668092Y-88399500D01*
X105931908Y-88399500D01*
X105931903Y-88399500D01*
X105698631Y-88436446D01*
X105474003Y-88509433D01*
X105263566Y-88616657D01*
X105169105Y-88685288D01*
X105072490Y-88755483D01*
X105072488Y-88755485D01*
X105072487Y-88755485D01*
X104905485Y-88922487D01*
X104905485Y-88922488D01*
X104905483Y-88922490D01*
X104889321Y-88944735D01*
X104766657Y-89113566D01*
X104659433Y-89324003D01*
X104586446Y-89548631D01*
X104549500Y-89781902D01*
X95438191Y-89781902D01*
X95452222Y-89738718D01*
X95464721Y-89700249D01*
X95464721Y-89700248D01*
X95464722Y-89700245D01*
X95500500Y-89474354D01*
X95500500Y-89245646D01*
X95464722Y-89019755D01*
X95464721Y-89019751D01*
X95464721Y-89019750D01*
X95394049Y-88802244D01*
X95370223Y-88755483D01*
X95290217Y-88598462D01*
X95155786Y-88413434D01*
X94994066Y-88251714D01*
X94809038Y-88117283D01*
X94605255Y-88013450D01*
X94387748Y-87942778D01*
X94204781Y-87913799D01*
X94161854Y-87907000D01*
X93838146Y-87907000D01*
X93795207Y-87913801D01*
X93612253Y-87942778D01*
X93612250Y-87942778D01*
X93394744Y-88013450D01*
X93190961Y-88117283D01*
X93085396Y-88193980D01*
X93005934Y-88251714D01*
X93005932Y-88251716D01*
X93005931Y-88251716D01*
X92844216Y-88413431D01*
X92844216Y-88413432D01*
X92844214Y-88413434D01*
X92827495Y-88436446D01*
X92709783Y-88598461D01*
X92605950Y-88802244D01*
X92535278Y-89019750D01*
X92535278Y-89019753D01*
X92511183Y-89171882D01*
X92499500Y-89245646D01*
X68151533Y-89245646D01*
X68159741Y-89228488D01*
X68209394Y-89154179D01*
X68269737Y-89008497D01*
X68300500Y-88853842D01*
X68300500Y-88696158D01*
X68300500Y-88696155D01*
X68300499Y-88696153D01*
X68281067Y-88598462D01*
X68269737Y-88541503D01*
X68226222Y-88436447D01*
X68209397Y-88395827D01*
X68209390Y-88395814D01*
X68121789Y-88264711D01*
X68121786Y-88264707D01*
X68010292Y-88153213D01*
X68010288Y-88153210D01*
X67924897Y-88096153D01*
X89499500Y-88096153D01*
X89499500Y-88253846D01*
X89530261Y-88408489D01*
X89530264Y-88408501D01*
X89590602Y-88554172D01*
X89590609Y-88554185D01*
X89678210Y-88685288D01*
X89678213Y-88685292D01*
X89789707Y-88796786D01*
X89789711Y-88796789D01*
X89920814Y-88884390D01*
X89920827Y-88884397D01*
X90066498Y-88944735D01*
X90066503Y-88944737D01*
X90221153Y-88975499D01*
X90221156Y-88975500D01*
X90221158Y-88975500D01*
X90378844Y-88975500D01*
X90378845Y-88975499D01*
X90533497Y-88944737D01*
X90679179Y-88884394D01*
X90810289Y-88796789D01*
X90921789Y-88685289D01*
X91009394Y-88554179D01*
X91069737Y-88408497D01*
X91100500Y-88253842D01*
X91100500Y-88096158D01*
X91100500Y-88096155D01*
X91100499Y-88096153D01*
X91094422Y-88065602D01*
X91069737Y-87941503D01*
X91058262Y-87913799D01*
X91009397Y-87795827D01*
X91009390Y-87795814D01*
X90921789Y-87664711D01*
X90921786Y-87664707D01*
X90810292Y-87553213D01*
X90810288Y-87553210D01*
X90679185Y-87465609D01*
X90679172Y-87465602D01*
X90533501Y-87405264D01*
X90533489Y-87405261D01*
X90378845Y-87374500D01*
X90378842Y-87374500D01*
X90221158Y-87374500D01*
X90221155Y-87374500D01*
X90066510Y-87405261D01*
X90066498Y-87405264D01*
X89920827Y-87465602D01*
X89920814Y-87465609D01*
X89789711Y-87553210D01*
X89789707Y-87553213D01*
X89678213Y-87664707D01*
X89678210Y-87664711D01*
X89590609Y-87795814D01*
X89590602Y-87795827D01*
X89530264Y-87941498D01*
X89530261Y-87941510D01*
X89499500Y-88096153D01*
X67924897Y-88096153D01*
X67879185Y-88065609D01*
X67879172Y-88065602D01*
X67733501Y-88005264D01*
X67733489Y-88005261D01*
X67578845Y-87974500D01*
X67578842Y-87974500D01*
X67421158Y-87974500D01*
X67421155Y-87974500D01*
X67266510Y-88005261D01*
X67266498Y-88005264D01*
X67120827Y-88065602D01*
X67120814Y-88065609D01*
X66989711Y-88153210D01*
X66989707Y-88153213D01*
X66878213Y-88264707D01*
X66878210Y-88264711D01*
X66790609Y-88395814D01*
X66790602Y-88395827D01*
X66730264Y-88541498D01*
X66730261Y-88541510D01*
X66699500Y-88696153D01*
X49389469Y-88696153D01*
X49391088Y-87557544D01*
X49392274Y-86723824D01*
X49412054Y-86656812D01*
X49464923Y-86611132D01*
X49516274Y-86600000D01*
X49978315Y-86600000D01*
X50045354Y-86619685D01*
G37*
%TD.AperFunction*%
%TD*%
M02*
