%TF.GenerationSoftware,KiCad,Pcbnew,9.0.7*%
%TF.CreationDate,2026-04-22T21:57:57-04:00*%
%TF.ProjectId,Custom-ESPC5,43757374-6f6d-42d4-9553-5043352e6b69,rev?*%
%TF.SameCoordinates,Original*%
%TF.FileFunction,Soldermask,Top*%
%TF.FilePolarity,Negative*%
%FSLAX46Y46*%
G04 Gerber Fmt 4.6, Leading zero omitted, Abs format (unit mm)*
G04 Created by KiCad (PCBNEW 9.0.7) date 2026-04-22 21:57:57*
%MOMM*%
%LPD*%
G01*
G04 APERTURE LIST*
G04 Aperture macros list*
%AMRoundRect*
0 Rectangle with rounded corners*
0 $1 Rounding radius*
0 $2 $3 $4 $5 $6 $7 $8 $9 X,Y pos of 4 corners*
0 Add a 4 corners polygon primitive as box body*
4,1,4,$2,$3,$4,$5,$6,$7,$8,$9,$2,$3,0*
0 Add four circle primitives for the rounded corners*
1,1,$1+$1,$2,$3*
1,1,$1+$1,$4,$5*
1,1,$1+$1,$6,$7*
1,1,$1+$1,$8,$9*
0 Add four rect primitives between the rounded corners*
20,1,$1+$1,$2,$3,$4,$5,0*
20,1,$1+$1,$4,$5,$6,$7,0*
20,1,$1+$1,$6,$7,$8,$9,0*
20,1,$1+$1,$8,$9,$2,$3,0*%
G04 Aperture macros list end*
%ADD10R,1.050000X0.650000*%
%ADD11R,2.000000X1.905000*%
%ADD12O,2.000000X1.905000*%
%ADD13RoundRect,0.100000X-0.562500X-0.100000X0.562500X-0.100000X0.562500X0.100000X-0.562500X0.100000X0*%
%ADD14RoundRect,0.135000X-0.185000X0.135000X-0.185000X-0.135000X0.185000X-0.135000X0.185000X0.135000X0*%
%ADD15R,1.700000X1.700000*%
%ADD16C,1.700000*%
%ADD17RoundRect,0.135000X-0.135000X-0.185000X0.135000X-0.185000X0.135000X0.185000X-0.135000X0.185000X0*%
%ADD18R,1.500000X0.900000*%
%ADD19R,0.900000X1.500000*%
%ADD20C,0.600000*%
%ADD21R,3.900000X3.900000*%
%ADD22RoundRect,0.135000X0.135000X0.185000X-0.135000X0.185000X-0.135000X-0.185000X0.135000X-0.185000X0*%
%ADD23RoundRect,0.250000X-0.725000X0.600000X-0.725000X-0.600000X0.725000X-0.600000X0.725000X0.600000X0*%
%ADD24O,1.950000X1.700000*%
%ADD25RoundRect,0.140000X-0.170000X0.140000X-0.170000X-0.140000X0.170000X-0.140000X0.170000X0.140000X0*%
%ADD26RoundRect,0.135000X0.185000X-0.135000X0.185000X0.135000X-0.185000X0.135000X-0.185000X-0.135000X0*%
%ADD27RoundRect,0.150000X-0.150000X0.825000X-0.150000X-0.825000X0.150000X-0.825000X0.150000X0.825000X0*%
%ADD28C,1.600000*%
%ADD29R,2.000000X4.000000*%
%ADD30O,2.000000X3.300000*%
%ADD31O,3.500000X2.000000*%
%ADD32RoundRect,0.075000X-0.075000X0.350000X-0.075000X-0.350000X0.075000X-0.350000X0.075000X0.350000X0*%
%ADD33R,2.400000X1.600000*%
%ADD34C,4.500000*%
%ADD35RoundRect,0.250000X0.250000X0.550000X-0.250000X0.550000X-0.250000X-0.550000X0.250000X-0.550000X0*%
%ADD36RoundRect,0.175000X0.325000X-0.175000X0.325000X0.175000X-0.325000X0.175000X-0.325000X-0.175000X0*%
%ADD37RoundRect,0.150000X0.150000X-0.200000X0.150000X0.200000X-0.150000X0.200000X-0.150000X-0.200000X0*%
%ADD38RoundRect,0.140000X-0.140000X-0.170000X0.140000X-0.170000X0.140000X0.170000X-0.140000X0.170000X0*%
%ADD39RoundRect,0.250000X-0.250000X-0.475000X0.250000X-0.475000X0.250000X0.475000X-0.250000X0.475000X0*%
%ADD40R,0.533400X0.304800*%
%ADD41R,0.304800X0.533400*%
%ADD42C,0.650000*%
%ADD43R,1.450000X0.600000*%
%ADD44R,1.450000X0.300000*%
%ADD45O,2.100000X1.000000*%
%ADD46O,1.600000X1.000000*%
%ADD47RoundRect,0.250000X0.750000X0.750000X-0.750000X0.750000X-0.750000X-0.750000X0.750000X-0.750000X0*%
%ADD48C,2.000000*%
%ADD49RoundRect,0.250000X-0.750000X-0.750000X0.750000X-0.750000X0.750000X0.750000X-0.750000X0.750000X0*%
%ADD50RoundRect,0.062500X0.350000X0.062500X-0.350000X0.062500X-0.350000X-0.062500X0.350000X-0.062500X0*%
%ADD51RoundRect,0.062500X0.062500X0.350000X-0.062500X0.350000X-0.062500X-0.350000X0.062500X-0.350000X0*%
%ADD52R,2.600000X2.600000*%
%ADD53RoundRect,0.250000X0.725000X-0.600000X0.725000X0.600000X-0.725000X0.600000X-0.725000X-0.600000X0*%
G04 APERTURE END LIST*
D10*
%TO.C,SW3*%
X91925000Y-83350000D03*
X96075000Y-83350000D03*
X91925000Y-85500000D03*
X96075000Y-85500000D03*
%TD*%
D11*
%TO.C,U4*%
X86500000Y-106700000D03*
D12*
X86500000Y-109240000D03*
X86500000Y-111780000D03*
%TD*%
D13*
%TO.C,Q1*%
X68525000Y-107950000D03*
X68525000Y-108600000D03*
X68525000Y-109250000D03*
X70300000Y-109250000D03*
X70300000Y-108600000D03*
X70300000Y-107950000D03*
%TD*%
D14*
%TO.C,R15*%
X57850000Y-88490000D03*
X57850000Y-89510000D03*
%TD*%
D15*
%TO.C,J3*%
X105325000Y-86350000D03*
D16*
X107865000Y-86350000D03*
%TD*%
D17*
%TO.C,R7*%
X97200000Y-103700000D03*
X98220000Y-103700000D03*
%TD*%
D18*
%TO.C,U6*%
X70000000Y-82890000D03*
X70000000Y-84160000D03*
X70000000Y-85430000D03*
X70000000Y-86700000D03*
X70000000Y-87970000D03*
X70000000Y-89240000D03*
X70000000Y-90510000D03*
X70000000Y-91780000D03*
X70000000Y-93050000D03*
X70000000Y-94320000D03*
X70000000Y-95590000D03*
X70000000Y-96860000D03*
X70000000Y-98130000D03*
X70000000Y-99400000D03*
D19*
X71765000Y-100650000D03*
X73035000Y-100650000D03*
X74305000Y-100650000D03*
X75575000Y-100650000D03*
X76845000Y-100650000D03*
X78115000Y-100650000D03*
X79385000Y-100650000D03*
X80655000Y-100650000D03*
X81925000Y-100650000D03*
X83195000Y-100650000D03*
X84465000Y-100650000D03*
X85735000Y-100650000D03*
D18*
X87500000Y-99400000D03*
X87500000Y-98130000D03*
X87500000Y-96860000D03*
X87500000Y-95590000D03*
X87500000Y-94320000D03*
X87500000Y-93050000D03*
X87500000Y-91780000D03*
X87500000Y-90510000D03*
X87500000Y-89240000D03*
X87500000Y-87970000D03*
X87500000Y-86700000D03*
X87500000Y-85430000D03*
X87500000Y-84160000D03*
X87500000Y-82890000D03*
D20*
X75850000Y-89910000D03*
X75850000Y-91310000D03*
X76550000Y-89210000D03*
X76550000Y-90610000D03*
X76550000Y-92010000D03*
X77250000Y-89910000D03*
D21*
X77250000Y-90610000D03*
D20*
X77250000Y-91310000D03*
X77950000Y-89210000D03*
X77950000Y-90610000D03*
X77950000Y-92010000D03*
X78650000Y-89910000D03*
X78650000Y-91310000D03*
%TD*%
D22*
%TO.C,R1*%
X92700000Y-99120000D03*
X91680000Y-99120000D03*
%TD*%
D23*
%TO.C,J12*%
X56550000Y-110250000D03*
D24*
X56550000Y-112750000D03*
X56550000Y-115250000D03*
X56550000Y-117750000D03*
X56550000Y-120250000D03*
%TD*%
D25*
%TO.C,C14*%
X59050000Y-88490000D03*
X59050000Y-89450000D03*
%TD*%
D26*
%TO.C,R12*%
X75600000Y-103560000D03*
X75600000Y-102540000D03*
%TD*%
D27*
%TO.C,U5*%
X91255000Y-118175000D03*
X89985000Y-118175000D03*
X88715000Y-118175000D03*
X87445000Y-118175000D03*
X87445000Y-123125000D03*
X88715000Y-123125000D03*
X89985000Y-123125000D03*
X91255000Y-123125000D03*
%TD*%
D25*
%TO.C,C20*%
X67800000Y-90970000D03*
X67800000Y-91930000D03*
%TD*%
D14*
%TO.C,R4*%
X102400000Y-109280000D03*
X102400000Y-110300000D03*
%TD*%
D22*
%TO.C,R13*%
X70112500Y-110550000D03*
X69092500Y-110550000D03*
%TD*%
D28*
%TO.C,J10*%
X108800000Y-94400000D03*
D29*
X99800000Y-94400000D03*
D30*
X105800000Y-94400000D03*
D31*
X106800000Y-98900000D03*
X106800000Y-89900000D03*
%TD*%
D32*
%TO.C,U9*%
X77075000Y-113200000D03*
X76425000Y-113200000D03*
X75775000Y-113200000D03*
X75125000Y-113200000D03*
X75125000Y-116100000D03*
X75775000Y-116100000D03*
X76425000Y-116100000D03*
X77075000Y-116100000D03*
D33*
X76100000Y-114650000D03*
%TD*%
D34*
%TO.C,H1*%
X52350000Y-85600000D03*
%TD*%
D25*
%TO.C,C18*%
X66450000Y-90975000D03*
X66450000Y-91935000D03*
%TD*%
D35*
%TO.C,SW1*%
X84000000Y-117750000D03*
X82250000Y-120050000D03*
X80500000Y-117750000D03*
%TD*%
D25*
%TO.C,C8*%
X63400000Y-116920000D03*
X63400000Y-117880000D03*
%TD*%
%TO.C,C5*%
X109893000Y-114455000D03*
X109893000Y-115415000D03*
%TD*%
D36*
%TO.C,D2*%
X100350000Y-114350000D03*
D37*
X102050000Y-114350000D03*
X102050000Y-112350000D03*
X100150000Y-112350000D03*
%TD*%
D26*
%TO.C,R8*%
X91250000Y-116150000D03*
X91250000Y-115130000D03*
%TD*%
D17*
%TO.C,R14*%
X69090000Y-111600000D03*
X70110000Y-111600000D03*
%TD*%
D38*
%TO.C,C11*%
X87540000Y-124850000D03*
X88500000Y-124850000D03*
%TD*%
%TO.C,C19*%
X77790000Y-102400000D03*
X78750000Y-102400000D03*
%TD*%
%TO.C,C10*%
X100420000Y-104250000D03*
X101380000Y-104250000D03*
%TD*%
D25*
%TO.C,C13*%
X68300000Y-84320000D03*
X68300000Y-85280000D03*
%TD*%
D26*
%TO.C,R9*%
X89950000Y-116150000D03*
X89950000Y-115130000D03*
%TD*%
D39*
%TO.C,C7*%
X90700000Y-109950000D03*
X92600000Y-109950000D03*
%TD*%
D25*
%TO.C,C15*%
X67300000Y-84320000D03*
X67300000Y-85280000D03*
%TD*%
D17*
%TO.C,R2*%
X91700000Y-98020000D03*
X92720000Y-98020000D03*
%TD*%
D25*
%TO.C,C3*%
X68325000Y-115340000D03*
X68325000Y-116300000D03*
%TD*%
D22*
%TO.C,R6*%
X98920000Y-102400000D03*
X97900000Y-102400000D03*
%TD*%
D40*
%TO.C,U1*%
X63968499Y-113845000D03*
X63968499Y-114345001D03*
X63968499Y-114845001D03*
X63968499Y-115345002D03*
D41*
X64675000Y-115547501D03*
X65174999Y-115547501D03*
X65674998Y-115547501D03*
D40*
X66381499Y-115345002D03*
X66381499Y-114845001D03*
X66381499Y-114345001D03*
X66381499Y-113845000D03*
D41*
X65674998Y-113642501D03*
X65174999Y-113642501D03*
X64675000Y-113642501D03*
%TD*%
D25*
%TO.C,C6*%
X108773000Y-114435000D03*
X108773000Y-115395000D03*
%TD*%
D26*
%TO.C,R3*%
X102400000Y-104500000D03*
X102400000Y-103480000D03*
%TD*%
D38*
%TO.C,C17*%
X77790000Y-103600000D03*
X78750000Y-103600000D03*
%TD*%
D15*
%TO.C,J8*%
X91950000Y-102075000D03*
D16*
X91950000Y-104615000D03*
%TD*%
D42*
%TO.C,J4*%
X105800000Y-110290000D03*
X105800000Y-104510000D03*
D43*
X104355000Y-110650000D03*
X104355000Y-109850000D03*
D44*
X104355000Y-108650000D03*
X104355000Y-107650000D03*
X104355000Y-107150000D03*
X104355000Y-106150000D03*
D43*
X104355000Y-104950000D03*
X104355000Y-104150000D03*
X104355000Y-104150000D03*
X104355000Y-104950000D03*
D44*
X104355000Y-105650000D03*
X104355000Y-106650000D03*
X104355000Y-108150000D03*
X104355000Y-109150000D03*
D43*
X104355000Y-109850000D03*
X104355000Y-110650000D03*
D45*
X105270000Y-111720000D03*
D46*
X109450000Y-111720000D03*
D45*
X105270000Y-103080000D03*
D46*
X109450000Y-103080000D03*
%TD*%
D22*
%TO.C,R5*%
X101020000Y-102400000D03*
X100000000Y-102400000D03*
%TD*%
D15*
%TO.C,J7*%
X95000000Y-113550000D03*
D16*
X97540000Y-113550000D03*
%TD*%
D10*
%TO.C,SW2*%
X65175000Y-85625000D03*
X61025000Y-85625000D03*
X65175000Y-83475000D03*
X61025000Y-83475000D03*
%TD*%
D11*
%TO.C,U2*%
X94000000Y-94440000D03*
D12*
X94000000Y-91900000D03*
X94000000Y-89360000D03*
%TD*%
D47*
%TO.C,J6*%
X69145000Y-124982500D03*
D48*
X66605000Y-124982500D03*
X64065000Y-124982500D03*
%TD*%
D38*
%TO.C,C12*%
X75740000Y-111500000D03*
X76700000Y-111500000D03*
%TD*%
D25*
%TO.C,C16*%
X73550000Y-116590000D03*
X73550000Y-117550000D03*
%TD*%
%TO.C,C1*%
X97750000Y-96870000D03*
X97750000Y-97830000D03*
%TD*%
%TO.C,C4*%
X70150000Y-115340000D03*
X70150000Y-116300000D03*
%TD*%
D26*
%TO.C,R10*%
X74350000Y-103560000D03*
X74350000Y-102540000D03*
%TD*%
%TO.C,R17*%
X79600000Y-115162500D03*
X79600000Y-114142500D03*
%TD*%
D38*
%TO.C,C9*%
X101270000Y-105500000D03*
X102230000Y-105500000D03*
%TD*%
D22*
%TO.C,R18*%
X83660000Y-121700000D03*
X82640000Y-121700000D03*
%TD*%
D25*
%TO.C,C2*%
X94000000Y-98070000D03*
X94000000Y-99030000D03*
%TD*%
D34*
%TO.C,H2*%
X95350000Y-128780000D03*
%TD*%
D15*
%TO.C,J2*%
X62900000Y-90475000D03*
D16*
X62900000Y-93015000D03*
%TD*%
D49*
%TO.C,J1*%
X74710000Y-124700000D03*
D48*
X77250000Y-124700000D03*
%TD*%
D23*
%TO.C,J13*%
X56550000Y-94250000D03*
D24*
X56550000Y-96750000D03*
X56550000Y-99250000D03*
X56550000Y-101750000D03*
X56550000Y-104250000D03*
%TD*%
D34*
%TO.C,H3*%
X52350000Y-128780000D03*
%TD*%
D50*
%TO.C,U3*%
X100000000Y-108450000D03*
X100000000Y-107950000D03*
X100000000Y-107450000D03*
X100000000Y-106950000D03*
X100000000Y-106450000D03*
X100000000Y-105950000D03*
D51*
X99312500Y-105262500D03*
X98812500Y-105262500D03*
X98312500Y-105262500D03*
X97812500Y-105262500D03*
X97312500Y-105262500D03*
X96812500Y-105262500D03*
D50*
X96125000Y-105950000D03*
X96125000Y-106450000D03*
X96125000Y-106950000D03*
X96125000Y-107450000D03*
X96125000Y-107950000D03*
X96125000Y-108450000D03*
D51*
X96812500Y-109137500D03*
X97312500Y-109137500D03*
X97812500Y-109137500D03*
X98312500Y-109137500D03*
X98812500Y-109137500D03*
X99312500Y-109137500D03*
D52*
X98062500Y-107200000D03*
%TD*%
D53*
%TO.C,J5*%
X104450000Y-124800000D03*
D24*
X104450000Y-122300000D03*
X104450000Y-119800000D03*
%TD*%
M02*
