%TF.GenerationSoftware,KiCad,Pcbnew,9.0.7*%
%TF.CreationDate,2026-04-21T01:11:17-04:00*%
%TF.ProjectId,Custom-ESPC5,43757374-6f6d-42d4-9553-5043352e6b69,rev?*%
%TF.SameCoordinates,Original*%
%TF.FileFunction,Soldermask,Bot*%
%TF.FilePolarity,Negative*%
%FSLAX46Y46*%
G04 Gerber Fmt 4.6, Leading zero omitted, Abs format (unit mm)*
G04 Created by KiCad (PCBNEW 9.0.7) date 2026-04-21 01:11:17*
%MOMM*%
%LPD*%
G01*
G04 APERTURE LIST*
G04 Aperture macros list*
%AMRoundRect*
0 Rectangle with rounded corners*
0 $1 Rounding radius*
0 $2 $3 $4 $5 $6 $7 $8 $9 X,Y pos of 4 corners*
0 Add a 4 corners polygon primitive as box body*
4,1,4,$2,$3,$4,$5,$6,$7,$8,$9,$2,$3,0*
0 Add four circle primitives for the rounded corners*
1,1,$1+$1,$2,$3*
1,1,$1+$1,$4,$5*
1,1,$1+$1,$6,$7*
1,1,$1+$1,$8,$9*
0 Add four rect primitives between the rounded corners*
20,1,$1+$1,$2,$3,$4,$5,0*
20,1,$1+$1,$4,$5,$6,$7,0*
20,1,$1+$1,$6,$7,$8,$9,0*
20,1,$1+$1,$8,$9,$2,$3,0*%
G04 Aperture macros list end*
%ADD10R,2.000000X1.905000*%
%ADD11O,2.000000X1.905000*%
%ADD12R,1.700000X1.700000*%
%ADD13C,1.700000*%
%ADD14RoundRect,0.250000X-0.725000X0.600000X-0.725000X-0.600000X0.725000X-0.600000X0.725000X0.600000X0*%
%ADD15O,1.950000X1.700000*%
%ADD16C,1.600000*%
%ADD17R,2.000000X4.000000*%
%ADD18O,2.000000X3.300000*%
%ADD19O,3.500000X2.000000*%
%ADD20C,4.500000*%
%ADD21C,0.650000*%
%ADD22O,2.100000X1.000000*%
%ADD23O,1.600000X1.000000*%
%ADD24RoundRect,0.250000X0.750000X0.750000X-0.750000X0.750000X-0.750000X-0.750000X0.750000X-0.750000X0*%
%ADD25C,2.000000*%
%ADD26RoundRect,0.250000X-0.750000X-0.750000X0.750000X-0.750000X0.750000X0.750000X-0.750000X0.750000X0*%
%ADD27RoundRect,0.250000X0.725000X-0.600000X0.725000X0.600000X-0.725000X0.600000X-0.725000X-0.600000X0*%
G04 APERTURE END LIST*
D10*
%TO.C,U4*%
X86500000Y-106700000D03*
D11*
X86500000Y-109240000D03*
X86500000Y-111780000D03*
%TD*%
D12*
%TO.C,J3*%
X105325000Y-86350000D03*
D13*
X107865000Y-86350000D03*
%TD*%
D14*
%TO.C,J12*%
X56550000Y-110250000D03*
D15*
X56550000Y-112750000D03*
X56550000Y-115250000D03*
X56550000Y-117750000D03*
X56550000Y-120250000D03*
%TD*%
D16*
%TO.C,J10*%
X108800000Y-94400000D03*
D17*
X99800000Y-94400000D03*
D18*
X105800000Y-94400000D03*
D19*
X106800000Y-98900000D03*
X106800000Y-89900000D03*
%TD*%
D20*
%TO.C,H1*%
X52350000Y-85600000D03*
%TD*%
D12*
%TO.C,J8*%
X91950000Y-102075000D03*
D13*
X91950000Y-104615000D03*
%TD*%
D21*
%TO.C,J4*%
X105800000Y-110290000D03*
X105800000Y-104510000D03*
D22*
X105270000Y-111720000D03*
D23*
X109450000Y-111720000D03*
D22*
X105270000Y-103080000D03*
D23*
X109450000Y-103080000D03*
%TD*%
D12*
%TO.C,J7*%
X95000000Y-113550000D03*
D13*
X97540000Y-113550000D03*
%TD*%
D10*
%TO.C,U2*%
X94000000Y-94440000D03*
D11*
X94000000Y-91900000D03*
X94000000Y-89360000D03*
%TD*%
D24*
%TO.C,J6*%
X69145000Y-124982500D03*
D25*
X66605000Y-124982500D03*
X64065000Y-124982500D03*
%TD*%
D20*
%TO.C,H2*%
X95350000Y-128780000D03*
%TD*%
D12*
%TO.C,J2*%
X62900000Y-90475000D03*
D13*
X62900000Y-93015000D03*
%TD*%
D26*
%TO.C,J1*%
X74710000Y-124700000D03*
D25*
X77250000Y-124700000D03*
%TD*%
D14*
%TO.C,J13*%
X56550000Y-94250000D03*
D15*
X56550000Y-96750000D03*
X56550000Y-99250000D03*
X56550000Y-101750000D03*
X56550000Y-104250000D03*
%TD*%
D20*
%TO.C,H3*%
X52350000Y-128780000D03*
%TD*%
D27*
%TO.C,J5*%
X104450000Y-124800000D03*
D15*
X104450000Y-122300000D03*
X104450000Y-119800000D03*
%TD*%
M02*
