M48
; DRILL file {KiCad 9.0.7} date 2026-04-21T01:11:19-0400
; FORMAT={-:-/ absolute / metric / decimal}
; #@! TF.CreationDate,2026-04-21T01:11:19-04:00
; #@! TF.GenerationSoftware,Kicad,Pcbnew,9.0.7
; #@! TF.FileFunction,Plated,1,4,PTH
FMAT,2
METRIC
; #@! TA.AperFunction,Plated,PTH,ComponentDrill
T1C0.200
; #@! TA.AperFunction,Plated,PTH,ViaDrill
T2C0.300
; #@! TA.AperFunction,Plated,PTH,ComponentDrill
T3C0.600
; #@! TA.AperFunction,Plated,PTH,ComponentDrill
T4C0.950
; #@! TA.AperFunction,Plated,PTH,ComponentDrill
T5C1.000
; #@! TA.AperFunction,Plated,PTH,ComponentDrill
T6C1.100
; #@! TA.AperFunction,Plated,PTH,ComponentDrill
T7C1.200
%
G90
G05
T1
X75.85Y-89.91
X75.85Y-91.31
X76.55Y-89.21
X76.55Y-90.61
X76.55Y-92.01
X77.25Y-89.91
X77.25Y-91.31
X77.95Y-89.21
X77.95Y-90.61
X77.95Y-92.01
X78.65Y-89.91
X78.65Y-91.31
T2
X58.4Y-87.55
X59.15Y-120.25
X60.05Y-85.7
X60.1Y-111.4
X60.679Y-111.952
X61.625Y-109.9
X61.725Y-104.3
X61.849Y-110.751
X63.407Y-118.875
X63.5Y-97.55
X63.625Y-100.05
X65.175Y-116.72
X65.475Y-93.9
X66.375Y-95.75
X66.425Y-92.9
X67.5Y-88.775
X67.8Y-90.1
X67.825Y-92.925
X68.025Y-109.95
X68.112Y-103.688
X68.15Y-82.875
X68.325Y-117.42
X69.15Y-102.675
X69.25Y-105.525
X70.175Y-117.42
X71.125Y-105.55
X72.25Y-113.675
X72.4Y-109.275
X73.55Y-118.45
X75.15Y-109.825
X75.55Y-95.65
X75.551Y-94.85
X75.95Y-105.2
X76.1Y-114.65
X76.375Y-102.057
X76.462Y-103.188
X76.85Y-103.95
X77.326Y-107.099
X77.55Y-110.75
X78.15Y-98.475
X79.375Y-104.6
X79.625Y-108.55
X80.5Y-108.075
X80.807Y-98.85
X83.05Y-97.675
X83.975Y-97.65
X83.975Y-103.975
X85.0Y-94.2
X85.9Y-98.85
X86.0Y-102.875
X89.05Y-86.675
X89.325Y-82.9
X89.45Y-101.1
X89.45Y-121.4
X90.3Y-88.175
X90.449Y-98.183
X90.5Y-112.75
X90.55Y-113.9
X91.5Y-108.25
X92.1Y-100.2
X92.6Y-110.95
X93.712Y-107.637
X96.05Y-110.85
X96.2Y-104.3
X96.575Y-111.525
X96.9Y-98.5
X97.0Y-102.6
X98.537Y-110.513
X99.262Y-111.086
X100.15Y-111.1
X101.1Y-110.3
X101.207Y-106.408
X101.75Y-119.8
X101.9Y-108.1
X102.05Y-111.25
X102.325Y-106.55
X102.5Y-101.8
X102.8Y-108.3
X102.964Y-105.913
X110.873Y-115.435
T4
X56.55Y-94.25
X56.55Y-96.75
X56.55Y-99.25
X56.55Y-101.75
X56.55Y-104.25
X56.55Y-110.25
X56.55Y-112.75
X56.55Y-115.25
X56.55Y-117.75
X56.55Y-120.25
X104.45Y-119.8
X104.45Y-122.3
X104.45Y-124.8
T5
X62.9Y-90.475
X62.9Y-93.015
X91.95Y-102.075
X91.95Y-104.615
X95.0Y-113.55
X97.54Y-113.55
X105.325Y-86.35
X107.865Y-86.35
T6
X86.5Y-106.7
X86.5Y-109.24
X86.5Y-111.78
X94.0Y-89.36
X94.0Y-91.9
X94.0Y-94.44
T7
X64.065Y-124.982
X66.605Y-124.982
X69.145Y-124.982
X74.71Y-124.7
X77.25Y-124.7
T3
G00X104.72Y-103.08
M15
G01X105.82Y-103.08
M16
G05
G00X104.72Y-111.72
M15
G01X105.82Y-111.72
M16
G05
G00X109.15Y-103.08
M15
G01X109.75Y-103.08
M16
G05
G00X109.15Y-111.72
M15
G01X109.75Y-111.72
M16
G05
T5
G00X99.8Y-95.4
M15
G01X99.8Y-93.4
M16
G05
G00X105.8Y-95.05
M15
G01X105.8Y-93.75
M16
G05
G00X106.05Y-89.9
M15
G01X107.55Y-89.9
M16
G05
G00X106.05Y-98.9
M15
G01X107.55Y-98.9
M16
G05
M30
