%TF.GenerationSoftware,KiCad,Pcbnew,9.0.7*%
%TF.CreationDate,2026-04-21T01:11:17-04:00*%
%TF.ProjectId,Custom-ESPC5,43757374-6f6d-42d4-9553-5043352e6b69,rev?*%
%TF.SameCoordinates,Original*%
%TF.FileFunction,Paste,Top*%
%TF.FilePolarity,Positive*%
%FSLAX46Y46*%
G04 Gerber Fmt 4.6, Leading zero omitted, Abs format (unit mm)*
G04 Created by KiCad (PCBNEW 9.0.7) date 2026-04-21 01:11:17*
%MOMM*%
%LPD*%
G01*
G04 APERTURE LIST*
G04 Aperture macros list*
%AMRoundRect*
0 Rectangle with rounded corners*
0 $1 Rounding radius*
0 $2 $3 $4 $5 $6 $7 $8 $9 X,Y pos of 4 corners*
0 Add a 4 corners polygon primitive as box body*
4,1,4,$2,$3,$4,$5,$6,$7,$8,$9,$2,$3,0*
0 Add four circle primitives for the rounded corners*
1,1,$1+$1,$2,$3*
1,1,$1+$1,$4,$5*
1,1,$1+$1,$6,$7*
1,1,$1+$1,$8,$9*
0 Add four rect primitives between the rounded corners*
20,1,$1+$1,$2,$3,$4,$5,0*
20,1,$1+$1,$4,$5,$6,$7,0*
20,1,$1+$1,$6,$7,$8,$9,0*
20,1,$1+$1,$8,$9,$2,$3,0*%
G04 Aperture macros list end*
%ADD10R,1.050000X0.650000*%
%ADD11RoundRect,0.100000X-0.562500X-0.100000X0.562500X-0.100000X0.562500X0.100000X-0.562500X0.100000X0*%
%ADD12RoundRect,0.135000X-0.185000X0.135000X-0.185000X-0.135000X0.185000X-0.135000X0.185000X0.135000X0*%
%ADD13RoundRect,0.135000X-0.135000X-0.185000X0.135000X-0.185000X0.135000X0.185000X-0.135000X0.185000X0*%
%ADD14R,0.900000X0.900000*%
%ADD15R,1.500000X0.900000*%
%ADD16R,0.900000X1.500000*%
%ADD17RoundRect,0.135000X0.135000X0.185000X-0.135000X0.185000X-0.135000X-0.185000X0.135000X-0.185000X0*%
%ADD18RoundRect,0.140000X-0.170000X0.140000X-0.170000X-0.140000X0.170000X-0.140000X0.170000X0.140000X0*%
%ADD19RoundRect,0.135000X0.185000X-0.135000X0.185000X0.135000X-0.185000X0.135000X-0.185000X-0.135000X0*%
%ADD20RoundRect,0.150000X-0.150000X0.825000X-0.150000X-0.825000X0.150000X-0.825000X0.150000X0.825000X0*%
%ADD21RoundRect,0.160000X-0.325000X0.160000X-0.325000X-0.160000X0.325000X-0.160000X0.325000X0.160000X0*%
%ADD22RoundRect,0.075000X-0.075000X0.350000X-0.075000X-0.350000X0.075000X-0.350000X0.075000X0.350000X0*%
%ADD23RoundRect,0.250000X0.250000X0.550000X-0.250000X0.550000X-0.250000X-0.550000X0.250000X-0.550000X0*%
%ADD24RoundRect,0.175000X0.325000X-0.175000X0.325000X0.175000X-0.325000X0.175000X-0.325000X-0.175000X0*%
%ADD25RoundRect,0.150000X0.150000X-0.200000X0.150000X0.200000X-0.150000X0.200000X-0.150000X-0.200000X0*%
%ADD26RoundRect,0.140000X-0.140000X-0.170000X0.140000X-0.170000X0.140000X0.170000X-0.140000X0.170000X0*%
%ADD27R,0.533400X0.304800*%
%ADD28R,0.304800X0.533400*%
%ADD29R,1.450000X0.600000*%
%ADD30R,1.450000X0.300000*%
%ADD31RoundRect,0.250000X0.275000X0.275000X-0.275000X0.275000X-0.275000X-0.275000X0.275000X-0.275000X0*%
%ADD32RoundRect,0.062500X0.350000X0.062500X-0.350000X0.062500X-0.350000X-0.062500X0.350000X-0.062500X0*%
%ADD33RoundRect,0.062500X0.062500X0.350000X-0.062500X0.350000X-0.062500X-0.350000X0.062500X-0.350000X0*%
G04 APERTURE END LIST*
D10*
%TO.C,SW3*%
X91925000Y-83350000D03*
X96075000Y-83350000D03*
X91925000Y-85500000D03*
X96075000Y-85500000D03*
%TD*%
D11*
%TO.C,Q1*%
X68525000Y-107950000D03*
X68525000Y-108600000D03*
X68525000Y-109250000D03*
X70300000Y-109250000D03*
X70300000Y-108600000D03*
X70300000Y-107950000D03*
%TD*%
D12*
%TO.C,R15*%
X57850000Y-88490000D03*
X57850000Y-89510000D03*
%TD*%
D13*
%TO.C,R7*%
X97200000Y-103700000D03*
X98220000Y-103700000D03*
%TD*%
D14*
%TO.C,U6*%
X75850000Y-89210000D03*
X75850000Y-90610000D03*
X75850000Y-92010000D03*
X77250000Y-89210000D03*
X77250000Y-90610000D03*
X77250000Y-92010000D03*
X78650000Y-89210000D03*
X78650000Y-90610000D03*
X78650000Y-92010000D03*
D15*
X70000000Y-82890000D03*
X70000000Y-84160000D03*
X70000000Y-85430000D03*
X70000000Y-86700000D03*
X70000000Y-87970000D03*
X70000000Y-89240000D03*
X70000000Y-90510000D03*
X70000000Y-91780000D03*
X70000000Y-93050000D03*
X70000000Y-94320000D03*
X70000000Y-95590000D03*
X70000000Y-96860000D03*
X70000000Y-98130000D03*
X70000000Y-99400000D03*
D16*
X71765000Y-100650000D03*
X73035000Y-100650000D03*
X74305000Y-100650000D03*
X75575000Y-100650000D03*
X76845000Y-100650000D03*
X78115000Y-100650000D03*
X79385000Y-100650000D03*
X80655000Y-100650000D03*
X81925000Y-100650000D03*
X83195000Y-100650000D03*
X84465000Y-100650000D03*
X85735000Y-100650000D03*
D15*
X87500000Y-99400000D03*
X87500000Y-98130000D03*
X87500000Y-96860000D03*
X87500000Y-95590000D03*
X87500000Y-94320000D03*
X87500000Y-93050000D03*
X87500000Y-91780000D03*
X87500000Y-90510000D03*
X87500000Y-89240000D03*
X87500000Y-87970000D03*
X87500000Y-86700000D03*
X87500000Y-85430000D03*
X87500000Y-84160000D03*
X87500000Y-82890000D03*
%TD*%
D17*
%TO.C,R1*%
X92700000Y-99120000D03*
X91680000Y-99120000D03*
%TD*%
D18*
%TO.C,C14*%
X59050000Y-88490000D03*
X59050000Y-89450000D03*
%TD*%
D19*
%TO.C,R12*%
X75600000Y-103560000D03*
X75600000Y-102540000D03*
%TD*%
D20*
%TO.C,U5*%
X91255000Y-118175000D03*
X89985000Y-118175000D03*
X88715000Y-118175000D03*
X87445000Y-118175000D03*
X87445000Y-123125000D03*
X88715000Y-123125000D03*
X89985000Y-123125000D03*
X91255000Y-123125000D03*
%TD*%
D18*
%TO.C,C20*%
X67800000Y-90970000D03*
X67800000Y-91930000D03*
%TD*%
D12*
%TO.C,R4*%
X102400000Y-109280000D03*
X102400000Y-110300000D03*
%TD*%
D17*
%TO.C,R13*%
X70112500Y-110550000D03*
X69092500Y-110550000D03*
%TD*%
D21*
%TO.C,U9*%
X76700000Y-114250000D03*
X75500000Y-114250000D03*
X76700000Y-115050000D03*
X75500000Y-115050000D03*
D22*
X77075000Y-113200000D03*
X76425000Y-113200000D03*
X75775000Y-113200000D03*
X75125000Y-113200000D03*
X75125000Y-116100000D03*
X75775000Y-116100000D03*
X76425000Y-116100000D03*
X77075000Y-116100000D03*
%TD*%
D18*
%TO.C,C18*%
X66450000Y-90975000D03*
X66450000Y-91935000D03*
%TD*%
D23*
%TO.C,SW1*%
X84000000Y-117750000D03*
X82250000Y-120050000D03*
X80500000Y-117750000D03*
%TD*%
D18*
%TO.C,C8*%
X63400000Y-116920000D03*
X63400000Y-117880000D03*
%TD*%
%TO.C,C5*%
X109893000Y-114455000D03*
X109893000Y-115415000D03*
%TD*%
D24*
%TO.C,D2*%
X100350000Y-114350000D03*
D25*
X102050000Y-114350000D03*
X102050000Y-112350000D03*
X100150000Y-112350000D03*
%TD*%
D19*
%TO.C,R8*%
X91250000Y-116150000D03*
X91250000Y-115130000D03*
%TD*%
D13*
%TO.C,R14*%
X69090000Y-111600000D03*
X70110000Y-111600000D03*
%TD*%
D26*
%TO.C,C11*%
X87540000Y-124850000D03*
X88500000Y-124850000D03*
%TD*%
%TO.C,C19*%
X77790000Y-102400000D03*
X78750000Y-102400000D03*
%TD*%
%TO.C,C10*%
X100420000Y-104250000D03*
X101380000Y-104250000D03*
%TD*%
D18*
%TO.C,C13*%
X68300000Y-84320000D03*
X68300000Y-85280000D03*
%TD*%
D19*
%TO.C,R9*%
X89950000Y-116150000D03*
X89950000Y-115130000D03*
%TD*%
D18*
%TO.C,C7*%
X92100000Y-109070000D03*
X92100000Y-110030000D03*
%TD*%
%TO.C,C15*%
X67300000Y-84320000D03*
X67300000Y-85280000D03*
%TD*%
D13*
%TO.C,R2*%
X91700000Y-98020000D03*
X92720000Y-98020000D03*
%TD*%
D18*
%TO.C,C3*%
X68325000Y-115340000D03*
X68325000Y-116300000D03*
%TD*%
D17*
%TO.C,R6*%
X98920000Y-102400000D03*
X97900000Y-102400000D03*
%TD*%
D27*
%TO.C,U1*%
X63968499Y-113845000D03*
X63968499Y-114345001D03*
X63968499Y-114845001D03*
X63968499Y-115345002D03*
D28*
X64675000Y-115547501D03*
X65174999Y-115547501D03*
X65674998Y-115547501D03*
D27*
X66381499Y-115345002D03*
X66381499Y-114845001D03*
X66381499Y-114345001D03*
X66381499Y-113845000D03*
D28*
X65674998Y-113642501D03*
X65174999Y-113642501D03*
X64675000Y-113642501D03*
%TD*%
D18*
%TO.C,C6*%
X108773000Y-114435000D03*
X108773000Y-115395000D03*
%TD*%
D19*
%TO.C,R3*%
X102400000Y-104500000D03*
X102400000Y-103480000D03*
%TD*%
D26*
%TO.C,C17*%
X77790000Y-103600000D03*
X78750000Y-103600000D03*
%TD*%
D29*
%TO.C,J4*%
X104355000Y-110650000D03*
X104355000Y-109850000D03*
D30*
X104355000Y-108650000D03*
X104355000Y-107650000D03*
X104355000Y-107150000D03*
X104355000Y-106150000D03*
D29*
X104355000Y-104950000D03*
X104355000Y-104150000D03*
X104355000Y-104150000D03*
X104355000Y-104950000D03*
D30*
X104355000Y-105650000D03*
X104355000Y-106650000D03*
X104355000Y-108150000D03*
X104355000Y-109150000D03*
D29*
X104355000Y-109850000D03*
X104355000Y-110650000D03*
%TD*%
D17*
%TO.C,R5*%
X101020000Y-102400000D03*
X100000000Y-102400000D03*
%TD*%
D10*
%TO.C,SW2*%
X65175000Y-85625000D03*
X61025000Y-85625000D03*
X65175000Y-83475000D03*
X61025000Y-83475000D03*
%TD*%
D26*
%TO.C,C12*%
X75740000Y-111500000D03*
X76700000Y-111500000D03*
%TD*%
D18*
%TO.C,C16*%
X73550000Y-116590000D03*
X73550000Y-117550000D03*
%TD*%
%TO.C,C1*%
X97750000Y-96870000D03*
X97750000Y-97830000D03*
%TD*%
%TO.C,C4*%
X70150000Y-115340000D03*
X70150000Y-116300000D03*
%TD*%
D19*
%TO.C,R10*%
X74350000Y-103560000D03*
X74350000Y-102540000D03*
%TD*%
%TO.C,R17*%
X79600000Y-115162500D03*
X79600000Y-114142500D03*
%TD*%
D26*
%TO.C,C9*%
X101270000Y-105500000D03*
X102230000Y-105500000D03*
%TD*%
D17*
%TO.C,R18*%
X83660000Y-121700000D03*
X82640000Y-121700000D03*
%TD*%
D18*
%TO.C,C2*%
X94000000Y-98070000D03*
X94000000Y-99030000D03*
%TD*%
D31*
%TO.C,U3*%
X98712500Y-107850000D03*
X98712500Y-106550000D03*
X97412500Y-107850000D03*
X97412500Y-106550000D03*
D32*
X100000000Y-108450000D03*
X100000000Y-107950000D03*
X100000000Y-107450000D03*
X100000000Y-106950000D03*
X100000000Y-106450000D03*
X100000000Y-105950000D03*
D33*
X99312500Y-105262500D03*
X98812500Y-105262500D03*
X98312500Y-105262500D03*
X97812500Y-105262500D03*
X97312500Y-105262500D03*
X96812500Y-105262500D03*
D32*
X96125000Y-105950000D03*
X96125000Y-106450000D03*
X96125000Y-106950000D03*
X96125000Y-107450000D03*
X96125000Y-107950000D03*
X96125000Y-108450000D03*
D33*
X96812500Y-109137500D03*
X97312500Y-109137500D03*
X97812500Y-109137500D03*
X98312500Y-109137500D03*
X98812500Y-109137500D03*
X99312500Y-109137500D03*
%TD*%
M02*
