%TF.GenerationSoftware,KiCad,Pcbnew,9.0.7*%
%TF.CreationDate,2026-04-22T21:57:57-04:00*%
%TF.ProjectId,Custom-ESPC5,43757374-6f6d-42d4-9553-5043352e6b69,rev?*%
%TF.SameCoordinates,Original*%
%TF.FileFunction,Copper,L4,Bot*%
%TF.FilePolarity,Positive*%
%FSLAX46Y46*%
G04 Gerber Fmt 4.6, Leading zero omitted, Abs format (unit mm)*
G04 Created by KiCad (PCBNEW 9.0.7) date 2026-04-22 21:57:57*
%MOMM*%
%LPD*%
G01*
G04 APERTURE LIST*
G04 Aperture macros list*
%AMRoundRect*
0 Rectangle with rounded corners*
0 $1 Rounding radius*
0 $2 $3 $4 $5 $6 $7 $8 $9 X,Y pos of 4 corners*
0 Add a 4 corners polygon primitive as box body*
4,1,4,$2,$3,$4,$5,$6,$7,$8,$9,$2,$3,0*
0 Add four circle primitives for the rounded corners*
1,1,$1+$1,$2,$3*
1,1,$1+$1,$4,$5*
1,1,$1+$1,$6,$7*
1,1,$1+$1,$8,$9*
0 Add four rect primitives between the rounded corners*
20,1,$1+$1,$2,$3,$4,$5,0*
20,1,$1+$1,$4,$5,$6,$7,0*
20,1,$1+$1,$6,$7,$8,$9,0*
20,1,$1+$1,$8,$9,$2,$3,0*%
G04 Aperture macros list end*
%TA.AperFunction,ComponentPad*%
%ADD10R,2.000000X1.905000*%
%TD*%
%TA.AperFunction,ComponentPad*%
%ADD11O,2.000000X1.905000*%
%TD*%
%TA.AperFunction,ComponentPad*%
%ADD12R,1.700000X1.700000*%
%TD*%
%TA.AperFunction,ComponentPad*%
%ADD13C,1.700000*%
%TD*%
%TA.AperFunction,HeatsinkPad*%
%ADD14C,0.600000*%
%TD*%
%TA.AperFunction,ComponentPad*%
%ADD15RoundRect,0.250000X-0.725000X0.600000X-0.725000X-0.600000X0.725000X-0.600000X0.725000X0.600000X0*%
%TD*%
%TA.AperFunction,ComponentPad*%
%ADD16O,1.950000X1.700000*%
%TD*%
%TA.AperFunction,ComponentPad*%
%ADD17R,2.000000X4.000000*%
%TD*%
%TA.AperFunction,ComponentPad*%
%ADD18O,2.000000X3.300000*%
%TD*%
%TA.AperFunction,ComponentPad*%
%ADD19O,3.500000X2.000000*%
%TD*%
%TA.AperFunction,HeatsinkPad*%
%ADD20O,2.100000X1.000000*%
%TD*%
%TA.AperFunction,HeatsinkPad*%
%ADD21O,1.600000X1.000000*%
%TD*%
%TA.AperFunction,ComponentPad*%
%ADD22RoundRect,0.250000X0.750000X0.750000X-0.750000X0.750000X-0.750000X-0.750000X0.750000X-0.750000X0*%
%TD*%
%TA.AperFunction,ComponentPad*%
%ADD23C,2.000000*%
%TD*%
%TA.AperFunction,ComponentPad*%
%ADD24RoundRect,0.250000X-0.750000X-0.750000X0.750000X-0.750000X0.750000X0.750000X-0.750000X0.750000X0*%
%TD*%
%TA.AperFunction,ComponentPad*%
%ADD25RoundRect,0.250000X0.725000X-0.600000X0.725000X0.600000X-0.725000X0.600000X-0.725000X-0.600000X0*%
%TD*%
%TA.AperFunction,ViaPad*%
%ADD26C,0.600000*%
%TD*%
%TA.AperFunction,Conductor*%
%ADD27C,0.200000*%
%TD*%
%TA.AperFunction,Conductor*%
%ADD28C,0.381000*%
%TD*%
G04 APERTURE END LIST*
D10*
%TO.P,U4,1,OUT*%
%TO.N,+3.3V*%
X86500000Y-106700000D03*
D11*
%TO.P,U4,2,GND*%
%TO.N,GND*%
X86500000Y-109240000D03*
%TO.P,U4,3,IN*%
%TO.N,+5V*%
X86500000Y-111780000D03*
%TD*%
D12*
%TO.P,J3,1,Pin_1*%
%TO.N,/GPIO0*%
X105325000Y-86350000D03*
D13*
%TO.P,J3,2,Pin_2*%
%TO.N,Net-(J3-Pin_2)*%
X107865000Y-86350000D03*
%TD*%
D14*
%TO.P,U6,41,GND*%
%TO.N,GND*%
X75850000Y-89910000D03*
X75850000Y-91310000D03*
X76550000Y-89210000D03*
X76550000Y-90610000D03*
X76550000Y-92010000D03*
X77250000Y-89910000D03*
X77250000Y-91310000D03*
X77950000Y-89210000D03*
X77950000Y-90610000D03*
X77950000Y-92010000D03*
X78650000Y-89910000D03*
X78650000Y-91310000D03*
%TD*%
D15*
%TO.P,J12,1,Pin_1*%
%TO.N,+3.3V*%
X56550000Y-110250000D03*
D16*
%TO.P,J12,2,Pin_2*%
%TO.N,/B2*%
X56550000Y-112750000D03*
%TO.P,J12,3,Pin_3*%
%TO.N,/A2*%
X56550000Y-115250000D03*
%TO.P,J12,4,Pin_4*%
%TO.N,/IDX2*%
X56550000Y-117750000D03*
%TO.P,J12,5,Pin_5*%
%TO.N,GND*%
X56550000Y-120250000D03*
%TD*%
D17*
%TO.P,J10,1*%
%TO.N,Net-(U2-VI)*%
X99800000Y-94400000D03*
D18*
%TO.P,J10,2*%
%TO.N,GND*%
X105800000Y-94400000D03*
D19*
%TO.P,J10,MP*%
%TO.N,N/C*%
X106800000Y-98900000D03*
X106800000Y-89900000D03*
%TD*%
D12*
%TO.P,J8,1,Pin_1*%
%TO.N,Net-(J8-Pin_1)*%
X91950000Y-102075000D03*
D13*
%TO.P,J8,2,Pin_2*%
%TO.N,+5V*%
X91950000Y-104615000D03*
%TD*%
D20*
%TO.P,J4,S1,SHIELD*%
%TO.N,unconnected-(J4-SHIELD-PadS1)_3*%
X105270000Y-111720000D03*
D21*
%TO.N,unconnected-(J4-SHIELD-PadS1)*%
X109450000Y-111720000D03*
D20*
%TO.N,unconnected-(J4-SHIELD-PadS1)_1*%
X105270000Y-103080000D03*
D21*
%TO.N,unconnected-(J4-SHIELD-PadS1)_2*%
X109450000Y-103080000D03*
%TD*%
D12*
%TO.P,J7,1,Pin_1*%
%TO.N,+5V*%
X95000000Y-113550000D03*
D13*
%TO.P,J7,2,Pin_2*%
%TO.N,Net-(J7-Pin_2)*%
X97540000Y-113550000D03*
%TD*%
D10*
%TO.P,U2,1,ADJ*%
%TO.N,Net-(U2-ADJ)*%
X94000000Y-94440000D03*
D11*
%TO.P,U2,2,VO*%
%TO.N,Net-(J8-Pin_1)*%
X94000000Y-91900000D03*
%TO.P,U2,3,VI*%
%TO.N,Net-(U2-VI)*%
X94000000Y-89360000D03*
%TD*%
D22*
%TO.P,J6,1,Pin_1*%
%TO.N,Net-(J6-Pin_1)*%
X69145000Y-124982500D03*
D23*
%TO.P,J6,2,Pin_2*%
%TO.N,GND*%
X66605000Y-124982500D03*
%TO.P,J6,3,Pin_3*%
%TO.N,Net-(J6-Pin_3)*%
X64065000Y-124982500D03*
%TD*%
D12*
%TO.P,J2,1,Pin_1*%
%TO.N,/CHIP_PU*%
X62900000Y-90475000D03*
D13*
%TO.P,J2,2,Pin_2*%
%TO.N,Net-(J2-Pin_2)*%
X62900000Y-93015000D03*
%TD*%
D24*
%TO.P,J1,1,Pin_1*%
%TO.N,Net-(J1-Pin_1)*%
X74710000Y-124700000D03*
D23*
%TO.P,J1,2,Pin_2*%
%TO.N,Net-(J1-Pin_2)*%
X77250000Y-124700000D03*
%TD*%
D15*
%TO.P,J13,1,Pin_1*%
%TO.N,+3.3V*%
X56550000Y-94250000D03*
D16*
%TO.P,J13,2,Pin_2*%
%TO.N,/B1*%
X56550000Y-96750000D03*
%TO.P,J13,3,Pin_3*%
%TO.N,/A1*%
X56550000Y-99250000D03*
%TO.P,J13,4,Pin_4*%
%TO.N,/IDX1*%
X56550000Y-101750000D03*
%TO.P,J13,5,Pin_5*%
%TO.N,GND*%
X56550000Y-104250000D03*
%TD*%
D25*
%TO.P,J5,1,Pin_1*%
%TO.N,/UART1 TX*%
X104450000Y-124800000D03*
D16*
%TO.P,J5,2,Pin_2*%
%TO.N,/UART1 RX*%
X104450000Y-122300000D03*
%TO.P,J5,3,Pin_3*%
%TO.N,GND*%
X104450000Y-119800000D03*
%TD*%
D26*
%TO.N,GND*%
X60050000Y-85700000D03*
X76100000Y-114650000D03*
X97000000Y-102600000D03*
X63406501Y-118875000D03*
X110873000Y-115435000D03*
X101100000Y-110300000D03*
X90550000Y-113900000D03*
X73550000Y-118450000D03*
X67825000Y-92925000D03*
X96900000Y-98500000D03*
X89450000Y-121400000D03*
X89325000Y-82900000D03*
X68325000Y-117420000D03*
X65174999Y-116720000D03*
X93700000Y-110250000D03*
X92100000Y-100200000D03*
X68150000Y-82875000D03*
X58400000Y-87550000D03*
X61725000Y-104300000D03*
X102500000Y-101800000D03*
X75950000Y-105200000D03*
X77550000Y-110750000D03*
X66425000Y-92900000D03*
X70175000Y-117420000D03*
X59150000Y-120250000D03*
X102964193Y-105912722D03*
X101750000Y-119800000D03*
%TO.N,+3.3V*%
X93712500Y-107637500D03*
X89600000Y-110949000D03*
X90500000Y-112750000D03*
X76462500Y-103187500D03*
X80807000Y-98850000D03*
X85900000Y-98850000D03*
X96200000Y-104300000D03*
X86000000Y-102875000D03*
X101207109Y-106408418D03*
X91500000Y-108250000D03*
%TO.N,/A2*%
X68111765Y-103688235D03*
X61849265Y-110750735D03*
X60678686Y-111952382D03*
X76850000Y-103950000D03*
%TO.N,/B2*%
X60100000Y-111400000D03*
X61625000Y-109900000D03*
%TO.N,/IDX2*%
X65475000Y-93900000D03*
%TO.N,/A1*%
X78150000Y-98475000D03*
X63500000Y-97550000D03*
%TO.N,/B1*%
X67800000Y-90100000D03*
%TO.N,/IDX1*%
X79375000Y-104600000D03*
X63625000Y-100050000D03*
%TO.N,Net-(J2-Pin_2)*%
X67500000Y-88775000D03*
X66375000Y-95750000D03*
%TO.N,/CAN TX*%
X83975000Y-97650000D03*
X83975000Y-103975000D03*
%TO.N,/CAN RX*%
X83050000Y-97675000D03*
X75150000Y-109825000D03*
%TO.N,/UART RTS*%
X96050000Y-110850000D03*
X72250000Y-113675000D03*
%TO.N,Net-(J3-Pin_2)*%
X77325735Y-107099265D03*
X90449231Y-98182821D03*
X90300000Y-88175000D03*
X89450000Y-101100000D03*
X68025000Y-109950000D03*
%TO.N,/UART DTR*%
X72400000Y-109275000D03*
X96575000Y-111525000D03*
%TO.N,Net-(U3-D-)*%
X102325000Y-106550000D03*
X102800000Y-108300000D03*
X102050000Y-111250000D03*
%TO.N,Net-(U3-D+)*%
X101900000Y-108100000D03*
X100150000Y-111100000D03*
%TO.N,/SDA*%
X69150000Y-102675000D03*
X76375000Y-102057015D03*
X80500000Y-108075000D03*
%TO.N,/SCL*%
X69250000Y-105525000D03*
X71125000Y-105550000D03*
X79625000Y-108550000D03*
%TO.N,/UART0 RX*%
X98536765Y-110513235D03*
X85000000Y-94200000D03*
%TO.N,/UART0 TX*%
X99261963Y-111086396D03*
X89050000Y-86675000D03*
%TO.N,/UART1 RX*%
X75550000Y-95650000D03*
%TO.N,/UART1 TX*%
X75550857Y-94849998D03*
%TD*%
D27*
%TO.N,GND*%
X101100000Y-111149943D02*
X101100000Y-110300000D01*
X56550000Y-120250000D02*
X59150000Y-120250000D01*
X103401000Y-106349529D02*
X103401000Y-110748943D01*
X103401000Y-110748943D02*
X102298943Y-111851000D01*
X104350000Y-119800000D02*
X101750000Y-119800000D01*
X101801057Y-111851000D02*
X101100000Y-111149943D01*
X102298943Y-111851000D02*
X101801057Y-111851000D01*
X102964193Y-105912722D02*
X103401000Y-106349529D01*
%TO.N,+3.3V*%
X76462500Y-103187500D02*
X80800000Y-98850000D01*
X93712500Y-107637500D02*
X93100000Y-108250000D01*
D28*
X92750000Y-106700000D02*
X93700000Y-107650000D01*
D27*
X80800000Y-98850000D02*
X80807000Y-98850000D01*
X100500000Y-104300000D02*
X101207109Y-105007109D01*
X101207109Y-105007109D02*
X101207109Y-106408418D01*
X90500000Y-111849000D02*
X90500000Y-112750000D01*
X93100000Y-108250000D02*
X91500000Y-108250000D01*
X96200000Y-104300000D02*
X100500000Y-104300000D01*
D28*
X86500000Y-106700000D02*
X92750000Y-106700000D01*
X85900000Y-98850000D02*
X85900000Y-102775000D01*
D27*
X89600000Y-110949000D02*
X90500000Y-111849000D01*
D28*
X85900000Y-102775000D02*
X86000000Y-102875000D01*
D27*
%TO.N,/A2*%
X68113235Y-103688235D02*
X68111765Y-103688235D01*
X60678686Y-111921314D02*
X61849265Y-110750735D01*
X76850000Y-103950000D02*
X68375000Y-103950000D01*
X68375000Y-103950000D02*
X68113235Y-103688235D01*
X60678686Y-111952382D02*
X60678686Y-111921314D01*
%TO.N,/B2*%
X61600000Y-109900000D02*
X61625000Y-109900000D01*
X60100000Y-111400000D02*
X61600000Y-109900000D01*
%TO.N,/IDX2*%
X65475000Y-93900000D02*
X65475000Y-94700000D01*
X62500000Y-97675000D02*
X62500000Y-111800000D01*
X65475000Y-94700000D02*
X62500000Y-97675000D01*
X62500000Y-111800000D02*
X56550000Y-117750000D01*
%TO.N,/A1*%
X63500000Y-97550000D02*
X74950000Y-97550000D01*
X74950000Y-97550000D02*
X74975000Y-97575000D01*
X74975000Y-97575000D02*
X77250000Y-97575000D01*
X77250000Y-97575000D02*
X78150000Y-98475000D01*
%TO.N,/B1*%
X61674943Y-96750000D02*
X56550000Y-96750000D01*
X67800000Y-90100000D02*
X67800000Y-90624943D01*
X67800000Y-90624943D02*
X61674943Y-96750000D01*
%TO.N,/IDX1*%
X79375000Y-104600000D02*
X68175000Y-104600000D01*
X68175000Y-104600000D02*
X63625000Y-100050000D01*
%TO.N,Net-(J2-Pin_2)*%
X67825000Y-88775000D02*
X67500000Y-88775000D01*
X66375000Y-95750000D02*
X68426000Y-93699000D01*
X68426000Y-89376000D02*
X67825000Y-88775000D01*
X68426000Y-93699000D02*
X68426000Y-89376000D01*
%TO.N,/CAN TX*%
X83975000Y-103975000D02*
X83975000Y-97650000D01*
%TO.N,/CAN RX*%
X79599943Y-109825000D02*
X75150000Y-109825000D01*
X83050000Y-97675000D02*
X83050000Y-106374943D01*
X83050000Y-106374943D02*
X79599943Y-109825000D01*
%TO.N,/UART RTS*%
X89450000Y-114725000D02*
X88400000Y-113675000D01*
X96050000Y-110850000D02*
X93675000Y-110850000D01*
X90575000Y-114725000D02*
X89450000Y-114725000D01*
X93675000Y-110850000D02*
X91225000Y-113300000D01*
X88400000Y-113675000D02*
X72250000Y-113675000D01*
X91225000Y-114075000D02*
X90575000Y-114725000D01*
X91225000Y-113300000D02*
X91225000Y-114075000D01*
%TO.N,Net-(J3-Pin_2)*%
X107865000Y-86350000D02*
X105665000Y-84150000D01*
X94325000Y-84150000D02*
X90300000Y-88175000D01*
X71500000Y-106475000D02*
X76701470Y-106475000D01*
X89450000Y-101100000D02*
X89450000Y-99182052D01*
X89450000Y-99182052D02*
X90449231Y-98182821D01*
X76701470Y-106475000D02*
X77325735Y-107099265D01*
X68025000Y-109950000D02*
X71500000Y-106475000D01*
X105665000Y-84150000D02*
X94325000Y-84150000D01*
%TO.N,/UART DTR*%
X71649000Y-113923943D02*
X71649000Y-110026000D01*
X94342100Y-111525000D02*
X90616100Y-115251000D01*
X90616100Y-115251000D02*
X72976057Y-115251000D01*
X71649000Y-110026000D02*
X72400000Y-109275000D01*
X72976057Y-115251000D02*
X71649000Y-113923943D01*
X96575000Y-111525000D02*
X94342100Y-111525000D01*
%TO.N,Net-(U3-D-)*%
X102940000Y-110360000D02*
X102940000Y-108440000D01*
X102325000Y-106550000D02*
X102500000Y-106725000D01*
X102050000Y-111250000D02*
X102940000Y-110360000D01*
X102940000Y-108440000D02*
X102800000Y-108300000D01*
X102500000Y-106725000D02*
X102500000Y-108000000D01*
X102500000Y-108000000D02*
X102800000Y-108300000D01*
%TO.N,Net-(U3-D+)*%
X100150000Y-111100000D02*
X100150000Y-110250000D01*
X100150000Y-110250000D02*
X101900000Y-108500000D01*
X101900000Y-108500000D02*
X101900000Y-108100000D01*
%TO.N,/SDA*%
X80502284Y-98249000D02*
X81055943Y-98249000D01*
X76375000Y-102376284D02*
X76076284Y-102675000D01*
X81408000Y-98601057D02*
X81408000Y-107167000D01*
X76375000Y-102057015D02*
X76375000Y-102376284D01*
X81408000Y-107167000D02*
X80500000Y-108075000D01*
X81055943Y-98249000D02*
X81408000Y-98601057D01*
X76694269Y-102057015D02*
X80502284Y-98249000D01*
X76375000Y-102057015D02*
X76694269Y-102057015D01*
X76076284Y-102675000D02*
X69150000Y-102675000D01*
%TO.N,/SCL*%
X79625000Y-108550000D02*
X77075000Y-106000000D01*
X71575000Y-106000000D02*
X71125000Y-105550000D01*
X77075000Y-106000000D02*
X71575000Y-106000000D01*
X71100000Y-105525000D02*
X71125000Y-105550000D01*
X69250000Y-105525000D02*
X71100000Y-105525000D01*
%TO.N,/UART0 RX*%
X97300057Y-106250000D02*
X94550000Y-106250000D01*
X94525000Y-106225000D02*
X94525000Y-100382900D01*
X94525000Y-100382900D02*
X88342100Y-94200000D01*
X98536765Y-107486708D02*
X97300057Y-106250000D01*
X88342100Y-94200000D02*
X85000000Y-94200000D01*
X98536765Y-110513235D02*
X98536765Y-107486708D01*
X94550000Y-106250000D02*
X94525000Y-106225000D01*
%TO.N,/UART0 TX*%
X95150000Y-100440800D02*
X95150000Y-105825000D01*
X99261963Y-107644806D02*
X99261963Y-111086396D01*
X97442157Y-105825000D02*
X99261963Y-107644806D01*
X95150000Y-105825000D02*
X97442157Y-105825000D01*
X89050000Y-86675000D02*
X89075000Y-86700000D01*
X89075000Y-86700000D02*
X89075000Y-94365800D01*
X89075000Y-94365800D02*
X95150000Y-100440800D01*
%TO.N,/UART1 RX*%
X83549943Y-95650000D02*
X75550000Y-95650000D01*
X91915740Y-106208500D02*
X86501000Y-100793760D01*
X104450000Y-122300000D02*
X101850057Y-122300000D01*
X98750057Y-119200000D02*
X98750057Y-112650057D01*
X93781586Y-107036500D02*
X92953586Y-106208500D01*
X94313500Y-107388557D02*
X93961443Y-107036500D01*
X94149971Y-108049971D02*
X94313500Y-107886443D01*
X86501000Y-98601057D02*
X83549943Y-95650000D01*
X93961443Y-107036500D02*
X93781586Y-107036500D01*
X86501000Y-100793760D02*
X86501000Y-98601057D01*
X92953586Y-106208500D02*
X91915740Y-106208500D01*
X98750057Y-112650057D02*
X94149971Y-108049971D01*
X94313500Y-107886443D02*
X94313500Y-107388557D01*
X101850057Y-122300000D02*
X98750057Y-119200000D01*
%TO.N,/UART1 TX*%
X94127543Y-106635500D02*
X94050000Y-106635500D01*
X94050000Y-106635500D02*
X94050000Y-100475000D01*
X99151057Y-111676057D02*
X98343157Y-111676057D01*
X98343157Y-111676057D02*
X94714500Y-108047400D01*
X94714500Y-108047400D02*
X94714500Y-107222457D01*
X104450000Y-124800000D02*
X106300000Y-122950000D01*
X106300000Y-122950000D02*
X106300000Y-118825000D01*
X106300000Y-118825000D02*
X99151057Y-111676057D01*
X88424998Y-94849998D02*
X75550857Y-94849998D01*
X94714500Y-107222457D02*
X94127543Y-106635500D01*
X94050000Y-100475000D02*
X88424998Y-94849998D01*
%TD*%
M02*
